<?xml version="1.0" encoding="UTF-8" standalone="no"?>
<!-- Generator: Adobe Illustrator 16.0.0, SVG Export Plug-In . SVG Version: 6.00 Build 0)  -->

<svg
   xmlns:dc="http://purl.org/dc/elements/1.1/"
   xmlns:cc="http://creativecommons.org/ns#"
   xmlns:rdf="http://www.w3.org/1999/02/22-rdf-syntax-ns#"
   xmlns:svg="http://www.w3.org/2000/svg"
   xmlns="http://www.w3.org/2000/svg"
   xmlns:sodipodi="http://sodipodi.sourceforge.net/DTD/sodipodi-0.dtd"
   xmlns:inkscape="http://www.inkscape.org/namespaces/inkscape"
   version="1.1"
   id="Layer_1"
   x="0px"
   y="0px"
   width="64"
   height="64"
   viewBox="0 0 63.999999 64.000003"
   enable-background="new 0 0 266.893 266.895"
   xml:space="preserve"
   inkscape:version="0.91 r13725"
   sodipodi:docname="email.svg"><metadata
     id="metadata9"><rdf:RDF><cc:Work
         rdf:about=""><dc:format>image/svg+xml</dc:format><dc:type
           rdf:resource="http://purl.org/dc/dcmitype/StillImage" /><dc:title></dc:title></cc:Work></rdf:RDF></metadata><defs
     id="defs7" /><sodipodi:namedview
     pagecolor="#ffffff"
     bordercolor="#666666"
     borderopacity="1"
     objecttolerance="10"
     gridtolerance="10"
     guidetolerance="10"
     inkscape:pageopacity="0"
     inkscape:pageshadow="2"
     inkscape:window-width="3200"
     inkscape:window-height="1697"
     id="namedview5"
     showgrid="false"
     inkscape:zoom="10.004066"
     inkscape:cx="21.793133"
     inkscape:cy="6.1525921"
     inkscape:window-x="0"
     inkscape:window-y="0"
     inkscape:window-maximized="1"
     inkscape:current-layer="Layer_1" /><path
     d="M 31.999467,-9.9999998e-8 C 14.326852,-9.9999998e-8 0,14.32718 0,31.99968 0,49.67175 14.326852,64 31.999467,64 49.672081,64 64,49.67175 64,31.99968 64,14.32718 49.672081,-9.9999998e-8 31.999467,-9.9999998e-8 Z M 32.000107,11.23979 l 18.936422,11.80812 -37.872845,0 18.936423,-11.80812 z m 19.172373,30.6642 -0.0019,0 c 0,1.89399 -1.534959,3.42873 -3.428751,3.42873 l -31.483405,0 c -1.894005,0 -3.42875,-1.53495 -3.42875,-3.42873 l 0,-18.10471 c 0,-0.20032 0.02048,-0.3951 0.05376,-0.58646 l 18.092675,11.28182 c 0.02219,0.0139 0.04587,0.0232 0.06869,0.036 0.02389,0.0132 0.04821,0.026 0.07253,0.0382 0.127788,0.0659 0.259417,0.11904 0.394033,0.15381 0.01387,0.004 0.02773,0.006 0.0416,0.009 0.147629,0.0348 0.297178,0.0565 0.446514,0.0565 l 0.0011,0 c 0.0011,0 0.0021,0 0.0021,0 0.149336,0 0.298885,-0.0211 0.446514,-0.0565 0.01387,-0.003 0.02773,-0.005 0.0416,-0.009 0.134402,-0.0348 0.265604,-0.0879 0.394033,-0.15381 0.02432,-0.0122 0.04864,-0.025 0.07253,-0.0382 0.02261,-0.0128 0.04651,-0.0222 0.06869,-0.036 L 51.118718,23.21282 c 0.03328,0.19136 0.05376,0.38571 0.05376,0.58646 l 0,18.10471 z"
     id="path7"
     inkscape:connector-curvature="0" /></svg>