<?xml version="1.0" encoding="UTF-8" standalone="no"?>
<!-- Generator: Adobe Illustrator 16.0.0, SVG Export Plug-In . SVG Version: 6.00 Build 0)  -->

<svg
   xmlns:dc="http://purl.org/dc/elements/1.1/"
   xmlns:cc="http://creativecommons.org/ns#"
   xmlns:rdf="http://www.w3.org/1999/02/22-rdf-syntax-ns#"
   xmlns:svg="http://www.w3.org/2000/svg"
   xmlns="http://www.w3.org/2000/svg"
   xmlns:sodipodi="http://sodipodi.sourceforge.net/DTD/sodipodi-0.dtd"
   xmlns:inkscape="http://www.inkscape.org/namespaces/inkscape"
   version="1.1"
   id="Layer_1"
   x="0px"
   y="0px"
   width="64"
   height="64"
   viewBox="0 0 63.999999 64.000003"
   enable-background="new 0 0 266.893 266.895"
   xml:space="preserve"
   inkscape:version="0.91 r13725"
   sodipodi:docname="facebook.svg"><metadata
     id="metadata9"><rdf:RDF><cc:Work
         rdf:about=""><dc:format>image/svg+xml</dc:format><dc:type
           rdf:resource="http://purl.org/dc/dcmitype/StillImage" /><dc:title></dc:title></cc:Work></rdf:RDF></metadata><defs
     id="defs7" /><sodipodi:namedview
     pagecolor="#ffffff"
     bordercolor="#666666"
     borderopacity="1"
     objecttolerance="10"
     gridtolerance="10"
     guidetolerance="10"
     inkscape:pageopacity="0"
     inkscape:pageshadow="2"
     inkscape:window-width="3200"
     inkscape:window-height="1697"
     id="namedview5"
     showgrid="false"
     inkscape:zoom="7.0739432"
     inkscape:cx="9.7129027"
     inkscape:cy="30.333757"
     inkscape:window-x="0"
     inkscape:window-y="0"
     inkscape:window-maximized="1"
     inkscape:current-layer="Layer_1" /><path
     style="fill-opacity:1;stroke:none;stroke-width:14.18738461;stroke-linecap:butt;stroke-linejoin:miter;stroke-miterlimit:4;stroke-dasharray:none;stroke-dashoffset:0;stroke-opacity:1"
     d="M 32 0 A 32 32 0 0 0 0 32 A 32 32 0 0 0 26.232422 63.451172 L 26.232422 39.214844 L 17.892578 39.214844 L 17.892578 29.556641 L 26.232422 29.556641 L 26.232422 22.433594 C 26.232422 14.167354 31.280075 9.6660156 38.654297 9.6660156 C 42.186574 9.6660156 45.22286 9.929165 46.107422 10.046875 L 46.107422 18.685547 L 40.994141 18.6875 C 36.984078 18.6875 36.207031 20.594155 36.207031 23.390625 L 36.207031 29.556641 L 45.771484 29.556641 L 44.525391 39.214844 L 36.207031 39.214844 L 36.207031 63.683594 A 32 32 0 0 0 64 32 A 32 32 0 0 0 32 0 z "
     id="path4160" /></svg>