<?xml version="1.0" encoding="UTF-8" standalone="no"?>
<!-- Generator: Adobe Illustrator 16.0.0, SVG Export Plug-In . SVG Version: 6.00 Build 0)  -->

<svg
   xmlns:dc="http://purl.org/dc/elements/1.1/"
   xmlns:cc="http://creativecommons.org/ns#"
   xmlns:rdf="http://www.w3.org/1999/02/22-rdf-syntax-ns#"
   xmlns:svg="http://www.w3.org/2000/svg"
   xmlns="http://www.w3.org/2000/svg"
   xmlns:sodipodi="http://sodipodi.sourceforge.net/DTD/sodipodi-0.dtd"
   xmlns:inkscape="http://www.inkscape.org/namespaces/inkscape"
   version="1.1"
   id="Layer_1"
   x="0px"
   y="0px"
   width="64"
   height="64"
   viewBox="0 0 63.999999 64.000003"
   enable-background="new 0 0 266.893 266.895"
   xml:space="preserve"
   inkscape:version="0.91 r13725"
   sodipodi:docname="github.svg"><metadata
     id="metadata9"><rdf:RDF><cc:Work
         rdf:about=""><dc:format>image/svg+xml</dc:format><dc:type
           rdf:resource="http://purl.org/dc/dcmitype/StillImage" /><dc:title></dc:title></cc:Work></rdf:RDF></metadata><defs
     id="defs7" /><sodipodi:namedview
     pagecolor="#ffffff"
     bordercolor="#666666"
     borderopacity="1"
     objecttolerance="10"
     gridtolerance="10"
     guidetolerance="10"
     inkscape:pageopacity="0"
     inkscape:pageshadow="2"
     inkscape:window-width="3200"
     inkscape:window-height="1697"
     id="namedview5"
     showgrid="false"
     inkscape:zoom="10.004066"
     inkscape:cx="21.793133"
     inkscape:cy="6.1525921"
     inkscape:window-x="0"
     inkscape:window-y="0"
     inkscape:window-maximized="1"
     inkscape:current-layer="Layer_1" /><path
     d="M 31.997054,1.7281204e-7 C 14.32874,1.7281204e-7 0,14.689345 0,32.810836 c 0,14.493973 9.168114,26.792498 21.884035,31.133035 1.601031,0.300112 2.184475,-0.713016 2.184475,-1.583138 0,-0.779484 -0.0275,-2.841994 -0.04321,-5.579252 -8.900951,1.981944 -10.77897,-4.398948 -10.77897,-4.398948 -1.455667,-3.790669 -3.553706,-4.799769 -3.553706,-4.799769 -2.90543,-2.034312 0.220019,-1.994029 0.220019,-1.994029 3.211885,0.23163 4.901317,3.381793 4.901317,3.381793 2.854354,5.01327 7.49047,3.565082 9.313484,2.725172 0.290738,-2.118906 1.117776,-3.565081 2.031247,-4.384849 C 19.053255,46.481013 11.58243,43.667216 11.58243,31.094764 c 0,-3.58321 1.24743,-6.509799 3.294393,-8.80394 -0.330029,-0.829838 -1.428159,-4.165304 0.314312,-8.683089 0,0 2.685411,-0.882206 8.798798,3.361651 2.551827,-0.727116 5.29028,-1.089666 8.011049,-1.103766 2.718805,0.0141 5.455293,0.37665 8.01105,1.103766 6.109457,-4.243857 8.79094,-3.361651 8.79094,-3.361651 1.746401,4.517785 0.64827,7.853251 0.320207,8.683089 2.05089,2.294141 3.288497,5.22073 3.288497,8.80394 0,12.604678 -7.482612,15.378192 -14.609656,16.189903 1.147243,1.013128 2.170724,3.015213 2.170724,6.076752 0,4.38485 -0.03929,7.923747 -0.03929,8.999314 0,0.878179 0.57755,1.899363 2.20019,1.57911 C 54.839742,59.591249 64,47.302795 64,32.810836 64,14.689345 49.67126,1.7281204e-7 31.997054,1.7281204e-7"
     style="fill-opacity:1;fill-rule:evenodd;stroke:none"
     id="path16"
     inkscape:connector-curvature="0" /></svg>