<?xml version="1.0" encoding="UTF-8" standalone="no"?>
<!-- Generator: Adobe Illustrator 16.0.0, SVG Export Plug-In . SVG Version: 6.00 Build 0)  -->

<svg
   xmlns:dc="http://purl.org/dc/elements/1.1/"
   xmlns:cc="http://creativecommons.org/ns#"
   xmlns:rdf="http://www.w3.org/1999/02/22-rdf-syntax-ns#"
   xmlns:svg="http://www.w3.org/2000/svg"
   xmlns="http://www.w3.org/2000/svg"
   xmlns:sodipodi="http://sodipodi.sourceforge.net/DTD/sodipodi-0.dtd"
   xmlns:inkscape="http://www.inkscape.org/namespaces/inkscape"
   version="1.1"
   id="Layer_1"
   x="0px"
   y="0px"
   width="140"
   height="140"
   viewBox="0 0 140 140"
   xml:space="preserve"
   inkscape:version="0.91 r13725"
   sodipodi:docname="JEE.svg"><metadata
     id="metadata77"><rdf:RDF><cc:Work
         rdf:about=""><dc:format>image/svg+xml</dc:format><dc:type
           rdf:resource="http://purl.org/dc/dcmitype/StillImage" /><dc:title></dc:title></cc:Work></rdf:RDF></metadata><defs
     id="defs75" /><sodipodi:namedview
     pagecolor="#ffffff"
     bordercolor="#666666"
     borderopacity="1"
     objecttolerance="10"
     gridtolerance="10"
     guidetolerance="10"
     inkscape:pageopacity="0"
     inkscape:pageshadow="2"
     inkscape:window-width="3200"
     inkscape:window-height="1697"
     id="namedview73"
     showgrid="false"
     inkscape:zoom="1.6857143"
     inkscape:cx="175"
     inkscape:cy="70"
     inkscape:window-x="0"
     inkscape:window-y="0"
     inkscape:window-maximized="1"
     inkscape:current-layer="Layer_1" /><style
     type="text/css"
     id="style3"><![CDATA[
	.st0{fill:#E76F00;}
	.st1{opacity:0.6;fill:#878787;}
]]></style><path
     class="st1"
     d="m 58.57,97.97 c 0,0 -3.91,2.27 2.78,3.04 8.11,0.93 12.25,0.79 21.19,-0.9 0,0 2.35,1.47 5.63,2.75 -20.03,8.59 -45.33,-0.5 -29.6,-4.89"
     id="path21"
     inkscape:connector-curvature="0"
     style="opacity:0.6;fill:#d8d8d8;fill-opacity:1" /><path
     class="st1"
     d="m 56.12,86.77 c 0,0 -4.38,3.25 2.31,3.94 8.66,0.89 15.5,0.97 27.33,-1.31 0,0 1.64,1.66 4.21,2.57 -24.2,7.07 -51.18,0.55 -33.85,-5.2"
     id="path23"
     inkscape:connector-curvature="0"
     style="opacity:0.6;fill:#d8d8d8;fill-opacity:1" /><path
     class="st1"
     d="m 76.76,67.76 c 4.94,5.68 -1.3,10.8 -1.3,10.8 0,0 12.53,-6.47 6.78,-14.57 -5.38,-7.55 -9.5,-11.31 12.82,-24.25 0,0 -35.03,8.75 -18.3,28.02"
     id="path25"
     inkscape:connector-curvature="0"
     style="opacity:0.6;fill:#d8d8d8;fill-opacity:1" /><path
     class="st1"
     d="m 103.25,106.25 c 0,0 2.89,2.39 -3.19,4.23 -11.56,3.5 -48.12,4.56 -58.27,0.14 -3.65,-1.59 3.2,-3.79 5.35,-4.25 2.25,-0.49 3.53,-0.4 3.53,-0.4 -4.06,-2.86 -26.24,5.62 -11.27,8.04 40.84,6.63 74.44,-2.98 63.85,-7.76"
     id="path27"
     inkscape:connector-curvature="0"
     style="opacity:0.6;fill:#d8d8d8;fill-opacity:1" /><path
     class="st1"
     d="m 60.45,75.16 c 0,0 -18.6,4.42 -6.58,6.02 5.07,0.68 15.18,0.52 24.6,-0.26 7.7,-0.65 15.42,-2.03 15.42,-2.03 0,0 -2.71,1.16 -4.68,2.5 -18.88,4.97 -55.36,2.66 -44.86,-2.42 8.88,-4.3 16.1,-3.81 16.1,-3.81"
     id="path29"
     inkscape:connector-curvature="0"
     style="opacity:0.6;fill:#d8d8d8;fill-opacity:1" /><path
     class="st1"
     d="m 93.81,93.81 c 19.2,-9.98 10.32,-19.56 4.12,-18.27 -1.52,0.32 -2.2,0.59 -2.2,0.59 0,0 0.56,-0.88 1.64,-1.27 12.26,-4.31 21.68,12.71 -3.96,19.45 0.01,0 0.31,-0.27 0.4,-0.5"
     id="path31"
     inkscape:connector-curvature="0"
     style="opacity:0.6;fill:#d8d8d8;fill-opacity:1" /><path
     class="st1"
     d="m 82.24,18.84 c 0,0 10.63,10.63 -10.08,26.99 C 55.55,58.95 68.37,66.43 72.15,74.97 62.45,66.22 55.34,58.52 60.11,51.35 67.12,40.84 86.53,35.73 82.24,18.84"
     id="path33"
     inkscape:connector-curvature="0"
     style="opacity:0.6;fill:#d8d8d8;fill-opacity:1" /><path
     class="st1"
     d="m 62.34,120.84 c 18.43,1.18 46.72,-0.65 47.39,-9.37 0,0 -1.29,3.31 -15.23,5.93 -15.73,2.96 -35.12,2.61 -46.63,0.72 0.01,-0.01 2.36,1.94 14.47,2.72"
     id="path35"
     inkscape:connector-curvature="0"
     style="opacity:0.6;fill:#d8d8d8;fill-opacity:1" /><g
     id="g37" /><g
     id="g39" /><g
     id="g41" /><g
     id="g43" /><g
     id="g45" /><g
     id="g47" /><g
     id="g49" /><g
     id="g51" /><g
     id="g53" /><g
     id="g55" /><g
     id="g57" /><g
     id="g59" /><g
     id="g61" /><g
     id="g63" /><g
     id="g65" /><g
     id="g67" /><g
     id="g69" /><g
     id="g71" /></svg>