<?xml version="1.0" encoding="UTF-8" standalone="no"?>
<!-- Created with Inkscape (http://www.inkscape.org/) -->

<svg
   xmlns:dc="http://purl.org/dc/elements/1.1/"
   xmlns:cc="http://creativecommons.org/ns#"
   xmlns:rdf="http://www.w3.org/1999/02/22-rdf-syntax-ns#"
   xmlns:svg="http://www.w3.org/2000/svg"
   xmlns="http://www.w3.org/2000/svg"
   xmlns:sodipodi="http://sodipodi.sourceforge.net/DTD/sodipodi-0.dtd"
   xmlns:inkscape="http://www.inkscape.org/namespaces/inkscape"
   width="32"
   height="32"
   viewBox="0 0 31.999999 31.999998"
   id="svg16841"
   version="1.1"
   inkscape:version="0.91 r13725"
   sodipodi:docname="logo.svg">
  <defs
     id="defs16843" />
  <sodipodi:namedview
     id="base"
     pagecolor="#ffffff"
     bordercolor="#666666"
     borderopacity="1.0"
     inkscape:pageopacity="0.0"
     inkscape:pageshadow="2"
     inkscape:zoom="3.959798"
     inkscape:cx="96.501012"
     inkscape:cy="102.25445"
     inkscape:document-units="px"
     inkscape:current-layer="layer1"
     showgrid="false"
     units="px"
     inkscape:window-width="3200"
     inkscape:window-height="1697"
     inkscape:window-x="0"
     inkscape:window-y="0"
     inkscape:window-maximized="1" />
  <metadata
     id="metadata16846">
    <rdf:RDF>
      <cc:Work
         rdf:about="">
        <dc:format>image/svg+xml</dc:format>
        <dc:type
           rdf:resource="http://purl.org/dc/dcmitype/StillImage" />
        <dc:title></dc:title>
      </cc:Work>
    </rdf:RDF>
  </metadata>
  <g
     inkscape:label="Layer 1"
     inkscape:groupmode="layer"
     id="layer1"
     transform="translate(0,-1020.3622)">
    <g
       style="font-style:normal;font-variant:normal;font-weight:500;font-stretch:normal;font-size:40px;line-height:125%;font-family:ObjektivMk2W03-Medium;-inkscape-font-specification:'ObjektivMk2W03-Medium, Medium';text-align:start;letter-spacing:0px;word-spacing:0px;writing-mode:lr-tb;text-anchor:start;fill:#000000;fill-opacity:1;stroke:none;stroke-width:1px;stroke-linecap:butt;stroke-linejoin:miter;stroke-opacity:1"
       id="flowRoot17511"
       transform="matrix(0.42301767,0,0,0.48521261,-17.552464,579.74046)"
       inkscape:export-xdpi="90"
       inkscape:export-ydpi="90">
      <path
         d="m 43.857422,928.01851 5.2,0 6.64,24.4 7.16,-24 4.72,0 7.16,23.8 6.6,-24.2 5.12,0 -9.2,30.4 -5,0 -7.16,-23.6 -7.04,23.6 -5.04,0 -9.16,-30.4 z"
         id="path17522"
         inkscape:connector-curvature="0" />
      <path
         d="m 87.061083,910.16137 11.120003,0 c 3.013334,0 5.360004,0.68 7.040004,2.04 1.68,1.33333 2.52,3.22666 2.52,5.68 0,3.06666 -1.30667,5.2 -3.92,6.4 1.70666,0.53333 3.04,1.46666 4,2.8 0.98666,1.33333 1.48,2.90666 1.48,4.72 0,2.8 -0.92,4.96 -2.76,6.48 -1.81334,1.52 -4.41334,2.28 -7.800004,2.28 l -11.680003,0 z m 4.72,26.28 6.760003,0 c 1.866664,0 3.266664,-0.38667 4.200004,-1.16 0.96,-0.8 1.44,-1.97334 1.44,-3.52 0,-3.25334 -2.02667,-4.88 -6.080004,-4.88 l -6.320003,0 z m 0,-13.68 5.240003,0 c 1.973333,0 3.413334,-0.37334 4.320004,-1.12 0.93333,-0.74667 1.4,-1.90667 1.4,-3.48 0,-1.30667 -0.44,-2.28 -1.32,-2.92 -0.88,-0.64 -2.226671,-0.96 -4.040004,-0.96 l -5.600003,0 z"
         id="path17524"
         inkscape:connector-curvature="0"
         sodipodi:nodetypes="cscsccscscccscsscccscssscc" />
      <path
         d="m 87.016443,941.58994 11.400003,0 c 3.333334,0 6.226664,0.6 8.680004,1.8 2.45333,1.17333 4.34666,2.90667 5.68,5.2 1.33333,2.26667 2,4.98667 2,8.16 0,4.82667 -1.48,8.57333 -4.44,11.24 -2.96,2.66667 -7.13334,4 -12.520004,4 l -10.800003,0 z m 5,26.28 5.800003,0 c 7.840004,0 11.760004,-3.69333 11.760004,-11.08 0,-7.38667 -3.90667,-11.08 -11.720004,-11.08 l -5.840003,0 z"
         id="path17526"
         inkscape:connector-curvature="0"
         sodipodi:nodetypes="csccssscccssscc" />
    </g>
  </g>
</svg>
