<?xml version="1.0" encoding="UTF-8" standalone="no"?>
<!-- Created with Inkscape (http://www.inkscape.org/) -->

<svg
   xmlns:dc="http://purl.org/dc/elements/1.1/"
   xmlns:cc="http://creativecommons.org/ns#"
   xmlns:rdf="http://www.w3.org/1999/02/22-rdf-syntax-ns#"
   xmlns:svg="http://www.w3.org/2000/svg"
   xmlns="http://www.w3.org/2000/svg"
   xmlns:sodipodi="http://sodipodi.sourceforge.net/DTD/sodipodi-0.dtd"
   xmlns:inkscape="http://www.inkscape.org/namespaces/inkscape"
   id="svg2"
   version="1.1"
   inkscape:version="0.91 r13725"
   xml:space="preserve"
   width="1750"
   height="1225"
   viewBox="0 0 1750 1225"
   sodipodi:docname="pattern223.svg"><metadata
     id="metadata8"><rdf:RDF><cc:Work
         rdf:about=""><dc:format>image/svg+xml</dc:format><dc:type
           rdf:resource="http://purl.org/dc/dcmitype/StillImage" /><dc:title></dc:title></cc:Work></rdf:RDF></metadata><defs
     id="defs6"><clipPath
       clipPathUnits="userSpaceOnUse"
       id="clipPath14"><path
         d="m 0,0 0,2997 2991,0 L 2991,0 0,0 Z"
         id="path16"
         inkscape:connector-curvature="0" /></clipPath><pattern
       patternTransform="matrix(10,0,0,10,0,810)"
       patternUnits="userSpaceOnUse"
       x="0"
       y="0"
       width="299.05"
       height="299.667"
       id="pattern18"><g
         transform="scale(0.1,0.1)"
         id="g20"><g
           id="g22"><g
             clip-path="url(#clipPath14)"
             id="g24"><path
               d="m -1947.21,4344.51 c -65.19,97.45 -63.6,201.59 -2.19,301.37 68.27,110.92 183.84,156.33 333.17,133.44 0,28.28 0.5,55.98 -0.09,83.66 -3.38,161.12 129.97,299.92 289.82,301.39 160.55,1.47 296.55,-139.6 292.74,-303.39 -0.61,-26.3 -0.08,-52.64 -0.08,-81.66 147.219,28.42 262.949,-18.06 338.785,-144.08 59.285,-98.5 54.586,-202.3 -11.558,-296.56 -78.364,-111.68 -188.168,-153.35 -327.157,-124.93 0,-28.85 -0.5,-56.55 0.09,-84.23 3.38,-161.12 -129.97,-299.92 -289.82,-301.39 -160.6,-1.47 -296.55,139.56 -292.74,303.39 0.61,26.3 0.08,52.64 0.08,82.41 -143.65,-28.84 -254.1,15.54 -331.05,130.58 z m 1875.6123,1122.7 c -35.2613,53.29 -49.3473,111.96 -44.4333,175.73 1.758,22.84 0.281,45.93 0.281,69.47 -225.363,-44.9 -378.977,123.32 -379.25,283.84 -53.332,0 -106.664,0 -160,0 -0.473,-161.99 -155.684,-328.85 -382.46,-283.08 14.91,-120.26 -0.72,-230.79 -99.98,-313.16 -54.62,-45.33 -117.11,-72.08 -187.55,-71.07 -97.43,1.4 -174.67,45.7 -235.57,121.79 -62.46,78.04 -57.85,169.87 -54.09,262.02 -224.67,-45.35 -379.88,121.51 -380.35,283.5 -53.33,0 -106.67,0 -160,0 -0.27,-160.53 -153.91,-328.74 -380.42,-283.61 3.95,-92.19 7.98,-183.72 -54.02,-262.12 -60.77,-76.86 -139.75,-115.63 -235.56,-124.27 0,-53.33 0,-106.67 0,-160 103.75,-9.27 188.13,-52.62 246.58,-140.94 35.26,-53.28 49.36,-111.94 44.46,-175.7 -1.76,-22.85 -0.29,-45.94 -0.29,-70.9 144.74,29.47 257.85,-16.15 335.01,-136.09 61.05,-94.9 61.05,-197.84 0,-292.74 -77.16,-119.94 -190.27,-165.55 -336.27,-135.83 4.08,-93.65 8.05,-185.15 -53.94,-263.55 -60.77,-76.86 -139.75,-115.61 -235.55,-124.25 0,-53.33 0,-106.67 0,-160 103.76,-9.28 188.14,-52.63 246.6,-140.96 35.26,-53.29 49.35,-111.96 44.43,-175.72 -1.75,-22.8 -0.28,-45.85 -0.28,-69.48 225.34,44.9 378.98,-123.31 379.25,-283.84 53.33,0 106.67,0 160,0 0.47,161.99 155.68,328.85 383.21,282.93 -16.47,120.69 0.33,230.85 99.24,313.29 54.53,45.44 117.1,72.1 187.54,71.09 97.43,-1.4 174.67,-45.7 235.57,-121.79 62.46,-78.03 57.85,-169.87 54.09,-262.02 224.666,45.35 379.881,-121.51 380.35,-283.5 53.336,0 106.668,0 160,0 0.273,160.51 153.883,328.74 380.406,283.61 -3.926,92.19 -7.972,183.72 54.0315,262.12 60.777344,76.86 139.75,115.63 235.5625,124.27 0,53.33 0,106.67 0,160 -103.7461,9.28 -188.1289,52.62 -246.582,140.94 -35.262,53.29 -49.363,111.94 -44.453,175.7 1.758,22.8 0.281,45.85 0.281,70.9 -144.73,-29.46 -257.848,16.14 -335.008,136.09 -61.047,94.9 -61.043,197.84 0.004,292.74 77.156,119.95 190.274,165.55 336.254,135.83 -4.055,93.65 -8.035,185.15 53.9571,263.55 60.769556,76.86 139.7422,115.61 235.5469,124.25 0,53.33 0,106.67 0,160 -103.7578,9.28 -188.1445,52.63 -246.5977,140.96"
               style="fill:#feebdc;fill-opacity:1;fill-rule:nonzero;stroke:none"
               id="path26" /><path
               d="m -495,2996.25 c 0.273,160.51 153.883,328.74 380.406,283.61 -3.926,92.19 -7.972,183.72 54.0315,262.12 60.777344,76.86 139.75,115.63 235.5625,124.27 0,-223.33 0,-446.67 0,-670 -223.332,0 -446.664,0 -670,0"
               style="fill:#3fbd92;fill-opacity:1;fill-rule:nonzero;stroke:none"
               id="path28" /><path
               d="m 1043.29,4344.51 c -65.185,97.45 -63.599,201.59 -2.19,301.37 68.27,110.92 183.84,156.33 333.17,133.44 0,28.28 0.5,55.98 -0.09,83.66 -3.38,161.12 129.97,299.92 289.82,301.39 160.55,1.47 296.55,-139.6 292.74,-303.39 -0.61,-26.3 -0.08,-52.64 -0.08,-81.66 147.22,28.42 262.95,-18.06 338.79,-144.08 59.28,-98.5 54.58,-202.3 -11.56,-296.56 -78.37,-111.68 -188.17,-153.35 -327.16,-124.93 0,-28.85 -0.5,-56.55 0.09,-84.23 3.38,-161.12 -129.97,-299.92 -289.82,-301.39 -160.6,-1.47 -296.55,139.56 -292.74,303.39 0.61,26.3 0.08,52.64 0.08,82.41 -143.65,-28.84 -254.1,15.54 -331.05,130.58 z m 1875.61,1122.7 c -35.26,53.29 -49.34,111.96 -44.43,175.73 1.76,22.84 0.28,45.93 0.28,69.47 -225.36,-44.9 -378.98,123.32 -379.25,283.84 -53.33,0 -106.67,0 -160,0 -0.47,-161.99 -155.69,-328.85 -382.46,-283.08 14.91,-120.26 -0.72,-230.79 -99.98,-313.16 -54.62,-45.33 -117.11,-72.08 -187.55,-71.07 -97.43,1.4 -174.67,45.7 -235.57,121.79 -62.46,78.04 -57.85,169.87 -54.09,262.02 -224.67,-45.35 -379.877,121.51 -380.35,283.5 -53.332,0 -106.664,0 -160,0 -0.273,-160.53 -153.91,-328.74 -380.418,-283.61 3.945,-92.19 7.981,-183.72 -54.019,-262.12 -60.778,-76.86 -139.75,-115.63 -235.563,-124.27 0,-53.33 0,-106.67 0,-160 103.746,-9.27 188.129,-52.62 246.582,-140.94 35.262,-53.28 49.363,-111.94 44.453,-175.7 -1.758,-22.85 -0.281,-45.94 -0.281,-70.9 144.734,29.47 257.848,-16.15 335.008,-136.09 61.047,-94.9 61.047,-197.84 0,-292.74 -77.16,-119.94 -190.274,-165.55 -336.27,-135.83 4.078,-93.65 8.047,-185.15 -53.945,-263.55 -60.77,-76.86 -139.742,-115.61 -235.547,-124.25 0,-53.33 0,-106.67 0,-160 103.758,-9.28 188.145,-52.63 246.598,-140.96 35.261,-53.29 49.347,-111.96 44.433,-175.72 -1.754,-22.8 -0.277,-45.85 -0.277,-69.48 225.332,44.9 378.973,-123.31 379.246,-283.84 53.336,0 106.668,0 160,0 0.473,161.99 155.68,328.85 383.21,282.93 -16.47,120.69 0.33,230.85 99.24,313.29 54.53,45.44 117.1,72.1 187.54,71.09 97.43,-1.4 174.67,-45.7 235.57,-121.79 62.46,-78.03 57.85,-169.87 54.09,-262.02 224.67,45.35 379.88,-121.51 380.35,-283.5 53.33,0 106.67,0 160,0 0.27,160.51 153.88,328.74 380.41,283.61 -3.93,92.19 -7.98,183.72 54.03,262.12 60.77,76.86 139.75,115.63 235.56,124.27 0,53.33 0,106.67 0,160 -103.75,9.28 -188.13,52.62 -246.58,140.94 -35.26,53.29 -49.37,111.94 -44.45,175.7 1.75,22.8 0.28,45.85 0.28,70.9 -144.74,-29.46 -257.85,16.14 -335.01,136.09 -61.05,94.9 -61.05,197.84 0,292.74 77.16,119.95 190.27,165.55 336.26,135.83 -4.06,93.65 -8.04,185.15 53.95,263.55 60.77,76.86 139.75,115.61 235.55,124.25 0,53.33 0,106.67 0,160 -103.76,9.28 -188.14,52.63 -246.6,140.96"
               style="fill:#feebdc;fill-opacity:1;fill-rule:nonzero;stroke:none"
               id="path30" /><path
               d="m 995.5,2996.25 c 0.473,161.99 155.68,328.85 383.21,282.93 -16.47,120.69 0.33,230.85 99.24,313.29 54.53,45.44 117.1,72.1 187.54,71.09 97.43,-1.4 174.67,-45.7 235.57,-121.79 62.46,-78.03 57.85,-169.87 54.09,-262.02 224.67,45.35 379.88,-121.51 380.35,-283.5 -446.67,0 -893.33,0 -1340,0"
               style="fill:#f14f20;fill-opacity:1;fill-rule:nonzero;stroke:none"
               id="path32" /><path
               d="m 2495.5,2996.25 c 0.27,160.51 153.88,328.74 380.41,283.61 -3.93,92.19 -7.98,183.72 54.03,262.12 60.77,76.86 139.75,115.63 235.56,124.27 0,-223.33 0,-446.67 0,-670 -223.33,0 -446.67,0 -670,0"
               style="fill:#3fbd92;fill-opacity:1;fill-rule:nonzero;stroke:none"
               id="path34" /><path
               d="m 165.5,3666.25 c 103.758,-9.28 188.145,-52.63 246.598,-140.96 35.261,-53.29 49.347,-111.96 44.433,-175.72 -1.754,-22.8 -0.277,-45.85 -0.277,-69.48 225.332,44.9 378.973,-123.31 379.246,-283.84 -222.504,0 -445.008,0 -670,0 0,223.33 0,446.66 0,670"
               style="fill:#3fbd92;fill-opacity:1;fill-rule:nonzero;stroke:none"
               id="path36" /><path
               d="m -1947.21,1347.84 c -65.19,97.45 -63.6,201.6 -2.19,301.37 68.27,110.93 183.84,156.33 333.17,133.45 0,28.28 0.5,55.98 -0.09,83.65 -3.38,161.12 129.97,299.92 289.82,301.39 160.55,1.47 296.55,-139.6 292.74,-303.39 -0.61,-26.3 -0.08,-52.63 -0.08,-81.66 147.219,28.43 262.949,-18.06 338.785,-144.07 59.285,-98.51 54.586,-202.3 -11.558,-296.57 -78.364,-111.68 -188.168,-153.35 -327.157,-124.93 0,-28.85 -0.5,-56.55 0.09,-84.23 3.38,-161.116 -129.97,-299.916 -289.82,-301.381 -160.6,-1.473 -296.55,139.551 -292.74,303.381 0.61,26.31 0.08,52.64 0.08,82.42 -143.65,-28.84 -254.1,15.53 -331.05,130.57 z M -71.5977,2470.55 c -35.2613,53.29 -49.3473,111.95 -44.4333,175.72 1.758,22.84 0.281,45.94 0.281,69.47 -225.363,-44.9 -378.977,123.33 -379.25,283.84 -53.332,0 -106.664,0 -160,0 -0.473,-161.99 -155.684,-328.84 -382.46,-283.07 14.91,-120.27 -0.72,-230.8 -99.98,-313.17 -54.62,-45.32 -117.11,-72.07 -187.55,-71.06 -97.43,1.39 -174.67,45.69 -235.57,121.78 -62.46,78.04 -57.85,169.87 -54.09,262.02 -224.67,-45.34 -379.88,121.51 -380.35,283.5 -53.33,0 -106.67,0 -160,0 -0.27,-160.53 -153.91,-328.74 -380.42,-283.6 3.95,-92.2 7.98,-183.72 -54.02,-262.13 -60.77,-76.86 -139.75,-115.63 -235.56,-124.27 0,-53.33 0,-106.66 0,-160 103.75,-9.27 188.13,-52.62 246.58,-140.94 35.26,-53.28 49.36,-111.94 44.46,-175.7 -1.76,-22.84 -0.29,-45.94 -0.29,-70.9 144.74,29.47 257.85,-16.14 335.01,-136.08 61.05,-94.9 61.05,-197.85 0,-292.75 -77.16,-119.94 -190.27,-165.55 -336.27,-135.83 4.08,-93.65 8.05,-185.15 -53.94,-263.544 -60.77,-76.859 -139.75,-115.617 -235.55,-124.25 0,-53.336 0,-106.668 0,-160 103.76,-9.277 188.14,-52.629 246.6,-140.969 35.26,-53.289 49.35,-111.953 44.43,-175.719 -1.75,-22.796 -0.28,-45.847 -0.28,-69.472 225.34,44.898 378.98,-123.309 379.25,-283.843969 53.33,0 106.67,0 160,0 0.47,161.991969 155.68,328.847969 383.21,282.929969 -16.47,120.695 0.33,230.855 99.24,313.293 54.53,45.441 117.1,72.097 187.54,71.086 97.43,-1.395 174.67,-45.696 235.57,-121.786 62.46,-78.035 57.85,-169.871 54.09,-262.019 224.666,45.344 379.881,-121.508 380.35,-283.503969 53.336,0 106.668,0 160,0 0.273,160.515969 153.883,328.741969 380.406,283.612969 -3.926,92.188 -7.972,183.715 54.0315,262.121 60.777344,76.86 139.75,115.633 235.5625,124.27 0,53.332 0,106.664 0,160 -103.7461,9.273 -188.1289,52.617 -246.582,140.941 -35.262,53.283 -49.363,111.943 -44.453,175.703 1.758,22.8 0.281,45.84 0.281,70.9 -144.73,-29.47 -257.848,16.14 -335.008,136.08 -61.047,94.9 -61.043,197.84 0.004,292.75 77.156,119.94 190.274,165.55 336.254,135.83 -4.055,93.64 -8.035,185.15 53.9571,263.54 60.769556,76.86 139.7422,115.62 235.5469,124.25 0,53.34 0,106.67 0,160 -103.7578,9.28 -188.1445,52.63 -246.5977,140.97"
               style="fill:#feebdc;fill-opacity:1;fill-rule:nonzero;stroke:none"
               id="path38" /><path
               d="m 175,829.586 c -103.7461,9.273 -188.1289,52.617 -246.582,140.941 -35.262,53.283 -49.363,111.943 -44.453,175.703 1.758,22.8 0.281,45.84 0.281,70.9 -144.73,-29.47 -257.848,16.14 -335.008,136.08 -61.047,94.9 -61.043,197.84 0.004,292.75 77.156,119.94 190.274,165.55 336.254,135.83 -4.055,93.64 -8.035,185.15 53.9571,263.54 60.769556,76.86 139.7422,115.62 235.5469,124.25 0,-446.66 0,-893.33 0,-1339.994"
               style="fill:#f14f20;fill-opacity:1;fill-rule:nonzero;stroke:none"
               id="path40" /><path
               d="m 175,2329.58 c -103.7578,9.28 -188.1445,52.63 -246.5977,140.97 -35.2613,53.29 -49.3473,111.95 -44.4333,175.72 1.758,22.84 0.281,45.94 0.281,69.47 -225.363,-44.9 -378.977,123.33 -379.25,283.84 223.336,0 446.668,0 670,0 0,-223.33 0,-446.66 0,-670"
               style="fill:#3fbd92;fill-opacity:1;fill-rule:nonzero;stroke:none"
               id="path42" /><path
               d="M -495,-0.417969 C -494.727,160.098 -341.117,328.324 -114.594,283.195 c -3.926,92.188 -7.972,183.715 54.0315,262.121 60.777344,76.86 139.75,115.633 235.5625,124.27 0,-223.336 0,-446.668 0,-670.003969 -223.332,0 -446.664,0 -670,0"
               style="fill:#3fbd92;fill-opacity:1;fill-rule:nonzero;stroke:none"
               id="path44" /><path
               d="m 1043.29,1347.84 c -65.185,97.45 -63.599,201.6 -2.19,301.37 68.27,110.93 183.84,156.33 333.17,133.45 0,28.28 0.5,55.98 -0.09,83.65 -3.38,161.12 129.97,299.92 289.82,301.39 160.55,1.47 296.55,-139.6 292.74,-303.39 -0.61,-26.3 -0.08,-52.63 -0.08,-81.66 147.22,28.43 262.95,-18.06 338.79,-144.07 59.28,-98.51 54.58,-202.3 -11.56,-296.57 -78.37,-111.68 -188.17,-153.35 -327.16,-124.93 0,-28.85 -0.5,-56.55 0.09,-84.23 3.38,-161.116 -129.97,-299.916 -289.82,-301.381 -160.6,-1.473 -296.55,139.551 -292.74,303.381 0.61,26.31 0.08,52.64 0.08,82.42 -143.65,-28.84 -254.1,15.53 -331.05,130.57 z M 2918.9,2470.55 c -35.26,53.29 -49.34,111.95 -44.43,175.72 1.76,22.84 0.28,45.94 0.28,69.47 -225.36,-44.9 -378.98,123.33 -379.25,283.84 -53.33,0 -106.67,0 -160,0 -0.47,-161.99 -155.69,-328.84 -382.46,-283.07 14.91,-120.27 -0.72,-230.8 -99.98,-313.17 -54.62,-45.32 -117.11,-72.07 -187.55,-71.06 -97.43,1.39 -174.67,45.69 -235.57,121.78 -62.46,78.04 -57.85,169.87 -54.09,262.02 -224.67,-45.34 -379.877,121.51 -380.35,283.5 -53.332,0 -106.664,0 -160,0 -0.273,-160.53 -153.91,-328.74 -380.418,-283.6 3.945,-92.2 7.981,-183.72 -54.019,-262.13 -60.778,-76.86 -139.75,-115.63 -235.563,-124.27 0,-53.33 0,-106.66 0,-160 103.746,-9.27 188.129,-52.62 246.582,-140.94 35.262,-53.28 49.363,-111.94 44.453,-175.7 -1.758,-22.84 -0.281,-45.94 -0.281,-70.9 144.734,29.47 257.848,-16.14 335.008,-136.08 61.047,-94.9 61.047,-197.85 0,-292.75 -77.16,-119.94 -190.274,-165.55 -336.27,-135.83 4.078,-93.65 8.047,-185.15 -53.945,-263.544 -60.77,-76.859 -139.742,-115.617 -235.547,-124.25 0,-53.336 0,-106.668 0,-160 103.758,-9.277 188.145,-52.629 246.598,-140.969 35.261,-53.289 49.347,-111.953 44.433,-175.719 -1.754,-22.796 -0.277,-45.847 -0.277,-69.472 225.332,44.898 378.973,-123.309 379.246,-283.843969 53.336,0 106.668,0 160,0 C 995.973,161.574 1151.18,328.43 1378.71,282.512 c -16.47,120.695 0.33,230.855 99.24,313.293 54.53,45.441 117.1,72.097 187.54,71.086 97.43,-1.395 174.67,-45.696 235.57,-121.786 62.46,-78.035 57.85,-169.871 54.09,-262.019 224.67,45.344 379.88,-121.508 380.35,-283.503969 53.33,0 106.67,0 160,0 0.27,160.515969 153.88,328.741969 380.41,283.612969 -3.93,92.188 -7.98,183.715 54.03,262.121 60.77,76.86 139.75,115.633 235.56,124.27 0,53.332 0,106.664 0,160 -103.75,9.273 -188.13,52.617 -246.58,140.941 -35.26,53.283 -49.37,111.943 -44.45,175.703 1.75,22.8 0.28,45.84 0.28,70.9 -144.74,-29.47 -257.85,16.14 -335.01,136.08 -61.05,94.9 -61.05,197.84 0,292.75 77.16,119.94 190.27,165.55 336.26,135.83 -4.06,93.64 -8.04,185.15 53.95,263.54 60.77,76.86 139.75,115.62 235.55,124.25 0,53.34 0,106.67 0,160 -103.76,9.28 -188.14,52.63 -246.6,140.97"
               style="fill:#feebdc;fill-opacity:1;fill-rule:nonzero;stroke:none"
               id="path46" /><path
               d="m 2335.5,2999.58 c -0.47,-161.99 -155.69,-328.84 -382.46,-283.07 14.91,-120.27 -0.72,-230.8 -99.98,-313.17 -54.62,-45.32 -117.11,-72.07 -187.55,-71.06 -97.43,1.39 -174.67,45.69 -235.57,121.78 -62.46,78.04 -57.85,169.87 -54.09,262.02 -224.67,-45.34 -379.877,121.51 -380.35,283.5 446.67,0 893.33,0 1340,0"
               style="fill:#f14f20;fill-opacity:1;fill-rule:nonzero;stroke:none"
               id="path48" /><path
               d="m 3165.5,829.586 c -103.75,9.273 -188.13,52.617 -246.58,140.941 -35.26,53.283 -49.37,111.943 -44.45,175.703 1.75,22.8 0.28,45.84 0.28,70.9 -144.74,-29.47 -257.85,16.14 -335.01,136.08 -61.05,94.9 -61.05,197.84 0,292.75 77.16,119.94 190.27,165.55 336.26,135.83 -4.06,93.64 -8.04,185.15 53.95,263.54 60.77,76.86 139.75,115.62 235.55,124.25 0,-446.66 0,-893.33 0,-1339.994"
               style="fill:#f14f20;fill-opacity:1;fill-rule:nonzero;stroke:none"
               id="path50" /><path
               d="m 165.5,2169.58 c 103.746,-9.27 188.129,-52.62 246.582,-140.94 35.262,-53.28 49.363,-111.94 44.453,-175.7 -1.758,-22.84 -0.281,-45.94 -0.281,-70.9 144.734,29.47 257.848,-16.14 335.008,-136.08 61.047,-94.9 61.047,-197.85 0,-292.75 -77.16,-119.94 -190.274,-165.55 -336.27,-135.83 4.078,-93.65 8.047,-185.15 -53.945,-263.544 -60.77,-76.859 -139.742,-115.617 -235.547,-124.25 0,446.664 0,893.334 0,1339.994"
               style="fill:#f14f20;fill-opacity:1;fill-rule:nonzero;stroke:none"
               id="path52" /><path
               d="M 995.5,-0.417969 C 995.973,161.574 1151.18,328.43 1378.71,282.512 c -16.47,120.695 0.33,230.855 99.24,313.293 54.53,45.441 117.1,72.097 187.54,71.086 97.43,-1.395 174.67,-45.696 235.57,-121.786 62.46,-78.035 57.85,-169.871 54.09,-262.019 224.67,45.344 379.88,-121.508 380.35,-283.503969 -446.67,0 -893.33,0 -1340,0"
               style="fill:#f14f20;fill-opacity:1;fill-rule:nonzero;stroke:none"
               id="path54" /><path
               d="m 835.5,2999.58 c -0.273,-160.53 -153.91,-328.74 -380.418,-283.6 3.945,-92.2 7.981,-183.72 -54.019,-262.13 -60.778,-76.86 -139.75,-115.63 -235.563,-124.27 0,222.51 0,445.01 0,670 223.328,0 446.664,0 670,0"
               style="fill:#3fbd92;fill-opacity:1;fill-rule:nonzero;stroke:none"
               id="path56" /><path
               d="m 3165.5,2329.58 c -103.76,9.28 -188.14,52.63 -246.6,140.97 -35.26,53.29 -49.34,111.95 -44.43,175.72 1.76,22.84 0.28,45.94 0.28,69.47 -225.36,-44.9 -378.98,123.33 -379.25,283.84 223.33,0 446.67,0 670,0 0,-223.33 0,-446.66 0,-670"
               style="fill:#3fbd92;fill-opacity:1;fill-rule:nonzero;stroke:none"
               id="path58" /><path
               d="M 2495.5,-0.417969 C 2495.77,160.098 2649.38,328.324 2875.91,283.195 c -3.93,92.188 -7.98,183.715 54.03,262.121 60.77,76.86 139.75,115.633 235.56,124.27 0,-223.336 0,-446.668 0,-670.003969 -223.33,0 -446.67,0 -670,0"
               style="fill:#3fbd92;fill-opacity:1;fill-rule:nonzero;stroke:none"
               id="path60" /><path
               d="m 165.5,669.586 c 103.758,-9.277 188.145,-52.629 246.598,-140.969 35.261,-53.289 49.347,-111.953 44.433,-175.719 -1.754,-22.796 -0.277,-45.847 -0.277,-69.472 225.332,44.898 378.973,-123.309 379.246,-283.843969 -222.504,0 -445.008,0 -670,0 0,223.327969 0,446.663969 0,670.003969"
               style="fill:#3fbd92;fill-opacity:1;fill-rule:nonzero;stroke:none"
               id="path62" /><path
               d="m 1374.34,1217.27 c -143.65,-28.84 -254.1,15.53 -331.05,130.57 -65.185,97.45 -63.599,201.6 -2.19,301.37 68.27,110.93 183.84,156.33 333.17,133.45 0,28.28 0.5,55.98 -0.09,83.65 -3.38,161.12 129.97,299.92 289.82,301.39 160.55,1.47 296.55,-139.6 292.74,-303.39 -0.61,-26.3 -0.08,-52.63 -0.08,-81.66 147.22,28.43 262.95,-18.06 338.79,-144.07 59.28,-98.51 54.58,-202.3 -11.56,-296.57 -78.37,-111.68 -188.17,-153.35 -327.16,-124.93 0,-28.85 -0.5,-56.55 0.09,-84.23 3.38,-161.116 -129.97,-299.916 -289.82,-301.381 -160.6,-1.473 -296.55,139.551 -292.74,303.381 0.61,26.31 0.08,52.64 0.08,82.42"
               style="fill:#3fbd92;fill-opacity:1;fill-rule:nonzero;stroke:none"
               id="path64" /><path
               d="m 1392.15,756.539 c -45.44,-57.398 -93.45,-108.32 -129.97,-166.465 -36.33,-57.844 -56.68,-160.488 -56.68,-160.488 0,0 -101.07,-7.813 -129.19,-25.289 C 996.895,354.93 950.824,307.328 915.098,279.191 865.922,318.234 814.836,365.746 756.898,402.438 715.859,428.422 605.5,444.586 605.5,444.586 c 0,0 -13.121,107.242 -38.199,147.035 -35.84,56.871 -82.582,106.871 -127.75,163.676 13.191,12.273 32.769,29.363 51.07,47.73 57.547,57.758 99.879,139.809 99.879,221.553 0,15 35.199,24.52 64.906,31.39 106.438,24.62 189.055,87.22 258.309,177 11.199,-12.05 21.058,-22.13 30.328,-32.73 61.897,-70.8 136.867,-121.43 228.727,-143.83 26.82,-6.54 53.67,-8.31 52.73,-13.49 -20,-110.002 85.51,-223.096 166.65,-286.381"
               style="fill:#2c2c48;fill-opacity:1;fill-rule:nonzero;stroke:none"
               id="path66" /><path
               d="m 2912.15,756.539 c -45.44,-57.398 -93.45,-108.32 -129.97,-166.465 -36.33,-57.844 -56.68,-160.488 -56.68,-160.488 0,0 -101.07,-7.813 -129.19,-25.289 -79.42,-49.367 -125.49,-96.969 -161.21,-125.106 -49.18,39.043 -100.26,86.555 -158.2,123.247 -41.04,25.984 -151.4,42.148 -151.4,42.148 0,0 -13.12,107.242 -38.2,147.035 -35.84,56.871 -82.58,106.871 -127.75,163.676 13.19,12.273 32.77,29.363 51.07,47.73 57.55,57.758 99.88,139.809 99.88,221.553 0,15 35.2,24.52 64.9,31.39 106.44,24.62 189.06,87.22 258.31,177 11.2,-12.05 21.06,-22.13 30.33,-32.73 61.9,-70.8 136.87,-121.43 228.73,-143.83 26.82,-6.54 53.67,-8.31 52.73,-13.49 -20,-110.002 85.51,-223.096 166.65,-286.381"
               style="fill:#2c2c48;fill-opacity:1;fill-rule:nonzero;stroke:none"
               id="path68" /><path
               d="m 1392.15,2256.54 c -45.44,-57.4 -93.45,-108.32 -129.97,-166.46 -36.33,-57.85 -56.68,-160.5 -56.68,-160.5 0,0 -101.07,-7.8 -129.19,-25.28 -79.415,-49.37 -125.486,-96.97 -161.212,-125.11 -49.176,39.05 -100.262,86.56 -158.2,123.25 -41.039,25.98 -151.398,42.14 -151.398,42.14 0,0 -13.121,107.25 -38.199,147.04 -35.84,56.87 -82.582,106.87 -127.75,163.68 13.191,12.27 32.769,29.36 51.07,47.73 57.547,57.76 99.879,139.81 99.879,221.55 0,15 35.199,24.52 64.906,31.39 106.438,24.62 189.055,87.22 258.309,177 11.199,-12.05 21.058,-22.13 30.328,-32.73 61.897,-70.8 136.867,-121.43 228.727,-143.83 26.82,-6.54 53.67,-8.31 52.73,-13.49 -20,-110 85.51,-223.1 166.65,-286.38"
               style="fill:#2c2c48;fill-opacity:1;fill-rule:nonzero;stroke:none"
               id="path70" /><path
               d="m 2912.15,2256.54 c -45.44,-57.4 -93.45,-108.32 -129.97,-166.46 -36.33,-57.85 -56.68,-160.5 -56.68,-160.5 0,0 -101.07,-7.8 -129.19,-25.28 -79.42,-49.37 -125.49,-96.97 -161.21,-125.11 -49.18,39.05 -100.26,86.56 -158.2,123.25 -41.04,25.98 -151.4,42.14 -151.4,42.14 0,0 -13.12,107.25 -38.2,147.04 -35.84,56.87 -82.58,106.87 -127.75,163.68 13.19,12.27 32.77,29.36 51.07,47.73 57.55,57.76 99.88,139.81 99.88,221.55 0,15 35.2,24.52 64.9,31.39 106.44,24.62 189.06,87.22 258.31,177 11.2,-12.05 21.06,-22.13 30.33,-32.73 61.9,-70.8 136.87,-121.43 228.73,-143.83 26.82,-6.54 53.67,-8.31 52.73,-13.49 -20,-110 85.51,-223.1 166.65,-286.38"
               style="fill:#2c2c48;fill-opacity:1;fill-rule:nonzero;stroke:none"
               id="path72" /><path
               d="m 1726.75,1293.52 c 0,-79.03 -61.33,-143.1 -61.33,-143.1 0,0 -61.33,64.07 -61.33,143.1 0,79.03 61.33,143.1 61.33,143.1 0,0 61.33,-64.07 61.33,-143.1"
               style="fill:#f14f20;fill-opacity:1;fill-rule:nonzero;stroke:none"
               id="path74" /><path
               d="m 1726.75,1698.15 c 0,-79.03 -61.33,-143.1 -61.33,-143.1 0,0 -61.33,64.07 -61.33,143.1 0,79.03 61.33,143.1 61.33,143.1 0,0 61.33,-64.07 61.33,-143.1"
               style="fill:#f14f20;fill-opacity:1;fill-rule:nonzero;stroke:none"
               id="path76" /><path
               d="m 1463.1,1434.5 c -79.03,0 -143.1,61.33 -143.1,61.33 0,0 64.07,61.33 143.1,61.33 79.03,0 143.1,-61.33 143.1,-61.33 0,0 -64.07,-61.33 -143.1,-61.33"
               style="fill:#f14f20;fill-opacity:1;fill-rule:nonzero;stroke:none"
               id="path78" /><path
               d="m 1867.73,1434.5 c -79.03,0 -143.1,61.33 -143.1,61.33 0,0 64.07,61.33 143.1,61.33 79.03,0 143.1,-61.33 143.1,-61.33 0,0 -64.07,-61.33 -143.1,-61.33"
               style="fill:#f14f20;fill-opacity:1;fill-rule:nonzero;stroke:none"
               id="path80" /><path
               d="m 1565.72,1309.41 c -55.88,-55.89 -144.55,-57.82 -144.55,-57.82 0,0 1.94,88.67 57.82,144.55 55.89,55.89 144.56,57.82 144.56,57.82 0,0 -1.94,-88.67 -57.83,-144.55"
               style="fill:#f14f20;fill-opacity:1;fill-rule:nonzero;stroke:none"
               id="path82" /><path
               d="m 1851.84,1595.53 c -55.88,-55.89 -144.55,-57.83 -144.55,-57.83 0,0 1.93,88.67 57.82,144.56 55.88,55.88 144.55,57.82 144.55,57.82 0,0 -1.93,-88.67 -57.82,-144.55"
               style="fill:#f14f20;fill-opacity:1;fill-rule:nonzero;stroke:none"
               id="path84" /><path
               d="m 1478.99,1595.53 c -55.88,55.88 -57.82,144.55 -57.82,144.55 0,0 88.67,-1.94 144.55,-57.82 55.89,-55.89 57.83,-144.56 57.83,-144.56 0,0 -88.67,1.94 -144.56,57.83"
               style="fill:#f14f20;fill-opacity:1;fill-rule:nonzero;stroke:none"
               id="path86" /><path
               d="m 1765.11,1309.41 c -55.89,55.88 -57.82,144.55 -57.82,144.55 0,0 88.67,-1.93 144.55,-57.82 55.89,-55.88 57.82,-144.55 57.82,-144.55 0,0 -88.67,1.93 -144.55,57.82"
               style="fill:#f14f20;fill-opacity:1;fill-rule:nonzero;stroke:none"
               id="path88" /><path
               d="m 231.746,2788.52 c 0,-79.03 -61.328,-143.1 -61.328,-143.1 0,0 -61.328,64.07 -61.328,143.1 0,79.03 61.328,143.1 61.328,143.1 0,0 61.328,-64.07 61.328,-143.1"
               style="fill:#f14f20;fill-opacity:1;fill-rule:nonzero;stroke:none"
               id="path90" /><path
               d="m -31.8984,2929.5 c -79.0316,0 -143.1016,61.33 -143.1016,61.33 0,0 64.07,61.33 143.1016,61.33 79.0312,0 143.1014,-61.33 143.1014,-61.33 0,0 -64.0702,-61.33 -143.1014,-61.33"
               style="fill:#f14f20;fill-opacity:1;fill-rule:nonzero;stroke:none"
               id="path92" /><path
               d="m 372.73,2929.5 c -79.031,0 -143.097,61.33 -143.097,61.33 0,0 64.066,61.33 143.097,61.33 79.036,0 143.106,-61.33 143.106,-61.33 0,0 -64.07,-61.33 -143.106,-61.33"
               style="fill:#f14f20;fill-opacity:1;fill-rule:nonzero;stroke:none"
               id="path94" /><path
               d="m 70.7227,2804.41 c -55.8829,-55.89 -144.5508,-57.82 -144.5508,-57.82 0,0 1.9375,88.67 57.8203,144.55 55.8828,55.89 144.5548,57.82 144.5548,57.82 0,0 -1.938,-88.67 -57.8243,-144.55"
               style="fill:#f14f20;fill-opacity:1;fill-rule:nonzero;stroke:none"
               id="path96" /><path
               d="m 270.109,2804.41 c -55.882,55.88 -57.82,144.55 -57.82,144.55 0,0 88.668,-1.93 144.555,-57.82 55.883,-55.88 57.82,-144.55 57.82,-144.55 0,0 -88.672,1.93 -144.555,57.82"
               style="fill:#f14f20;fill-opacity:1;fill-rule:nonzero;stroke:none"
               id="path98" /><path
               d="m 109.09,193.676 c 0,79.035 61.328,143.101 61.328,143.101 0,0 61.328,-64.066 61.328,-143.101 0,-79.031 -61.328,-143.1018 -61.328,-143.1018 0,0 -61.328,64.0708 -61.328,143.1018"
               style="fill:#f14f20;fill-opacity:1;fill-rule:nonzero;stroke:none"
               id="path100" /><path
               d="m 270.109,177.785 c 55.883,55.887 144.555,57.824 144.555,57.824 0,0 -1.937,-88.671 -57.82,-144.5543 C 300.957,35.168 212.289,33.2344 212.289,33.2344 c 0,0 1.938,88.6676 57.82,144.5506"
               style="fill:#f14f20;fill-opacity:1;fill-rule:nonzero;stroke:none"
               id="path102" /><path
               d="M 70.7227,177.785 C 126.609,121.902 128.547,33.2344 128.547,33.2344 c 0,0 -88.672,1.9336 -144.5548,57.8203 -55.8828,55.8833 -57.8203,144.5543 -57.8203,144.5543 0,0 88.6679,-1.937 144.5508,-57.824"
               style="fill:#f14f20;fill-opacity:1;fill-rule:nonzero;stroke:none"
               id="path104" /><path
               d="m 2480.5,2131.58 c -23.59,21.54 -34.22,83.98 -34.22,83.98 0,0 -11.75,-62.44 -37.58,-83.98 -20.19,-16.82 -58.14,-25.83 -58.14,-25.83 0,0 43.06,-28 62.44,-58.14 19.38,-30.15 33.28,-131.35 33.28,-131.35 0,0 12.59,101.2 30.29,131.35 17.69,30.14 57.01,58.14 57.01,58.14 0,0 -34.64,9.01 -53.08,25.83"
               style="fill:#feebdc;fill-opacity:1;fill-rule:nonzero;stroke:none"
               id="path106" /><path
               d="m 2403.64,2355.24 c 23.59,-21.53 34.22,-83.98 34.22,-83.98 0,0 11.75,62.45 37.59,83.98 20.19,16.82 58.13,25.84 58.13,25.84 0,0 -43.06,27.99 -62.44,58.13 -19.38,30.15 -33.28,131.35 -33.28,131.35 0,0 -12.59,-101.2 -30.29,-131.35 -17.69,-30.14 -57.01,-58.13 -57.01,-58.13 0,0 34.65,-9.02 53.08,-25.84"
               style="fill:#feebdc;fill-opacity:1;fill-rule:nonzero;stroke:none"
               id="path108" /><path
               d="m 2330.24,2204.98 c 21.54,23.59 83.98,34.22 83.98,34.22 0,0 -62.44,11.75 -83.98,37.59 -16.82,20.19 -25.84,58.13 -25.84,58.13 0,0 -27.99,-43.06 -58.13,-62.44 -30.15,-19.38 -131.35,-33.28 -131.35,-33.28 0,0 101.2,-12.59 131.35,-30.29 30.14,-17.69 58.13,-57.01 58.13,-57.01 0,0 9.02,34.65 25.84,53.08"
               style="fill:#feebdc;fill-opacity:1;fill-rule:nonzero;stroke:none"
               id="path110" /><path
               d="m 2553.9,2281.84 c -21.53,-23.59 -83.98,-34.22 -83.98,-34.22 0,0 62.45,-11.74 83.98,-37.58 16.82,-20.19 25.84,-58.14 25.84,-58.14 0,0 27.99,43.06 58.13,62.44 30.15,19.38 131.35,33.28 131.35,33.28 0,0 -101.2,12.6 -131.35,30.29 -30.14,17.69 -58.13,57.01 -58.13,57.01 0,0 -9.02,-34.64 -25.84,-53.08"
               style="fill:#feebdc;fill-opacity:1;fill-rule:nonzero;stroke:none"
               id="path112" /><path
               d="m 2480.5,641.586 c -23.59,21.531 -34.22,83.973 -34.22,83.973 0,0 -11.75,-62.442 -37.58,-83.973 -20.19,-16.828 -58.14,-25.84 -58.14,-25.84 0,0 43.06,-27.992 62.44,-58.137 19.38,-30.144 33.28,-131.343 33.28,-131.343 0,0 12.59,101.199 30.29,131.343 17.69,30.145 57.01,58.137 57.01,58.137 0,0 -34.64,9.012 -53.08,25.84"
               style="fill:#feebdc;fill-opacity:1;fill-rule:nonzero;stroke:none"
               id="path114" /><path
               d="m 2403.64,865.238 c 23.59,-21.531 34.22,-83.972 34.22,-83.972 0,0 11.75,62.441 37.59,83.972 20.19,16.828 58.13,25.84 58.13,25.84 0,0 -43.06,27.992 -62.44,58.137 -19.38,30.144 -33.28,131.345 -33.28,131.345 0,0 -12.59,-101.201 -30.29,-131.345 -17.69,-30.145 -57.01,-58.137 -57.01,-58.137 0,0 34.65,-9.012 53.08,-25.84"
               style="fill:#feebdc;fill-opacity:1;fill-rule:nonzero;stroke:none"
               id="path116" /><path
               d="m 2330.24,714.98 c 21.54,23.594 83.98,34.219 83.98,34.219 0,0 -62.44,11.746 -83.98,37.586 -16.82,20.192 -25.84,58.137 -25.84,58.137 0,0 -27.99,-43.063 -58.13,-62.442 -30.15,-19.378 -131.35,-33.281 -131.35,-33.281 0,0 101.2,-12.594 131.35,-30.285 30.14,-17.695 58.13,-57.016 58.13,-57.016 0,0 9.02,34.649 25.84,53.082"
               style="fill:#feebdc;fill-opacity:1;fill-rule:nonzero;stroke:none"
               id="path118" /><path
               d="m 2553.9,791.84 c -21.53,-23.59 -83.98,-34.215 -83.98,-34.215 0,0 62.45,-11.75 83.98,-37.59 16.82,-20.187 25.84,-58.137 25.84,-58.137 0,0 27.99,43.067 58.13,62.446 30.15,19.379 131.35,33.281 131.35,33.281 0,0 -101.2,12.59 -131.35,30.285 -30.14,17.692 -58.13,57.012 -58.13,57.012 0,0 -9.02,-34.645 -25.84,-53.082"
               style="fill:#feebdc;fill-opacity:1;fill-rule:nonzero;stroke:none"
               id="path120" /><path
               d="m 950.5,2131.58 c -23.59,21.54 -34.215,83.98 -34.215,83.98 0,0 -11.75,-62.44 -37.59,-83.98 -20.191,-16.82 -58.136,-25.83 -58.136,-25.83 0,0 43.066,-28 62.445,-58.14 19.379,-30.15 33.281,-131.35 33.281,-131.35 0,0 12.59,101.2 30.285,131.35 17.692,30.14 57.01,58.14 57.01,58.14 0,0 -34.642,9.01 -53.08,25.83"
               style="fill:#feebdc;fill-opacity:1;fill-rule:nonzero;stroke:none"
               id="path122" /><path
               d="m 873.641,2355.24 c 23.589,-21.53 34.218,-83.98 34.218,-83.98 0,0 11.746,62.45 37.586,83.98 20.192,16.82 58.135,25.84 58.135,25.84 0,0 -43.06,27.99 -62.439,58.13 -19.379,30.15 -33.282,131.35 -33.282,131.35 0,0 -12.593,-101.2 -30.285,-131.35 -17.695,-30.14 -57.015,-58.13 -57.015,-58.13 0,0 34.648,-9.02 53.082,-25.84"
               style="fill:#feebdc;fill-opacity:1;fill-rule:nonzero;stroke:none"
               id="path124" /><path
               d="m 800.242,2204.98 c 21.531,23.59 83.977,34.22 83.977,34.22 0,0 -62.446,11.75 -83.977,37.59 -16.824,20.19 -25.836,58.13 -25.836,58.13 0,0 -27.992,-43.06 -58.136,-62.44 -30.145,-19.38 -131.344,-33.28 -131.344,-33.28 0,0 101.199,-12.59 131.344,-30.29 30.144,-17.69 58.136,-57.01 58.136,-57.01 0,0 9.012,34.65 25.836,53.08"
               style="fill:#feebdc;fill-opacity:1;fill-rule:nonzero;stroke:none"
               id="path126" /><path
               d="m 1023.9,2281.84 c -21.53,-23.59 -83.974,-34.22 -83.974,-34.22 0,0 62.444,-11.74 83.974,-37.58 16.82,-20.19 25.84,-58.14 25.84,-58.14 0,0 27.99,43.06 58.13,62.44 30.15,19.38 131.35,33.28 131.35,33.28 0,0 -101.2,12.6 -131.35,30.29 -30.14,17.69 -58.13,57.01 -58.13,57.01 0,0 -9.02,-34.64 -25.84,-53.08"
               style="fill:#feebdc;fill-opacity:1;fill-rule:nonzero;stroke:none"
               id="path128" /><path
               d="m 950.5,641.586 c -23.59,21.531 -34.215,83.973 -34.215,83.973 0,0 -11.75,-62.442 -37.59,-83.973 -20.191,-16.828 -58.136,-25.84 -58.136,-25.84 0,0 43.066,-27.992 62.445,-58.137 19.379,-30.144 33.281,-131.343 33.281,-131.343 0,0 12.59,101.199 30.285,131.343 17.692,30.145 57.01,58.137 57.01,58.137 0,0 -34.642,9.012 -53.08,25.84"
               style="fill:#feebdc;fill-opacity:1;fill-rule:nonzero;stroke:none"
               id="path130" /><path
               d="m 873.641,865.238 c 23.589,-21.531 34.218,-83.972 34.218,-83.972 0,0 11.746,62.441 37.586,83.972 20.192,16.828 58.135,25.84 58.135,25.84 0,0 -43.06,27.992 -62.439,58.137 -19.379,30.144 -33.282,131.345 -33.282,131.345 0,0 -12.593,-101.201 -30.285,-131.345 -17.695,-30.145 -57.015,-58.137 -57.015,-58.137 0,0 34.648,-9.012 53.082,-25.84"
               style="fill:#feebdc;fill-opacity:1;fill-rule:nonzero;stroke:none"
               id="path132" /><path
               d="m 800.242,714.98 c 21.531,23.594 83.977,34.219 83.977,34.219 0,0 -62.446,11.746 -83.977,37.586 -16.824,20.192 -25.836,58.137 -25.836,58.137 0,0 -27.992,-43.063 -58.136,-62.442 -30.145,-19.378 -131.344,-33.281 -131.344,-33.281 0,0 101.199,-12.594 131.344,-30.285 30.144,-17.695 58.136,-57.016 58.136,-57.016 0,0 9.012,34.649 25.836,53.082"
               style="fill:#feebdc;fill-opacity:1;fill-rule:nonzero;stroke:none"
               id="path134" /><path
               d="m 1023.9,791.84 c -21.53,-23.59 -83.974,-34.215 -83.974,-34.215 0,0 62.444,-11.75 83.974,-37.59 16.82,-20.187 25.84,-58.137 25.84,-58.137 0,0 27.99,43.067 58.13,62.446 30.15,19.379 131.35,33.281 131.35,33.281 0,0 -101.2,12.59 -131.35,30.285 -30.14,17.692 -58.13,57.012 -58.13,57.012 0,0 -9.02,-34.645 -25.84,-53.082"
               style="fill:#feebdc;fill-opacity:1;fill-rule:nonzero;stroke:none"
               id="path136" /><path
               d="m 2958.6,2929.5 c -79.03,0 -143.1,61.33 -143.1,61.33 0,0 64.07,61.33 143.1,61.33 79.03,0 143.1,-61.33 143.1,-61.33 0,0 -64.07,-61.33 -143.1,-61.33"
               style="fill:#f14f20;fill-opacity:1;fill-rule:nonzero;stroke:none"
               id="path138" /><path
               d="m 3061.22,2804.41 c -55.88,-55.89 -144.55,-57.82 -144.55,-57.82 0,0 1.94,88.67 57.82,144.55 55.89,55.89 144.56,57.82 144.56,57.82 0,0 -1.94,-88.67 -57.83,-144.55"
               style="fill:#f14f20;fill-opacity:1;fill-rule:nonzero;stroke:none"
               id="path140" /><path
               d="m 3061.22,177.785 c 55.89,-55.883 57.83,-144.5506 57.83,-144.5506 0,0 -88.67,1.9336 -144.56,57.8203 -55.88,55.8833 -57.82,144.5543 -57.82,144.5543 0,0 88.67,-1.937 144.55,-57.824"
               style="fill:#f14f20;fill-opacity:1;fill-rule:nonzero;stroke:none"
               id="path142" /><path
               d="m -1947.21,-1648.82 c -65.19,97.44 -63.6,201.59 -2.19,301.37 68.27,110.92 183.84,156.33 333.17,133.44 0,28.28 0.5,55.98 -0.09,83.66 -3.38,161.12 129.97,299.916 289.82,301.381 160.55,1.473 296.55,-139.594 292.74,-303.381 -0.61,-26.31 -0.08,-52.64 -0.08,-81.67 147.219,28.43 262.949,-18.05 338.785,-144.07 59.285,-98.51 54.586,-202.3 -11.558,-296.57 -78.364,-111.67 -188.168,-153.35 -327.157,-124.92 0,-28.86 -0.5,-56.56 0.09,-84.23 3.38,-161.12 -129.97,-299.92 -289.82,-301.39 -160.6,-1.47 -296.55,139.55 -292.74,303.39 0.61,26.3 0.08,52.63 0.08,82.41 -143.65,-28.84 -254.1,15.53 -331.05,130.58 z M -71.5977,-526.117 c -35.2613,53.289 -49.3473,111.953 -44.4333,175.719 1.758,22.843 0.281,45.937 0.281,69.476 -225.363,-44.902 -378.977,123.324 -379.25,283.83997 -53.332,0 -106.664,0 -160,0 C -655.473,-159.078 -810.684,-325.93 -1037.46,-280.16 c 14.91,-120.266 -0.72,-230.793 -99.98,-313.164 -54.62,-45.324 -117.11,-72.078 -187.55,-71.067 -97.43,1.395 -174.67,45.696 -235.57,121.786 -62.46,78.039 -57.85,169.871 -54.09,262.019 -224.67,-45.344 -379.88,121.508 -380.35,283.50397 -53.33,0 -106.67,0 -160,0 -0.27,-160.53097 -153.91,-328.74197 -380.42,-283.60897 3.95,-92.196 7.98,-183.719 -54.02,-262.125 -60.77,-76.864 -139.75,-115.629 -235.56,-124.266 0,-53.332 0,-106.668 0,-160 103.75,-9.277 188.13,-52.621 246.58,-140.945 35.26,-53.283 49.36,-111.943 44.46,-175.703 -1.76,-22.84 -0.29,-45.93 -0.29,-70.9 144.74,29.47 257.85,-16.14 335.01,-136.08 61.05,-94.9 61.05,-197.85 0,-292.74 -77.16,-119.95 -190.27,-165.56 -336.27,-135.83 4.08,-93.65 8.05,-185.15 -53.94,-263.55 -60.77,-76.86 -139.75,-115.62 -235.55,-124.25 0,-53.34 0,-106.67 0,-160 103.76,-9.28 188.14,-52.63 246.6,-140.97 35.26,-53.29 49.35,-111.95 44.43,-175.72 -1.75,-22.8 -0.28,-45.84 -0.28,-69.47 225.34,44.9 378.98,-123.31 379.25,-283.84 53.33,0 106.67,0 160,0 0.47,161.99 155.68,328.84 383.21,282.92 -16.47,120.7 0.33,230.86 99.24,313.3 54.53,45.44 117.1,72.1 187.54,71.09 97.43,-1.4 174.67,-45.7 235.57,-121.79 62.46,-78.04 57.85,-169.87 54.09,-262.02 224.666,45.34 379.881,-121.51 380.35,-283.5 53.336,0 106.668,0 160,0 0.273,160.51 153.883,328.74 380.406,283.61 -3.926,92.19 -7.972,183.71 54.0315,262.12 60.777344,76.86 139.75,115.63 235.5625,124.27 0,53.33 0,106.66 0,160 -103.7461,9.27 -188.1289,52.62 -246.582,140.94 -35.262,53.28 -49.363,111.94 -44.453,175.7 1.758,22.8 0.281,45.85 0.281,70.9 -144.73,-29.46 -257.848,16.14 -335.008,136.08 -61.047,94.91 -61.043,197.85 0.004,292.75 77.156,119.94 190.274,165.55 336.254,135.83 -4.055,93.64 -8.035,185.15 53.9571,263.548 60.769556,76.855 139.7422,115.613 235.5469,124.25 0,53.332 0,106.668 0,160 -103.7578,9.273 -188.1445,52.629 -246.5977,140.965"
               style="fill:#feebdc;fill-opacity:1;fill-rule:nonzero;stroke:none"
               id="path144" /><path
               d="m 175,-667.082 c -103.7578,9.273 -188.1445,52.629 -246.5977,140.965 -35.2613,53.289 -49.3473,111.953 -44.4333,175.719 1.758,22.843 0.281,45.937 0.281,69.476 -225.363,-44.902 -378.977,123.324 -379.25,283.83997 223.336,0 446.668,0 670,0 0,-223.33197 0,-446.66797 0,-669.99997"
               style="fill:#3fbd92;fill-opacity:1;fill-rule:nonzero;stroke:none"
               id="path146" /><path
               d="m 1043.29,-1648.82 c -65.185,97.44 -63.599,201.59 -2.19,301.37 68.27,110.92 183.84,156.33 333.17,133.44 0,28.28 0.5,55.98 -0.09,83.66 -3.38,161.12 129.97,299.916 289.82,301.381 160.55,1.473 296.55,-139.594 292.74,-303.381 -0.61,-26.31 -0.08,-52.64 -0.08,-81.67 147.22,28.43 262.95,-18.05 338.79,-144.07 59.28,-98.51 54.58,-202.3 -11.56,-296.57 -78.37,-111.67 -188.17,-153.35 -327.16,-124.92 0,-28.86 -0.5,-56.56 0.09,-84.23 3.38,-161.12 -129.97,-299.92 -289.82,-301.39 -160.6,-1.47 -296.55,139.55 -292.74,303.39 0.61,26.3 0.08,52.63 0.08,82.41 -143.65,-28.84 -254.1,15.53 -331.05,130.58 z M 2918.9,-526.117 c -35.26,53.289 -49.34,111.953 -44.43,175.719 1.76,22.843 0.28,45.937 0.28,69.476 -225.36,-44.902 -378.98,123.324 -379.25,283.83997 -53.33,0 -106.67,0 -160,0 C 2335.03,-159.078 2179.81,-325.93 1953.04,-280.16 c 14.91,-120.266 -0.72,-230.793 -99.98,-313.164 -54.62,-45.324 -117.11,-72.078 -187.55,-71.067 -97.43,1.395 -174.67,45.696 -235.57,121.786 -62.46,78.039 -57.85,169.871 -54.09,262.019 -224.67,-45.344 -379.877,121.508 -380.35,283.50397 -53.332,0 -106.664,0 -160,0 C 835.227,-157.613 681.59,-325.824 455.082,-280.691 c 3.945,-92.196 7.981,-183.719 -54.019,-262.125 -60.778,-76.864 -139.75,-115.629 -235.563,-124.266 0,-53.332 0,-106.668 0,-160 103.746,-9.277 188.129,-52.621 246.582,-140.945 35.262,-53.283 49.363,-111.943 44.453,-175.703 -1.758,-22.84 -0.281,-45.93 -0.281,-70.9 144.734,29.47 257.848,-16.14 335.008,-136.08 61.047,-94.9 61.047,-197.85 0,-292.74 -77.16,-119.95 -190.274,-165.56 -336.27,-135.83 4.078,-93.65 8.047,-185.15 -53.945,-263.55 -60.77,-76.86 -139.742,-115.62 -235.547,-124.25 0,-53.34 0,-106.67 0,-160 103.758,-9.28 188.145,-52.63 246.598,-140.97 35.261,-53.29 49.347,-111.95 44.433,-175.72 -1.754,-22.8 -0.277,-45.84 -0.277,-69.47 225.332,44.9 378.973,-123.31 379.246,-283.84 53.336,0 106.668,0 160,0 0.473,161.99 155.68,328.84 383.21,282.92 -16.47,120.7 0.33,230.86 99.24,313.3 54.53,45.44 117.1,72.1 187.54,71.09 97.43,-1.4 174.67,-45.7 235.57,-121.79 62.46,-78.04 57.85,-169.87 54.09,-262.02 224.67,45.34 379.88,-121.51 380.35,-283.5 53.33,0 106.67,0 160,0 0.27,160.51 153.88,328.74 380.41,283.61 -3.93,92.19 -7.98,183.71 54.03,262.12 60.77,76.86 139.75,115.63 235.56,124.27 0,53.33 0,106.66 0,160 -103.75,9.27 -188.13,52.62 -246.58,140.94 -35.26,53.28 -49.37,111.94 -44.45,175.7 1.75,22.8 0.28,45.85 0.28,70.9 -144.74,-29.46 -257.85,16.14 -335.01,136.08 -61.05,94.91 -61.05,197.85 0,292.75 77.16,119.94 190.27,165.55 336.26,135.83 -4.06,93.64 -8.04,185.15 53.95,263.548 60.77,76.855 139.75,115.613 235.55,124.25 0,53.332 0,106.668 0,160 -103.76,9.273 -188.14,52.629 -246.6,140.965"
               style="fill:#feebdc;fill-opacity:1;fill-rule:nonzero;stroke:none"
               id="path148" /><path
               d="M 2335.5,2.91797 C 2335.03,-159.078 2179.81,-325.93 1953.04,-280.16 c 14.91,-120.266 -0.72,-230.793 -99.98,-313.164 -54.62,-45.324 -117.11,-72.078 -187.55,-71.067 -97.43,1.395 -174.67,45.696 -235.57,121.786 -62.46,78.039 -57.85,169.871 -54.09,262.019 -224.67,-45.344 -379.877,121.508 -380.35,283.50397 446.67,0 893.33,0 1340,0"
               style="fill:#f14f20;fill-opacity:1;fill-rule:nonzero;stroke:none"
               id="path150" /><path
               d="M 835.5,2.91797 C 835.227,-157.613 681.59,-325.824 455.082,-280.691 c 3.945,-92.196 7.981,-183.719 -54.019,-262.125 -60.778,-76.864 -139.75,-115.629 -235.563,-124.266 0,222.504 0,445.004 0,669.99997 223.328,0 446.664,0 670,0"
               style="fill:#3fbd92;fill-opacity:1;fill-rule:nonzero;stroke:none"
               id="path152" /><path
               d="m 3165.5,-667.082 c -103.76,9.273 -188.14,52.629 -246.6,140.965 -35.26,53.289 -49.34,111.953 -44.43,175.719 1.76,22.843 0.28,45.937 0.28,69.476 -225.36,-44.902 -378.98,123.324 -379.25,283.83997 223.33,0 446.67,0 670,0 0,-223.33197 0,-446.66797 0,-669.99997"
               style="fill:#3fbd92;fill-opacity:1;fill-rule:nonzero;stroke:none"
               id="path154" /><path
               d="M -31.8984,-67.1602 C -110.93,-67.1602 -175,-5.83203 -175,-5.83203 c 0,0 64.07,61.32813 143.1016,61.32813 79.0312,0 143.1014,-61.32813 143.1014,-61.32813 0,0 -64.0702,-61.32817 -143.1014,-61.32817"
               style="fill:#f14f20;fill-opacity:1;fill-rule:nonzero;stroke:none"
               id="path156" /><path
               d="m 372.73,-67.1602 c -79.031,0 -143.097,61.32817 -143.097,61.32817 0,0 64.066,61.32813 143.097,61.32813 79.036,0 143.106,-61.32813 143.106,-61.32813 0,0 -64.07,-61.32817 -143.106,-61.32817"
               style="fill:#f14f20;fill-opacity:1;fill-rule:nonzero;stroke:none"
               id="path158" /><path
               d="m 2958.6,-67.1602 c -79.03,0 -143.1,61.32817 -143.1,61.32817 0,0 64.07,61.32813 143.1,61.32813 79.03,0 143.1,-61.32813 143.1,-61.32813 0,0 -64.07,-61.32817 -143.1,-61.32817"
               style="fill:#f14f20;fill-opacity:1;fill-rule:nonzero;stroke:none"
               id="path160" /></g></g></g></pattern></defs><sodipodi:namedview
     pagecolor="#ffffff"
     bordercolor="#666666"
     borderopacity="1"
     objecttolerance="10"
     gridtolerance="10"
     guidetolerance="10"
     inkscape:pageopacity="0"
     inkscape:pageshadow="2"
     inkscape:window-width="879"
     inkscape:window-height="485"
     id="namedview4"
     showgrid="false"
     inkscape:zoom="0.19265306"
     inkscape:cx="875"
     inkscape:cy="612.5"
     inkscape:window-x="0"
     inkscape:window-y="0"
     inkscape:window-maximized="0"
     inkscape:current-layer="g10" /><g
     id="g10"
     inkscape:groupmode="layer"
     inkscape:label="ink_ext_XXXXXX"
     transform="matrix(1.25,0,0,-1.25,0,1225)"><g
       id="g12"
       transform="scale(0.1,0.1)"><path
         d="m 0,0 14000,0 0,9800 L 0,9800 0,0 Z"
         style="fill:url(#pattern18);fill-opacity:1;fill-rule:nonzero;stroke:none"
         id="path162"
         inkscape:connector-curvature="0" /></g></g></svg>