<?xml version="1.0" encoding="UTF-8" standalone="no"?>
<!-- Created with Inkscape (http://www.inkscape.org/) -->

<svg
   xmlns:dc="http://purl.org/dc/elements/1.1/"
   xmlns:cc="http://creativecommons.org/ns#"
   xmlns:rdf="http://www.w3.org/1999/02/22-rdf-syntax-ns#"
   xmlns:svg="http://www.w3.org/2000/svg"
   xmlns="http://www.w3.org/2000/svg"
   xmlns:sodipodi="http://sodipodi.sourceforge.net/DTD/sodipodi-0.dtd"
   xmlns:inkscape="http://www.inkscape.org/namespaces/inkscape"
   width="512"
   height="512"
   viewBox="0 0 512.00001 512.00001"
   id="svg5470"
   version="1.1"
   inkscape:version="0.91 r13725"
   sodipodi:docname="pattern223.svg">
  <defs
     id="defs5472">
    <clipPath
       clipPathUnits="userSpaceOnUse"
       id="clipPath14">
      <path
         d="m 0,0 0,2997 2991,0 L 2991,0 0,0 Z"
         id="path16"
         inkscape:connector-curvature="0" />
    </clipPath>
  </defs>
  <sodipodi:namedview
     id="base"
     pagecolor="#ffffff"
     bordercolor="#666666"
     borderopacity="1.0"
     inkscape:pageopacity="0.0"
     inkscape:pageshadow="2"
     inkscape:zoom="1.5322225"
     inkscape:cx="-132.75893"
     inkscape:cy="406.00346"
     inkscape:document-units="px"
     inkscape:current-layer="Blue Layer"
     showgrid="true"
     units="px"
     inkscape:snap-bbox="true"
     inkscape:bbox-paths="false"
     inkscape:snap-nodes="false"
     inkscape:snap-bbox-edge-midpoints="false"
     inkscape:bbox-nodes="true"
     inkscape:snap-bbox-midpoints="false"
     inkscape:object-paths="false"
     inkscape:object-nodes="true"
     inkscape:window-width="3200"
     inkscape:window-height="1693"
     inkscape:window-x="0"
     inkscape:window-y="0"
     inkscape:window-maximized="1"
     showguides="false">
    <inkscape:grid
       type="xygrid"
       id="grid6182"
       empspacing="4"
       spacingx="16"
       spacingy="16" />
  </sodipodi:namedview>
  <metadata
     id="metadata5475">
    <rdf:RDF>
      <cc:Work
         rdf:about="">
        <dc:format>image/svg+xml</dc:format>
        <dc:type
           rdf:resource="http://purl.org/dc/dcmitype/StillImage" />
        <dc:title />
      </cc:Work>
    </rdf:RDF>
  </metadata>
  <g
     inkscape:label="Layer 1"
     inkscape:groupmode="layer"
     id="Background Layer"
     transform="translate(0,-540.36216)"
     style="display:inline">
    <rect
       style="opacity:1;fill:#000000;fill-opacity:1;stroke:none;stroke-width:4;stroke-linecap:butt;stroke-linejoin:miter;stroke-miterlimit:4;stroke-dasharray:none;stroke-dashoffset:0;stroke-opacity:1"
       id="Black Background"
       width="512"
       height="511.99997"
       x="1.9401147e-14"
       y="540.36218" />
  </g>
  <g
     inkscape:groupmode="layer"
     id="White Layer"
     inkscape:label="White"
     style="display:inline">
    <path
       style="display:inline;opacity:1;fill:#ffffff;fill-opacity:1;stroke:none;stroke-width:4;stroke-linecap:butt;stroke-linejoin:miter;stroke-miterlimit:4;stroke-dasharray:none;stroke-dashoffset:0;stroke-opacity:1"
       d="m 116.86133,540.36216 c -0.21724,12.83804 -6.09883,25.59193 -14.875,34.97461 -12.146765,14.22216 -32.196285,19.24646 -50.158215,15.77735 -0.13278,3.70901 -0.08054,7.70626 -0.02734,11.51953 1.1635,28.0442 -23.54467,54.32451 -51.8007799999999,53.86523 l 0,11.86328 0,11.86329 C 28.256105,679.76617 52.964275,706.04649 51.800775,734.09068 c -0.0532,3.81327 -0.10546,7.81052 0.02734,11.51954 17.96191,-3.46911 38.01145,1.55517 50.158215,15.77734 8.77617,9.38267 14.65776,22.13657 14.875,34.9746 -0.21724,12.83804 -6.09883,25.59194 -14.875,34.97461 -12.146765,14.22217 -32.196295,19.24646 -50.158215,15.77735 -0.13278,3.709 -0.08054,7.70626 -0.02734,11.51952 1.1635,28.0442 -23.54467,54.32452 -51.8007799999999,53.86524 l 0,11.86328 0,11.86329 C 28.256105,935.76617 52.964275,962.04649 51.800775,990.09068 c -0.0532,3.81327 -0.10543,7.81053 0.02734,11.51952 17.96191,-3.46908 38.01145,1.5552 50.158215,15.7774 8.77617,9.3826 14.65776,22.1365 14.875,34.9746 l 11.13867,0 11.13867,0 c 0.21724,-12.8381 6.09883,-25.592 14.875,-34.9746 12.14676,-14.2222 32.19629,-19.24648 50.15821,-15.7774 0.1325,-3.70899 0.0803,-7.70625 0.0273,-11.51952 -1.1635,-28.04419 23.54468,-54.32451 51.80078,-53.86523 28.25611,-0.45928 52.96428,25.82104 51.80078,53.86523 -0.0532,3.81327 -0.10547,7.81053 0.0273,11.51952 17.96191,-3.46908 38.01145,1.5552 50.15821,15.7774 8.77617,9.3826 14.65776,22.1365 14.875,34.9746 l 11.13867,0 11.13867,0 c 0.2172,-12.8381 6.0988,-25.592 14.875,-34.9746 12.1467,-14.2222 32.19633,-19.24648 50.15823,-15.7774 0.1325,-3.70899 0.0803,-7.70625 0.0273,-11.51952 -1.1635,-28.04419 23.5447,-54.32451 51.8008,-53.86523 l 0,-11.86329 0,-11.86328 c -28.2561,0.45928 -52.9643,-25.82104 -51.8008,-53.86524 0.053,-3.81326 0.1046,-7.81052 -0.0273,-11.51952 -17.9622,3.46911 -38.01153,-1.55518 -50.15823,-15.77735 -8.7762,-9.38267 -14.6578,-22.13657 -14.875,-34.97461 0.21724,-12.83803 6.09883,-25.59193 14.875,-34.9746 12.14676,-14.22217 32.19633,-19.24645 50.15823,-15.77734 0.1325,-3.70902 0.0803,-7.70627 0.0273,-11.51954 -1.1635,-28.04419 23.5447,-54.32451 51.8008,-53.86523 l 0,-11.86329 0,-11.86328 c -28.2561,0.45928 -52.9643,-25.82103 -51.8008,-53.86523 0.053,-3.81327 0.1049,-7.81052 -0.0273,-11.51953 -17.9619,3.46911 -38.01147,-1.55519 -50.15823,-15.77735 -8.77617,-9.38268 -14.65776,-22.13657 -14.875,-34.97461 l -11.13867,0 -11.13867,0 c -0.21724,12.83804 -6.09883,25.59193 -14.875,34.97461 -12.14676,14.22216 -32.19628,19.24646 -50.15821,15.77735 -0.13278,3.70901 -0.0805,7.70626 -0.0273,11.51953 1.1635,28.0442 -23.54467,54.32451 -51.80078,53.86523 -28.2561,0.45928 -52.96428,-25.82103 -51.80078,-53.86523 0.053,-3.81327 0.10455,-7.81052 -0.0273,-11.51953 -17.96222,3.46911 -38.01145,-1.55519 -50.15821,-15.77735 -8.77617,-9.38268 -14.65776,-22.13657 -14.875,-34.97461 l -11.13867,0 -11.13867,0 z M 128,583.89927 c 6.14338,10.4338 9.5415,23.57336 19.59961,31.11133 9.28985,4.87234 20.33649,2.76596 30.39844,3.35352 0.897,11.5589 -2.74503,26.14344 7.13867,34.71874 8.2449,6.48329 18.12617,10.39299 27.32617,15.2793 -9.2,4.88633 -19.08127,8.79602 -27.32617,15.27931 -9.8837,8.57529 -6.24167,23.15985 -7.13867,34.71875 -10.06198,0.58755 -21.10859,-1.51884 -30.39844,3.35351 -10.05811,7.53797 -13.45623,20.67752 -19.59961,31.11133 -6.14338,-10.43381 -9.5415,-23.57336 -19.59961,-31.11133 -9.289855,-4.87235 -20.336385,-2.76596 -30.398445,-3.35351 -0.89693,-11.5589 2.74504,-26.14346 -7.13867,-34.71875 -8.24491,-6.48329 -18.12618,-10.39298 -27.32617,-15.27931 9.19999,-4.88631 19.08126,-8.79601 27.32617,-15.2793 9.88371,-8.5753 6.24174,-23.15984 7.13867,-34.71874 10.06206,-0.58756 21.10859,1.51882 30.398445,-3.35352 C 118.4585,607.47263 121.85662,594.33307 128,583.89927 Z m 256,0 c 6.14338,10.4338 9.5415,23.57336 19.59961,31.11133 9.28985,4.87234 20.33654,2.76596 30.39839,3.35352 0.897,11.5589 -2.745,26.14344 7.1387,34.71874 8.2449,6.48329 18.1262,10.39299 27.3262,15.2793 -9.2,4.88633 -19.0813,8.79602 -27.3262,15.27931 -9.8837,8.57529 -6.2417,23.15985 -7.1387,34.71875 -10.06188,0.58755 -21.10854,-1.51884 -30.39839,3.35351 -10.05811,7.53797 -13.45623,20.67752 -19.59961,31.11133 -6.14338,-10.43381 -9.5415,-23.57336 -19.59961,-31.11133 -9.28985,-4.87235 -20.33638,-2.76596 -30.39844,-3.35351 -0.89693,-11.5589 2.74504,-26.14346 -7.13867,-34.71875 -8.24491,-6.48329 -18.12618,-10.39298 -27.32617,-15.27931 9.19999,-4.88631 19.08126,-8.79601 27.32617,-15.2793 9.88371,-8.5753 6.24174,-23.15984 7.13867,-34.71874 10.06206,-0.58756 21.10859,1.51882 30.39844,-3.35352 C 374.4585,607.47263 377.85662,594.33307 384,583.89927 Z m -256,35.38086 c -2.28797,9.11473 -6.4323,17.73218 -12.97266,24.57032 6.25863,2.97521 10.55375,8.64745 12.8086,15.08593 l 0.16406,0.38086 0.16406,-0.38086 c 2.25485,-6.43848 6.54997,-12.11072 12.8086,-15.08593 C 134.4323,637.01231 130.28797,628.39486 128,619.28013 Z m 256,0 c -2.28797,9.11473 -6.4323,17.73218 -12.97266,24.57032 6.25863,2.97521 10.55375,8.64745 12.8086,15.08593 l 0.16406,0.38086 0.16406,-0.38086 c 2.25485,-6.43848 6.54997,-12.11072 12.8086,-15.08593 C 390.4323,637.01231 386.28797,628.39486 384,619.28013 Z M 103.48828,655.3895 c -6.835955,6.54317 -15.456385,10.68513 -24.570315,12.97266 9.11393,2.28754 17.73436,6.4295 24.570315,12.97267 3.02641,-6.40463 8.89946,-10.69222 15.4668,-12.97267 -6.56734,-2.28044 -12.44039,-6.56803 -15.4668,-12.97266 z m 49.02344,0 c -3.02641,6.40463 -8.89946,10.69222 -15.4668,12.97266 6.56734,2.28045 12.44039,6.56804 15.4668,12.97267 6.83595,-6.54317 15.45642,-10.68513 24.57031,-12.97267 -9.11388,-2.28753 -17.73436,-6.42949 -24.57031,-12.97266 z m 206.97656,0 c -6.83595,6.54317 -15.45638,10.68513 -24.57031,12.97266 9.11393,2.28754 17.73436,6.4295 24.57031,12.97267 3.02641,-6.40463 8.89946,-10.69222 15.4668,-12.97267 -6.56734,-2.28044 -12.44039,-6.56803 -15.4668,-12.97266 z m 49.02344,0 c -3.02641,6.40463 -8.89946,10.69222 -15.4668,12.97266 6.56734,2.28045 12.44039,6.56804 15.4668,12.97267 6.83595,-6.54317 15.45645,-10.68513 24.57028,-12.97267 -9.11382,-2.28753 -17.73433,-6.42949 -24.57028,-12.97266 z M 128,677.40709 l -0.16406,0.38086 c -2.25485,6.43848 -6.54997,12.11071 -12.8086,15.08593 6.54036,6.83815 10.68469,15.45559 12.97266,24.57032 2.28797,-9.11473 6.4323,-17.73217 12.97266,-24.57032 -6.25863,-2.97522 -10.55375,-8.64745 -12.8086,-15.08593 L 128,677.40709 Z m 256,0 -0.16406,0.38086 c -2.25485,6.43848 -6.54997,12.11071 -12.8086,15.08593 6.54036,6.83815 10.68469,15.45559 12.97266,24.57032 2.28797,-9.11473 6.4323,-17.73217 12.97266,-24.57032 -6.25863,-2.97522 -10.55375,-8.64745 -12.8086,-15.08593 L 384,677.40709 Z m -128,2.81836 c 28.25611,-0.45928 52.96428,25.82104 51.80078,53.86523 -0.0532,3.81327 -0.10552,7.81052 0.0273,11.51954 17.96191,-3.46911 38.01145,1.55517 50.15821,15.77734 8.77617,9.38267 14.65776,22.13657 14.875,34.9746 -0.21724,12.83804 -6.09883,25.59194 -14.875,34.97461 -12.14676,14.22217 -32.19628,19.24646 -50.15821,15.77735 -0.13278,3.709 -0.0805,7.70626 -0.0273,11.51952 1.1635,28.0442 -23.54467,54.32452 -51.80078,53.86524 -28.2561,0.45928 -52.96428,-25.82104 -51.80078,-53.86524 0.053,-3.81326 0.10451,-7.81052 -0.0273,-11.51952 -17.96222,3.46911 -38.01145,-1.55518 -50.15821,-15.77735 -8.77625,-9.38267 -14.65776,-22.13657 -14.875,-34.97461 0.21724,-12.83803 6.09883,-25.59193 14.875,-34.9746 12.14676,-14.22217 32.19629,-19.24645 50.15821,-15.77734 0.1325,-3.70902 0.0803,-7.70627 0.0273,-11.51954 C 203.03572,706.04649 227.7439,679.76617 256,680.22545 Z M 128,839.89927 c 6.14338,10.4338 9.5415,23.57337 19.59961,31.11133 9.28985,4.87235 20.33649,2.76596 30.39844,3.35352 0.897,11.5589 -2.74503,26.14344 7.13867,34.71875 8.2449,6.48328 18.12617,10.39297 27.32617,15.27929 -9.2,4.88633 -19.08127,8.79602 -27.32617,15.2793 -9.8837,8.5753 -6.24167,23.15985 -7.13867,34.71875 -10.06198,0.58756 -21.10859,-1.51883 -30.39844,3.35352 -10.05811,7.53796 -13.45623,20.67748 -19.59961,31.11137 -6.14338,-10.43389 -9.5415,-23.57341 -19.59961,-31.11137 -9.289855,-4.87235 -20.336385,-2.76596 -30.398445,-3.35352 -0.89693,-11.5589 2.74504,-26.14345 -7.13867,-34.71875 -8.24491,-6.48328 -18.12618,-10.39297 -27.32617,-15.2793 9.19999,-4.88632 19.08126,-8.79601 27.32617,-15.27929 9.88371,-8.57531 6.24174,-23.15985 7.13867,-34.71875 10.06206,-0.58756 21.10859,1.51883 30.398445,-3.35352 C 118.4585,863.47264 121.85662,850.33307 128,839.89927 Z m 256,0 c 6.14338,10.4338 9.54151,23.57337 19.59961,31.11133 9.2899,4.87235 20.33652,2.76596 30.39839,3.35352 0.897,11.5589 -2.745,26.14344 7.1387,34.71875 8.2449,6.48328 18.1262,10.39297 27.3262,15.27929 -9.2,4.88633 -19.0813,8.79602 -27.3262,15.2793 -9.8837,8.5753 -6.2417,23.15985 -7.1387,34.71875 -10.06187,0.58756 -21.10849,-1.51883 -30.39839,3.35352 -10.0581,7.53796 -13.45623,20.67748 -19.59961,31.11137 -6.14338,-10.43389 -9.5415,-23.57341 -19.59961,-31.11137 -9.28985,-4.87235 -20.33638,-2.76596 -30.39844,-3.35352 -0.89693,-11.5589 2.74504,-26.14345 -7.13867,-34.71875 -8.24491,-6.48328 -18.12618,-10.39297 -27.32617,-15.2793 9.19999,-4.88632 19.08126,-8.79601 27.32617,-15.27929 9.88371,-8.57531 6.24174,-23.15985 7.13867,-34.71875 10.06206,-0.58756 21.10859,1.51883 30.39844,-3.35352 C 374.4585,863.47264 377.85662,850.33307 384,839.89927 Z m -256,35.38086 c -2.28797,9.11473 -6.4323,17.73217 -12.97266,24.57032 6.25863,2.97522 10.55375,8.64745 12.8086,15.08593 l 0.16406,0.38086 0.16406,-0.38086 c 2.25485,-6.43848 6.54997,-12.11071 12.8086,-15.08593 C 134.4323,893.0123 130.28797,884.39486 128,875.28013 Z m 256,0 c -2.28797,9.11473 -6.4323,17.73217 -12.97266,24.57032 6.25863,2.97522 10.55375,8.64745 12.8086,15.08593 l 0.16406,0.38086 0.16406,-0.38086 c 2.25485,-6.43848 6.54993,-12.11071 12.8086,-15.08593 C 390.43226,893.0123 386.28797,884.39486 384,875.28013 Z M 103.48828,911.3895 c -6.835955,6.54317 -15.456385,10.68513 -24.570315,12.97266 9.11393,2.28754 17.73436,6.4295 24.570315,12.97267 3.02641,-6.40463 8.89946,-10.69222 15.4668,-12.97267 -6.56734,-2.28044 -12.44039,-6.56803 -15.4668,-12.97266 z m 49.02344,0 c -3.02641,6.40463 -8.89946,10.69222 -15.4668,12.97266 6.56734,2.28045 12.44039,6.56804 15.4668,12.97267 6.83595,-6.54317 15.45642,-10.68513 24.57031,-12.97267 -9.11388,-2.28753 -17.73436,-6.42949 -24.57031,-12.97266 z m 206.97656,0 c -6.83595,6.54317 -15.45638,10.68513 -24.57031,12.97266 9.11393,2.28754 17.73436,6.4295 24.57031,12.97267 3.02641,-6.40463 8.89946,-10.69222 15.4668,-12.97267 -6.56734,-2.28044 -12.44039,-6.56803 -15.4668,-12.97266 z m 49.02344,0 c -3.0264,6.40463 -8.8994,10.69222 -15.4668,12.97266 6.5674,2.28045 12.4404,6.56804 15.4668,12.97267 6.836,-6.54317 15.45639,-10.68513 24.57028,-12.97267 -9.11389,-2.28753 -17.73428,-6.42949 -24.57028,-12.97266 z M 128,933.40709 l -0.16406,0.38086 c -2.25485,6.43848 -6.54997,12.11071 -12.8086,15.08593 6.54036,6.83815 10.68469,15.45559 12.97266,24.57032 2.28797,-9.11473 6.4323,-17.73217 12.97266,-24.57032 -6.25863,-2.97522 -10.55375,-8.64745 -12.8086,-15.08593 L 128,933.40709 Z m 256,0 -0.16406,0.38086 c -2.25485,6.43848 -6.54997,12.11071 -12.8086,15.08593 6.54036,6.83815 10.68469,15.45559 12.97266,24.57032 2.28797,-9.11473 6.43226,-17.73217 12.97266,-24.57032 -6.25867,-2.97522 -10.55375,-8.64745 -12.8086,-15.08593 L 384,933.40709 Z"
       id="White"
       inkscape:connector-curvature="0"
       transform="translate(0,-540.36216)" />
  </g>
  <g
     inkscape:groupmode="layer"
     id="Yellow Layer"
     inkscape:label="Yellow"
     style="display:inline">
    <path
       id="Yellow"
       style="display:inline;fill:#ffdf6a;fill-opacity:1;fill-rule:nonzero;stroke:none"
       d="m 511.7578,655.1414 c -27.36311,-0.25113 -50.18993,-23.96294 -49.61133,-51.48828 0.101,-4.72707 0.0156,-9.45975 0.0156,-14.29102 -25.5623,3.90875 -45.3467,-3.84587 -57.0332,-22.79688 -5.31885,-8.6241 -8.01226,-17.44104 -7.9336,-26.20312 l 114.80472,0 0,114.77539 c -0.0811,-3.2e-4 -0.16102,0.005 -0.24219,0.004 z M 0,540.36216 0,655.13755 c 0.0811,-3.2e-4 0.1610175,0.005 0.2421875,0.004 27.3631095,-0.25122 50.1899285,-23.96303 49.6113285,-51.48837 -0.101,-4.72707 -0.01563,-9.45975 -0.01563,-14.29102 25.5623,3.90875 45.346703,-3.84586 57.033194,-22.79687 5.31885,-8.6241 8.01226,-17.44105 7.9336,-26.20313 L 0,540.36216 Z m 255.68945,141.86133 c -27.3631,0.25113 -50.18992,23.96294 -49.61133,51.48828 0.101,4.72707 0.0156,9.45973 0.0156,14.29101 -25.5623,-3.90877 -45.34475,3.84588 -57.03125,22.79688 -10.512,17.04446 -10.7834,34.83821 0.375,51.48633 13.1723,19.65314 32.07797,27.23359 56.66797,22.30664 0,5.08754 0.0907,9.58534 -0.0137,14.08008 -0.6522,27.9883 22.61972,52.07976 50.11132,51.82812 27.36311,-0.25028 50.18993,-23.96167 49.61133,-51.48633 -0.101,-4.72878 -0.0156,-9.46196 -0.0156,-14.39062 23.7924,4.8552 42.5886,-2.26267 56.0039,-21.3418 11.3219,-16.10485 12.12612,-33.8368 1.97852,-50.66601 -12.9823,-21.52723 -32.79294,-29.46825 -57.99414,-24.61133 0,-4.95942 -0.0907,-9.45814 0.0137,-13.95117 0.6522,-27.98147 -22.62833,-52.08122 -50.11133,-51.83008 z M 0.2421875,937.58286 C 0.1610175,937.58186 0.0811,937.58709 0,937.58677 l 0,114.77543 114.80469,0 c 0.0787,-8.7621 -2.61475,-17.5791 -7.9336,-26.2032 -11.686496,-18.951 -31.470899,-26.70564 -57.033199,-22.7968 0,-4.83136 -0.08537,-9.56399 0.01563,-14.29106 0.5786,-27.52534 -22.248219,-51.23715 -49.6113285,-51.48828 z m 511.5156225,0 c -27.36311,0.25113 -50.18993,23.96294 -49.61133,51.48828 0.101,4.72707 0.0156,9.45971 0.0156,14.29106 -25.5623,-3.90883 -45.3467,3.8458 -57.0332,22.7968 -5.31885,8.6241 -8.01226,17.4411 -7.9336,26.2032 l 114.80472,0 0,-114.77543 c -0.0811,3.2e-4 -0.16102,-0.005 -0.24219,-0.004 z"
       inkscape:connector-curvature="0"
       transform="translate(0,-540.36216)" />
  </g>
  <g
     inkscape:groupmode="layer"
     id="Black Trim Detail Layer"
     inkscape:label="Black Deco">
    <path
       transform="translate(0,-540.36216)"
       id="Black Trim Detail"
       style="display:inline;fill:#000000;fill-opacity:1;fill-rule:nonzero;stroke:none"
       d="m 0,602.34257 1.47852,-1.63281 c 7.54423,-8.47876 12.85559,-20.19923 10.4082,-31.70313 6.86771,10.5138 19.96944,14.9263 32.02734,15.1875 -0.25624,-12.0472 -4.69361,-25.1234 -15.20508,-31.9668 12.2857,2.5844 24.67676,-3.53473 33.39844,-11.86523 l -2.98633,0 c -0.0225,0.0215 -10.97581,10.47461 -24.49023,10.47461 -13.51452,0 -24.46971,-10.45315 -24.49219,-10.47461 l -2.98047,0 c 1.78094,2.146 7.02088,5.3765 7.38477,6.125 -3.11366,-0.6784 -6.29428,-1.01047 -9.47852,-1.07617 -0.0969,2.9965 0.80593,7.52036 0.88867,9.57226 C 4.23001,552.29534 2.20474,549.81291 0,547.50663 l 0,2.97461 c 0.0216,0.0225 10.49609,10.95204 10.49609,24.43945 0,13.48745 -10.47458,24.42288 -10.49609,24.44532 l 0,2.97656 z m 41.80664,-20.25586 c 0,0 -15.17854,-0.33251 -24.74414,-9.87891 -9.5672,-9.5481 -9.89845,-24.69726 -9.89844,-24.69726 0,0 15.1788,0.33266 24.7461,9.88086 9.5655,9.5464 9.89648,24.69531 9.89648,24.69531 z M 0,990.38168 l 1.47852,1.63281 c 7.54423,8.47871 12.85559,20.19921 10.4082,31.70311 6.86771,-10.5138 19.96944,-14.9263 32.02734,-15.1875 -0.25624,12.0472 -4.69361,25.1234 -15.20508,31.9668 12.2857,-2.5844 24.67676,3.5348 33.39844,11.8653 l -2.98633,0 c -0.0225,-0.022 -10.97581,-10.4747 -24.49023,-10.4747 -13.51452,0 -24.46971,10.4532 -24.49219,10.4747 l -2.98047,0 c 1.78094,-2.146 7.02088,-5.3765 7.38477,-6.125 -3.11366,0.6784 -6.29428,1.0104 -9.47852,1.0761 -0.0969,-2.9965 0.80593,-7.5203 0.88867,-9.5722 -1.72311,2.6878 -3.74838,5.1702 -5.95312,7.4765 l 0,-2.9746 c 0.0216,-0.023 10.49609,-10.952 10.49609,-24.4394 0,-13.4875 -10.47458,-24.42292 -10.49609,-24.44536 l 0,-2.97656 z m 41.80664,20.25582 c 0,0 -15.17854,0.3326 -24.74414,9.879 -9.5672,9.5481 -9.89845,24.6972 -9.89844,24.6972 0,0 15.1788,-0.3326 24.7461,-9.8808 9.5655,-9.5464 9.89648,-24.6954 9.89648,-24.6954 z m 470.19335,-408.29493 -1.47852,-1.63281 c -7.54423,-8.47876 -12.85559,-20.19923 -10.4082,-31.70313 -6.86771,10.5138 -19.96944,14.9263 -32.02734,15.1875 0.25624,-12.0472 4.69361,-25.1234 15.20508,-31.9668 -12.2857,2.5844 -24.67676,-3.53473 -33.39844,-11.86523 l 2.98633,0 c 0.0225,0.0215 10.97581,10.47461 24.49023,10.47461 13.51452,0 24.46971,-10.45315 24.49219,-10.47461 l 2.98047,0 c -1.78094,2.146 -7.02088,5.3765 -7.38477,6.125 3.11366,-0.6784 6.29428,-1.01047 9.47852,-1.07617 0.0969,2.9965 -0.80593,7.52036 -0.88867,9.57226 1.72311,-2.68785 3.74838,-5.17028 5.95312,-7.47656 l 0,2.97461 c -0.0216,0.0225 -10.49609,10.95204 -10.49609,24.43945 0,13.48745 10.47458,24.42288 10.49609,24.44532 l 0,2.97656 z m -41.80664,-20.25586 c 0,0 15.17854,-0.33251 24.74414,-9.87891 9.5672,-9.5481 9.89845,-24.69726 9.89844,-24.69726 0,0 -15.1788,0.33266 -24.7461,9.88086 -9.5655,9.5464 -9.89648,24.69531 -9.89648,24.69531 z M 512,990.38169 l -1.47852,1.63281 c -7.54423,8.4788 -12.85559,20.1992 -10.4082,31.7031 -6.86771,-10.5138 -19.96944,-14.9263 -32.02734,-15.1875 0.25624,12.0472 4.69361,25.1234 15.20508,31.9668 -12.2857,-2.5844 -24.67676,3.5348 -33.39844,11.8653 l 2.98633,0 c 0.0225,-0.022 10.97581,-10.4746 24.49023,-10.4746 13.51452,0 24.46971,10.4531 24.49219,10.4746 l 2.98047,0 c -1.78094,-2.146 -7.02088,-5.3765 -7.38477,-6.125 3.11366,0.6784 6.29428,1.0104 9.47852,1.0761 0.0969,-2.9965 -0.80593,-7.5203 -0.88867,-9.5722 1.72311,2.6878 3.74838,5.1702 5.95312,7.4765 l 0,-2.9746 c -0.0216,-0.023 -10.49609,-10.952 -10.49609,-24.4394 0,-13.4875 10.47458,-24.42291 10.49609,-24.44535 l 0,-2.97656 z m -41.80664,20.25581 c 0,0 15.17854,0.3326 24.74414,9.879 9.5672,9.5481 9.89845,24.6972 9.89844,24.6972 0,0 -15.1788,-0.3326 -24.7461,-9.8808 -9.5655,-9.5464 -9.89648,-24.6954 -9.89648,-24.6954 z M 256.0039,734.37682 l -1.48242,1.63672 c -7.54423,8.47875 -12.85559,20.20116 -10.4082,31.70507 -6.86771,-10.51382 -19.96945,-14.92626 -32.02735,-15.1875 0.25624,12.04722 4.69361,25.12343 15.20508,31.96679 -12.2857,-2.58441 -24.67676,3.53283 -33.39844,11.86328 8.71188,8.3457 21.10848,14.45396 33.39453,11.87697 -10.50642,6.83929 -14.94214,19.91261 -15.20117,31.95311 12.06054,-0.23859 25.15638,-4.66943 32.02735,-15.17578 -2.58634,12.26992 3.54339,24.64868 11.89062,33.33203 8.3491,-8.68357 14.47624,-21.0614 11.89062,-33.33203 6.86798,10.50325 19.96153,14.93476 32.01758,15.17578 -0.23761,-12.0432 -4.69108,-25.11278 -15.19336,-31.95311 12.28151,2.57407 24.68569,-3.52521 33.38868,-11.87697 -8.71515,-8.33746 -21.10943,-14.44534 -33.39258,-11.86328 10.50556,-6.84314 14.96294,-19.91903 15.19726,-31.96679 -12.05574,0.2644 -25.15175,4.67546 -32.01758,15.1875 2.58822,-12.2745 -3.54743,-24.65047 -11.89062,-33.34179 z m 0,2.9785 c 0,0 10.49805,10.94601 10.49805,24.44727 0,13.5013 -10.49805,24.44531 -10.49805,24.44531 0,0 -10.5,-10.94401 -10.5,-24.44531 0,-13.50126 10.5,-24.44727 10.5,-24.44727 z m -41.81055,17.28322 c 0,0 15.17854,0.3325 24.74414,9.87889 9.5672,9.54811 9.89845,24.69533 9.89844,24.69533 0,0 -15.17879,-0.3308 -24.74609,-9.87892 -9.5655,-9.5464 -9.89649,-24.6953 -9.89649,-24.6953 z m 83.61914,0 c 0,0 -0.33113,15.14889 -9.89843,24.6953 -9.5655,9.5481 -24.74414,9.87892 -24.74414,9.87892 0,0 0.33113,-15.14722 9.89843,-24.69533 9.5655,-9.54639 24.74414,-9.87889 24.74414,-9.87889 z m -47.76562,27.10155 c 1.72411,2.68946 3.75081,5.17309 5.95703,7.48048 2.15556,-1.77393 5.40527,-7.04106 6.14453,-7.3711 -0.68507,3.10763 -1.00343,6.28439 -1.08594,9.46289 2.78761,0.27007 8.75403,-1.14341 9.57422,-0.87891 -2.68918,1.71375 -5.165,3.73941 -7.48047,5.92773 1.77834,2.15039 7.01967,5.37516 7.38868,6.13283 -3.11481,-0.68128 -6.29756,-0.99987 -9.48243,-1.08204 -0.26303,2.77085 1.17248,8.80708 0.88086,9.54882 -1.7203,-2.68122 -3.7466,-5.15204 -5.93945,-7.45897 -2.15017,1.7846 -5.39506,7.03044 -6.14453,7.3828 0.68381,-3.11071 1.01012,-6.29029 1.07617,-9.47265 -2.78421,-0.25234 -8.74484,1.15219 -9.5625,0.88671 2.68357,-1.7201 5.16943,-3.73225 7.46875,-5.9375 -1.78094,-2.14596 -7.02088,-5.37453 -7.38477,-6.12303 3.11366,0.67832 6.29428,1.00852 9.47852,1.07421 0.0969,-2.99646 -0.80592,-7.52033 -0.88867,-9.57227 z m -28.67774,4.14845 c 13.5284,0 24.4961,10.47655 24.4961,10.47655 0,0 -10.9677,10.47852 -24.4961,10.47852 -13.5283,0 -24.49414,-10.47852 -24.49414,-10.47852 0,0 10.96584,-10.47655 24.49414,-10.47655 z m 69.26563,0 c 13.5284,0 24.49609,10.47655 24.49609,10.47655 0,0 -10.96769,10.47852 -24.49609,10.47852 -13.5284,0 -24.49609,-10.47852 -24.49609,-10.47852 0,0 10.96769,-10.47655 24.49609,-10.47655 z m -41.79883,17.63086 c 0,0 -0.33124,15.14696 -9.89844,24.69336 -9.5656,9.5481 -24.74414,9.87889 -24.74414,9.87889 0,0 0.33099,-15.1489 9.89649,-24.69531 9.5673,-9.54811 24.74609,-9.87694 24.74609,-9.87694 z m 14.33399,0 c 0,0 15.17864,0.32882 24.74414,9.87694 9.5673,9.54639 9.89843,24.69531 9.89843,24.69531 0,0 -15.17864,-0.33079 -24.74414,-9.87889 -9.5673,-9.5464 -9.89843,-24.69336 -9.89843,-24.69336 z m -7.16602,2.96092 c 0,0 10.49805,10.94598 10.49805,24.44727 0,13.50135 -10.49805,24.44727 -10.49805,24.44727 0,0 -10.5,-10.94592 -10.5,-24.44727 0,-13.50129 10.5,-24.44727 10.5,-24.44727 z"
       inkscape:connector-curvature="0" />
  </g>
  <g
     inkscape:groupmode="layer"
     id="Blue Layer"
     inkscape:label="Blue"
     style="display:inline">
    <path
       id="Blue"
       style="display:inline;fill:#2080ff;fill-opacity:1;fill-rule:nonzero;stroke:none"
       d="m 128,588.36214 c -16,32 -16,32 -48.000003,32 0,32 0,32 -32,48 32,16 32,16 32,48 C 112,716.36214 112,716.3621 128,748.3622 c 16,-32.0001 16,-32.00006 48,-32.00006 0,-32 0,-32 32,-48 -32,-16 -32,-16 -32,-48 -32,0 -32,0 -48,-32 z m 0,24 c 6,20 6,20 16,32 -10,6 -10,6 -16,20 -6,-14 -6,-14 -16,-20 10,-12 10,-12 16,-32 z m -24,40 c 6,10 6,10 20,16 -14,6 -14,6 -20,16 -12.000003,-10 -12.000003,-10 -32.000003,-16 20,-6 20,-6 32.000003,-16 z m 48,0 c 12,10 12,10 32,16 -20,6 -20,6 -32,16 -6,-10 -6,-10 -20,-16 14,-6 14,-6 20,-16 z m -24,20 c 6,14 6,14 16,20 -10,12 -10,12 -16,32 -6,-20 -6,-20 -16,-32 10,-6 10,-6 16,-20 z m 255.99999,-84 c -16,32 -16,32 -48,32 0,32 0,32 -32,48 32,16 32,16 32,48 32,0 32,-4e-5 48,32.00006 16,-32.0001 16,-32.00006 48,-32.00006 0,-32 0,-32 32,-48 -32,-16 -32,-16 -32,-48 -32,0 -32,0 -48,-32 z m 0,24 c 6,20 6,20 16,32 -10,6 -10,6 -16,20 -6,-14 -6,-14 -16,-20 10,-12 10,-12 16,-32 z m -24,40 c 6,10 6,10 20,16 -14,6 -14,6 -20,16 -12,-10 -12,-10 -32,-16 20,-6 20,-6 32,-16 z m 48,0 c 12,10 12,10 32,16 -20,6 -20,6 -32,16 -6,-10 -6,-10 -20,-16 14,-6 14,-6 20,-16 z m -24,20 c 6,14 6,14 16,20 -10,12 -10,12 -16,32 -6,-20 -6,-20 -16,-32 10,-6 10,-6 16,-20 z m 0,172 c -16,32 -16,32 -48,32 0,32 0,32 -32,48 32,16 32,16 32,48 32,0 32,-4e-5 48,32.00006 16,-32.0001 16,-32.00006 48,-32.00006 0,-32 0,-32 32,-48 -32,-16 -32,-16 -32,-48 -32,0 -32,0 -48,-32 z m 0,24 c 6,20 6,20 16,32 -10,6 -10,6 -16,20 -6,-14 -6,-14 -16,-20 10,-12 10,-12 16,-32 z m -24,40 c 6,10 6,10 20,16 -14,6 -14,6 -20,16 -12,-10 -12,-10 -32,-16 20,-6 20,-6 32,-16 z m 48,0 c 12,10 12,10 32,16 -20,6 -20,6 -32,16 -6,-10 -6,-10 -20,-16 14,-6 14,-6 20,-16 z m -24,20 c 6,14 6,14 16,20 -10,12 -10,12 -16,32 -6,-20 -6,-20 -16,-32 10,-6 10,-6 16,-20 z M 128,844.36216 c -16,32 -16,32 -48,32 0,32 -10e-7,32 -32,48 31.999999,16 32,16 32,48 32,0 32,-4e-5 48,32.00004 16,-32.00008 16,-32.00004 48,-32.00004 0,-32 0,-32 32,-48 -32,-16 -32,-16 -32,-48 -32,0 -32,0 -48,-32 z m 0,24 c 6,20 6,20 16,32 -10,6 -10,6 -16,20 -6,-14 -6,-14 -16,-20 10,-12 10,-12 16,-32 z m -24,40 c 6,10 6,10 20,16 -14,6 -14,6 -20,16 -12.000004,-10 -12,-10 -32,-16 20,-6 19.999996,-6 32,-16 z m 48,0 c 12,10 12,10 32,16 -20,6 -20,6 -32,16 -6,-10 -6,-10 -20,-16 14,-6 14,-6 20,-16 z m -24,20 c 6,14 6,14 16,20 -10,12 -10,12 -16,32 -6,-20 -6,-20 -16,-32 10,-6 10,-6 16,-20 z"
       inkscape:connector-curvature="0"
       transform="translate(0,-540.36216)" />
  </g>
  <g
     inkscape:groupmode="layer"
     id="Orange Layer"
     inkscape:label="Orange"
     style="display:inline">
    <path
       id="Orange"
       style="display:inline;fill:#ff660b;fill-opacity:1;fill-rule:nonzero;stroke:none"
       d="m 0,599.37187 c 0,0 10.5,-10.94597 10.5,-24.44727 C 10.5,561.4233 0,550.47929 0,550.47929 l 0,48.89258 z m 41.81055,-17.28321 c 0,0 -0.33099,-15.14891 -9.89649,-24.69531 -9.5673,-9.5481 -24.74609,-9.87891 -24.74609,-9.87891 -1e-5,0 0.33123,15.14722 9.89844,24.69532 9.5656,9.5464 24.74414,9.8789 24.74414,9.8789 z m -7.17578,-31.25 c 13.5283,0 24.49414,-10.47656 24.49414,-10.47656 l -48.99024,0 c 0,0 10.9677,10.47656 24.4961,10.47656 z m 477.36522,48.53321 c 0,0 -10.5,-10.94597 -10.5,-24.44727 0,-13.5013 10.5,-24.44531 10.5,-24.44531 l 0,48.89258 z m -41.81055,-17.28321 c 0,0 0.33099,-15.14891 9.89649,-24.69531 9.5673,-9.5481 24.74609,-9.87891 24.74609,-9.87891 10e-6,0 -0.33123,15.14722 -9.89844,24.69532 -9.5656,9.5464 -24.74414,9.8789 -24.74414,9.8789 z m 7.17578,-31.25 c -13.5283,0 -24.49414,-10.47656 -24.49414,-10.47656 l 48.99024,0 c 0,0 -10.9677,10.47656 -24.4961,10.47656 z M 256.00097,737.3524 c 0,0 -10.5,10.94599 -10.5,24.44726 0,13.5013 10.5,24.44532 10.5,24.44532 0,0 10.49805,-10.94402 10.49805,-24.44532 0,-13.50127 -10.49805,-24.44726 -10.49805,-24.44726 z m -41.81054,17.2832 c 0,0 0.33098,15.14892 9.89648,24.69532 9.5673,9.54811 24.74609,9.8789 24.74609,9.8789 1e-5,0 -0.33123,-15.1472 -9.89843,-24.69531 -9.5656,-9.5464 -24.74414,-9.87891 -24.74414,-9.87891 z m 83.61914,0 c 0,0 -15.17864,0.33251 -24.74414,9.87891 -9.5673,9.54811 -9.89844,24.69531 -9.89844,24.69531 0,0 15.17864,-0.3308 24.74414,-9.8789 9.5673,-9.54641 9.89844,-24.69532 9.89844,-24.69532 z m -76.44336,31.25 c -13.5283,0 -24.49414,10.47656 -24.49414,10.47656 0,0 10.96584,10.47852 24.49414,10.47852 13.5284,0 24.49609,-10.47852 24.49609,-10.47852 0,0 -10.96769,-10.47656 -24.49609,-10.47656 z m 69.26562,0 c -13.5284,0 -24.49609,10.47656 -24.49609,10.47656 0,0 10.96769,10.47852 24.49609,10.47852 13.5284,0 24.4961,-10.47852 24.4961,-10.47852 0,0 -10.9677,-10.47656 -24.4961,-10.47656 z M 248.833,803.51646 c 0,0 -15.17879,0.32885 -24.74609,9.87696 -9.5655,9.5464 -9.89648,24.69531 -9.89648,24.69531 0,0 15.17854,-0.3308 24.74414,-9.87891 9.5672,-9.5464 9.89843,-24.69336 9.89843,-24.69336 z m 14.33399,0 c 0,0 0.33114,15.14696 9.89844,24.69336 9.5655,9.54811 24.74414,9.87891 24.74414,9.87891 0,0 -0.33114,-15.14892 -9.89844,-24.69531 -9.5655,-9.54812 -24.74414,-9.87696 -24.74414,-9.87696 z m -7.16602,2.96094 c 0,0 -10.5,10.94597 -10.5,24.44726 0,13.5013 10.5,24.44727 10.5,24.44727 0,0 10.49805,-10.94597 10.49805,-24.44727 0,-13.50129 -10.49805,-24.44726 -10.49805,-24.44726 z M 0,993.35238 c 0,0 10.5,10.94602 10.5,24.44732 0,13.5013 -10.5,24.4453 -10.5,24.4453 l 0,-48.89262 z m 41.81055,17.28322 c 0,0 -0.33099,15.1489 -9.89649,24.6953 -9.5673,9.5481 -24.74609,9.8789 -24.74609,9.8789 -1e-5,0 0.33123,-15.1472 9.89844,-24.6953 9.5656,-9.5464 24.74414,-9.8789 24.74414,-9.8789 z m -7.17578,31.25 c 13.5283,0 24.49414,10.4766 24.49414,10.4766 l -48.99024,0 c 0,0 10.9677,-10.4766 24.4961,-10.4766 z M 512,993.35239 c 0,0 -10.5,10.94601 -10.5,24.44731 0,13.5013 10.5,24.4453 10.5,24.4453 l 0,-48.89261 z m -41.81055,17.28321 c 0,0 0.33099,15.1489 9.89649,24.6953 9.5673,9.5481 24.74609,9.8789 24.74609,9.8789 1e-5,0 -0.33123,-15.1472 -9.89844,-24.6953 -9.5656,-9.5464 -24.74414,-9.8789 -24.74414,-9.8789 z m 7.17578,31.25 c -13.5283,0 -24.49414,10.4766 -24.49414,10.4766 l 48.99024,0 c 0,0 -10.9677,-10.4766 -24.4961,-10.4766 z M 141.53906,540.36216 c 1.47433,16.39987 8.09599,29.91777 21.22656,40.32031 13.39196,10.61182 29.02622,9.93047 45.02344,9.23633 -5.07729,24.98889 2.71483,44.35297 23.20508,57.56055 16.21419,10.45004 33.79924,10.45003 50.01172,0 20.49025,-13.20827 28.28263,-32.5708 23.24805,-57.34571 4.28118,0 8.21622,-0.25211 12.11132,0.0488 10.89259,0.84049 20.91484,-1.57321 30.01758,-7.60937 15.08905,-10.00601 22.49396,-24.45166 24.07813,-42.21094 l -228.92188,0 z M 0,681.90122 0,910.8231 c 16.39992,-1.47484 29.917693,-8.09618 40.320312,-21.22656 10.6118,-13.39265 9.932446,-29.02451 9.234376,-45.02344 24.991619,5.07729 44.35423,-2.71483 57.562502,-23.20508 10.45003,-16.21248 10.45003,-33.79924 0,-50.01172 -13.208272,-20.49026 -32.570116,-28.28264 -57.345706,-23.24805 0,-4.26412 -0.252111,-8.21136 0.04883,-12.11328 0.84049,-10.8926 -1.575168,-20.9134 -7.611328,-30.01562 C 32.202994,690.89098 17.75927,683.48488 0,681.90122 Z m 512,0 c -16.39987,1.47433 -29.91777,8.09599 -40.32031,21.22656 -10.61182,13.39196 -9.93047,29.02622 -9.23633,45.02344 -24.98889,-5.07729 -44.35297,2.71483 -57.56055,23.20508 -10.45004,16.21419 -10.45003,33.79924 0,50.01172 13.20827,20.49025 32.5708,28.28263 57.34571,23.24805 0,4.28118 0.25211,8.21622 -0.0488,12.11132 -0.84049,10.89259 1.57321,20.91484 7.60937,30.01758 10.00601,15.08905 24.45166,22.49396 42.21094,24.07813 l 0,-228.92188 z M 256,937.40708 c -8.45005,0 -16.89962,2.61092 -25.00586,7.83594 -20.49025,13.20827 -28.28264,32.57193 -23.24805,57.34768 -4.26411,0 -8.21136,0.2521 -12.11328,-0.049 -10.8926,-0.8405 -20.9134,1.5751 -30.01562,7.6113 -15.08837,10.006 -22.49447,24.4497 -24.07813,42.209 l 228.92188,0 c -1.47483,-16.4 -8.09616,-29.9176 -21.22656,-40.3203 -13.39265,-10.6118 -29.02452,-9.9325 -45.02344,-9.2344 5.07728,-24.99173 -2.71483,-44.35618 -23.20508,-57.56445 -8.10624,-5.22502 -16.55581,-7.83594 -25.00586,-7.83594 z"
       inkscape:connector-curvature="0"
       transform="translate(0,-540.36216)" />
  </g>
</svg>
