<?xml version="1.0" encoding="UTF-8" standalone="no"?>
<!-- Created with Inkscape (http://www.inkscape.org/) -->

<svg
   xmlns:dc="http://purl.org/dc/elements/1.1/"
   xmlns:cc="http://creativecommons.org/ns#"
   xmlns:rdf="http://www.w3.org/1999/02/22-rdf-syntax-ns#"
   xmlns:svg="http://www.w3.org/2000/svg"
   xmlns="http://www.w3.org/2000/svg"
   xmlns:sodipodi="http://sodipodi.sourceforge.net/DTD/sodipodi-0.dtd"
   xmlns:inkscape="http://www.inkscape.org/namespaces/inkscape"
   width="512"
   height="512"
   viewBox="0 0 512.00001 512.00001"
   id="svg5470"
   version="1.1"
   inkscape:version="0.91 r13725"
   sodipodi:docname="pattern223.svg">
  <defs
     id="defs5472">
    <clipPath
       clipPathUnits="userSpaceOnUse"
       id="clipPath14">
      <path
         d="m 0,0 0,2997 2991,0 L 2991,0 0,0 Z"
         id="path16"
         inkscape:connector-curvature="0" />
    </clipPath>
  </defs>
  <sodipodi:namedview
     id="base"
     pagecolor="#ffffff"
     bordercolor="#666666"
     borderopacity="1.0"
     inkscape:pageopacity="0.0"
     inkscape:pageshadow="2"
     inkscape:zoom="1.5156389"
     inkscape:cx="215.88252"
     inkscape:cy="329.31219"
     inkscape:document-units="px"
     inkscape:current-layer="layer1"
     showgrid="true"
     units="px"
     inkscape:snap-bbox="true"
     inkscape:bbox-paths="false"
     inkscape:snap-nodes="false"
     inkscape:snap-bbox-edge-midpoints="false"
     inkscape:bbox-nodes="true"
     inkscape:snap-bbox-midpoints="false"
     inkscape:object-paths="false"
     inkscape:object-nodes="true"
     inkscape:window-width="1600"
     inkscape:window-height="1697"
     inkscape:window-x="0"
     inkscape:window-y="0"
     inkscape:window-maximized="1"
     showguides="false">
    <inkscape:grid
       type="xygrid"
       id="grid6182"
       empspacing="4"
       spacingx="16"
       spacingy="16" />
  </sodipodi:namedview>
  <metadata
     id="metadata5475">
    <rdf:RDF>
      <cc:Work
         rdf:about="">
        <dc:format>image/svg+xml</dc:format>
        <dc:type
           rdf:resource="http://purl.org/dc/dcmitype/StillImage" />
        <dc:title />
      </cc:Work>
    </rdf:RDF>
  </metadata>
  <g
     inkscape:label="Layer 1"
     inkscape:groupmode="layer"
     id="layer1"
     transform="translate(0,-540.36216)">
    <rect
       style="opacity:1;fill:#000000;fill-opacity:1;stroke:none;stroke-width:4;stroke-linecap:butt;stroke-linejoin:miter;stroke-miterlimit:4;stroke-dasharray:none;stroke-dashoffset:0;stroke-opacity:1"
       id="rect6184"
       width="512"
       height="511.99997"
       x="1.9401147e-14"
       y="540.36218" />
    <path
       d="m 511.99999,910.82277 c -17.75928,-1.58417 -32.20395,-8.98895 -42.20996,-24.078 -6.03616,-9.10274 -8.44997,-19.12407 -7.60948,-30.01666 0.30094,-3.8951 0.0481,-7.8312 0.0481,-12.11238 -24.77491,5.03458 -44.13847,-2.75732 -57.34674,-23.24757 -10.45003,-16.21248 -10.44935,-33.79849 6.9e-4,-50.01268 13.20758,-20.49025 32.57114,-28.28215 57.56003,-23.20486 -0.69414,-15.99722 -1.37543,-31.63056 9.23639,-45.02251 10.40254,-13.13057 23.9211,-19.75223 40.32097,-21.22656 0,76.30628 0,152.61426 0,228.92122"
       style="fill:#f14f20;fill-opacity:1;fill-rule:nonzero;stroke:none"
       id="path40"
       inkscape:connector-curvature="0" />
    <path
       d="m 0,681.90155 c 17.75927,1.58366 32.20397,8.98947 42.20996,24.07784 6.03616,9.10222 8.44997,19.12355 7.60948,30.01615 -0.30094,3.90192 -0.0481,7.84827 -0.0481,12.11239 24.77559,-5.03459 44.13847,2.7573 57.34674,23.24756 10.45003,16.21248 10.45003,33.8002 0,50.01268 -13.20827,20.49025 -32.57115,28.28215 -57.56277,23.20486 0.69807,15.99893 1.37748,31.63056 -9.23432,45.0232 C 29.91837,902.72662 16.39992,909.34793 0,910.82277 0,834.51581 0,758.20783 0,681.90155"
       style="fill:#f14f20;fill-opacity:1;fill-rule:nonzero;stroke:none"
       id="path52"
       inkscape:connector-curvature="0" />
    <path
       d="m 370.46061,540.36217 c -1.58417,17.75928 -8.98895,32.20395 -24.078,42.20996 -9.10274,6.03616 -19.12407,8.44997 -30.01666,7.60948 -3.8951,-0.30094 -7.8312,-0.0481 -12.11238,-0.0481 5.03458,24.77491 -2.75732,44.13847 -23.24757,57.34674 -16.21248,10.45003 -33.79849,10.44935 -50.01268,-6.9e-4 -20.49025,-13.20758 -28.28215,-32.57114 -23.20486,-57.56003 -15.99722,0.69414 -31.63056,1.37543 -45.02251,-9.23639 -13.13057,-10.40254 -19.75223,-23.9211 -21.22656,-40.32097 76.30628,0 152.61426,0 228.92122,0"
       style="fill:#f14f20;fill-opacity:1;fill-rule:nonzero;stroke:none"
       id="path40-5"
       inkscape:connector-curvature="0" />
    <path
       d="m 141.53939,1052.3622 c 1.58366,-17.7593 8.98947,-32.204 24.07784,-42.21 9.10222,-6.0362 19.12355,-8.45 30.01615,-7.6095 3.90192,0.3009 7.84827,0.048 12.11238,0.048 -5.03459,-24.77573 2.75731,-44.13861 23.24756,-57.34688 16.21248,-10.45003 33.8002,-10.45003 50.01268,0 20.49025,13.20827 28.28215,32.57115 23.20487,57.56288 15.99892,-0.6981 31.63055,-1.3775 45.02319,9.2343 13.13041,10.4027 19.75172,23.9211 21.22655,40.3211 -76.30696,0 -152.61493,0 -228.92121,0"
       style="fill:#f14f20;fill-opacity:1;fill-rule:nonzero;stroke:none"
       id="path52-0"
       inkscape:connector-curvature="0" />
    <path
       d="m 206.10588,844.59206 c -24.59,4.92695 -43.4969,-2.65311 -56.6692,-22.30625 -11.1584,-16.64812 -10.8869,-34.44084 -0.3749,-51.4853 11.6865,-18.951 31.4698,-26.70703 57.0321,-22.79826 0,-4.83129 0.086,-9.56349 -0.015,-14.29056 -0.5786,-27.52534 22.2483,-51.23758 49.6114,-51.48871 27.483,-0.25114 50.7635,23.84891 50.1113,51.83038 -0.1044,4.49303 -0.014,8.99118 -0.014,13.9506 25.2012,-4.85692 45.0119,3.08532 57.9942,24.61255 10.1476,16.82921 9.343,34.56043 -1.9789,50.66528 -13.4153,19.07913 -32.2109,26.19793 -56.0033,21.34273 0,4.92866 -0.086,9.66086 0.015,14.38964 0.5786,27.52466 -22.2483,51.2369 -49.6114,51.48718 -27.4916,0.25164 -50.7635,-23.84055 -50.1113,-51.82885 0.1044,-4.49474 0.014,-8.99289 0.014,-14.08043"
       style="fill:#009b72;fill-opacity:1;fill-rule:nonzero;stroke:none"
       id="path64-9"
       inkscape:connector-curvature="0" />
    <path
       style="fill:#f14f20;fill-opacity:1;fill-rule:nonzero;stroke:none"
       d="m 256.00097,737.3524 c 0,0 -10.5,10.94599 -10.5,24.44726 0,13.5013 10.5,24.44532 10.5,24.44532 0,0 10.49805,-10.94402 10.49805,-24.44532 0,-13.50127 -10.49805,-24.44726 -10.49805,-24.44726 z m -41.81054,17.2832 c 0,0 0.33098,15.14892 9.89648,24.69532 9.5673,9.54811 24.74609,9.8789 24.74609,9.8789 1e-5,0 -0.33123,-15.1472 -9.89843,-24.69531 -9.5656,-9.5464 -24.74414,-9.87891 -24.74414,-9.87891 z m 83.61914,0 c 0,0 -15.17864,0.33251 -24.74414,9.87891 -9.5673,9.54811 -9.89844,24.69531 -9.89844,24.69531 0,0 15.17864,-0.3308 24.74414,-9.8789 9.5673,-9.54641 9.89844,-24.69532 9.89844,-24.69532 z m -76.44336,31.25 c -13.5283,0 -24.49414,10.47656 -24.49414,10.47656 0,0 10.96584,10.47852 24.49414,10.47852 13.5284,0 24.49609,-10.47852 24.49609,-10.47852 0,0 -10.96769,-10.47656 -24.49609,-10.47656 z m 69.26562,0 c -13.5284,0 -24.49609,10.47656 -24.49609,10.47656 0,0 10.96769,10.47852 24.49609,10.47852 13.5284,0 24.4961,-10.47852 24.4961,-10.47852 0,0 -10.9677,-10.47656 -24.4961,-10.47656 z M 248.833,803.51646 c 0,0 -15.17879,0.32885 -24.74609,9.87696 -9.5655,9.5464 -9.89648,24.69531 -9.89648,24.69531 0,0 15.17854,-0.3308 24.74414,-9.87891 9.5672,-9.5464 9.89843,-24.69336 9.89843,-24.69336 z m 14.33399,0 c 0,0 0.33114,15.14696 9.89844,24.69336 9.5655,9.54811 24.74414,9.87891 24.74414,9.87891 0,0 -0.33114,-15.14892 -9.89844,-24.69531 -9.5655,-9.54812 -24.74414,-9.87696 -24.74414,-9.87696 z m -7.16602,2.96094 c 0,0 -10.5,10.94597 -10.5,24.44726 0,13.5013 10.5,24.44727 10.5,24.44727 0,0 10.49805,-10.94597 10.49805,-24.44727 0,-13.50129 -10.49805,-24.44726 -10.49805,-24.44726 z"
       id="path74-6"
       inkscape:connector-curvature="0" />
    <path
       style="fill:#009ddc;fill-opacity:1;fill-rule:nonzero;stroke:none"
       d="M 128 304 C 112 336 112 336 80 336 C 80 368 79.999999 368 48 384 C 79.999999 400 80 400 80 432 C 112 432 112 431.99996 128 464 C 144 431.99996 144 432 176 432 C 176 400 176 400 208 384 C 176 368 176 368 176 336 C 144 336 144 336 128 304 z M 128 328 C 134 348 134 348 144 360 C 134 366 134 366 128 380 C 122 366 122 366 112 360 C 122 348 122 348 128 328 z M 104 368 C 110 378 110 378 124 384 C 110 390 110 390 104 400 C 91.999996 390 92 390 72 384 C 92 378 91.999996 378 104 368 z M 152 368 C 164 378 164 378 184 384 C 164 390 164 390 152 400 C 146 390 146 390 132 384 C 146 378 146 378 152 368 z M 128 388 C 134 402 134 402 144 408 C 134 420 134 420 128 440 C 122 420 122 420 112 408 C 122 402 122 402 128 388 z "
       transform="translate(0,540.36216)"
       id="path66-7" />
    <path
       inkscape:connector-curvature="0"
       style="fill:#009ddc;fill-opacity:1;fill-rule:nonzero;stroke:none"
       d="m 383.99999,844.36214 c -16,32 -16,32 -48,32 0,32 0,32 -32,48 32,16 32,16 32,48 32,0 32,-4e-5 48,32.00006 16,-32.0001 16,-32.00006 48,-32.00006 0,-32 0,-32 32,-48 -32,-16 -32,-16 -32,-48 -32,0 -32,0 -48,-32 z m 0,24 c 6,20 6,20 16,32 -10,6 -10,6 -16,20 -6,-14 -6,-14 -16,-20 10,-12 10,-12 16,-32 z m -24,40 c 6,10 6,10 20,16 -14,6 -14,6 -20,16 -12,-10 -12,-10 -32,-16 20,-6 20,-6 32,-16 z m 48,0 c 12,10 12,10 32,16 -20,6 -20,6 -32,16 -6,-10 -6,-10 -20,-16 14,-6 14,-6 20,-16 z m -24,20 c 6,14 6,14 16,20 -10,12 -10,12 -16,32 -6,-20 -6,-20 -16,-32 10,-6 10,-6 16,-20 z"
       id="path66-7-9" />
    <path
       inkscape:connector-curvature="0"
       style="fill:#009ddc;fill-opacity:1;fill-rule:nonzero;stroke:none"
       d="m 383.99999,588.36214 c -16,32 -16,32 -48,32 0,32 0,32 -32,48 32,16 32,16 32,48 32,0 32,-4e-5 48,32.00006 16,-32.0001 16,-32.00006 48,-32.00006 0,-32 0,-32 32,-48 -32,-16 -32,-16 -32,-48 -32,0 -32,0 -48,-32 z m 0,24 c 6,20 6,20 16,32 -10,6 -10,6 -16,20 -6,-14 -6,-14 -16,-20 10,-12 10,-12 16,-32 z m -24,40 c 6,10 6,10 20,16 -14,6 -14,6 -20,16 -12,-10 -12,-10 -32,-16 20,-6 20,-6 32,-16 z m 48,0 c 12,10 12,10 32,16 -20,6 -20,6 -32,16 -6,-10 -6,-10 -20,-16 14,-6 14,-6 20,-16 z m -24,20 c 6,14 6,14 16,20 -10,12 -10,12 -16,32 -6,-20 -6,-20 -16,-32 10,-6 10,-6 16,-20 z"
       id="path66-7-9-7" />
    <path
       inkscape:connector-curvature="0"
       style="fill:#009ddc;fill-opacity:1;fill-rule:nonzero;stroke:none"
       d="m 128,588.36214 c -16,32 -16,32 -48.000003,32 0,32 0,32 -32,48 32,16 32,16 32,48 C 112,716.36214 112,716.3621 128,748.3622 c 16,-32.0001 16,-32.00006 48,-32.00006 0,-32 0,-32 32,-48 -32,-16 -32,-16 -32,-48 -32,0 -32,0 -48,-32 z m 0,24 c 6,20 6,20 16,32 -10,6 -10,6 -16,20 -6,-14 -6,-14 -16,-20 10,-12 10,-12 16,-32 z m -24,40 c 6,10 6,10 20,16 -14,6 -14,6 -20,16 -12.000003,-10 -12.000003,-10 -32.000003,-16 20,-6 20,-6 32.000003,-16 z m 48,0 c 12,10 12,10 32,16 -20,6 -20,6 -32,16 -6,-10 -6,-10 -20,-16 14,-6 14,-6 20,-16 z m -24,20 c 6,14 6,14 16,20 -10,12 -10,12 -16,32 -6,-20 -6,-20 -16,-32 10,-6 10,-6 16,-20 z"
       id="path66-7-9-7-5" />
    <path
       style="fill:#000000;fill-opacity:1;fill-rule:nonzero;stroke:none"
       d="m 256.0039,734.37682 -1.48242,1.63672 c -7.54423,8.47875 -12.85559,20.20116 -10.4082,31.70507 -6.86771,-10.51382 -19.96945,-14.92626 -32.02735,-15.1875 0.25624,12.04722 4.69361,25.12343 15.20508,31.96679 -12.2857,-2.58441 -24.67676,3.53283 -33.39844,11.86328 8.71188,8.3457 21.10848,14.45396 33.39453,11.87697 -10.50642,6.83929 -14.94214,19.91261 -15.20117,31.95311 12.06054,-0.23859 25.15638,-4.66943 32.02735,-15.17578 -2.58634,12.26992 3.54339,24.64868 11.89062,33.33203 8.3491,-8.68357 14.47624,-21.0614 11.89062,-33.33203 6.86798,10.50325 19.96153,14.93476 32.01758,15.17578 -0.23761,-12.0432 -4.69108,-25.11278 -15.19336,-31.95311 12.28151,2.57407 24.68569,-3.52521 33.38868,-11.87697 -8.71515,-8.33746 -21.10943,-14.44534 -33.39258,-11.86328 10.50556,-6.84314 14.96294,-19.91903 15.19726,-31.96679 -12.05574,0.2644 -25.15175,4.67546 -32.01758,15.1875 2.58822,-12.2745 -3.54743,-24.65047 -11.89062,-33.34179 z m 0,2.9785 c 0,0 10.49805,10.94601 10.49805,24.44727 0,13.5013 -10.49805,24.44531 -10.49805,24.44531 0,0 -10.5,-10.94401 -10.5,-24.44531 0,-13.50126 10.5,-24.44727 10.5,-24.44727 z m -41.81055,17.28322 c 0,0 15.17854,0.3325 24.74414,9.87889 9.5672,9.54811 9.89845,24.69533 9.89844,24.69533 0,0 -15.17879,-0.3308 -24.74609,-9.87892 -9.5655,-9.5464 -9.89649,-24.6953 -9.89649,-24.6953 z m 83.61914,0 c 0,0 -0.33113,15.14889 -9.89843,24.6953 -9.5655,9.5481 -24.74414,9.87892 -24.74414,9.87892 0,0 0.33113,-15.14722 9.89843,-24.69533 9.5655,-9.54639 24.74414,-9.87889 24.74414,-9.87889 z m -47.76562,27.10155 c 1.72411,2.68946 3.75081,5.17309 5.95703,7.48048 2.15556,-1.77393 5.40527,-7.04106 6.14453,-7.3711 -0.68507,3.10763 -1.00343,6.28439 -1.08594,9.46289 2.78761,0.27007 8.75403,-1.14341 9.57422,-0.87891 -2.68918,1.71375 -5.165,3.73941 -7.48047,5.92773 1.77834,2.15039 7.01967,5.37516 7.38868,6.13283 -3.11481,-0.68128 -6.29756,-0.99987 -9.48243,-1.08204 -0.26303,2.77085 1.17248,8.80708 0.88086,9.54882 -1.7203,-2.68122 -3.7466,-5.15204 -5.93945,-7.45897 -2.15017,1.7846 -5.39506,7.03044 -6.14453,7.3828 0.68381,-3.11071 1.01012,-6.29029 1.07617,-9.47265 -2.78421,-0.25234 -8.74484,1.15219 -9.5625,0.88671 2.68357,-1.7201 5.16943,-3.73225 7.46875,-5.9375 -1.78094,-2.14596 -7.02088,-5.37453 -7.38477,-6.12303 3.11366,0.67832 6.29428,1.00852 9.47852,1.07421 0.0969,-2.99646 -0.80592,-7.52033 -0.88867,-9.57227 z m -28.67774,4.14845 c 13.5284,0 24.4961,10.47655 24.4961,10.47655 0,0 -10.9677,10.47852 -24.4961,10.47852 -13.5283,0 -24.49414,-10.47852 -24.49414,-10.47852 0,0 10.96584,-10.47655 24.49414,-10.47655 z m 69.26563,0 c 13.5284,0 24.49609,10.47655 24.49609,10.47655 0,0 -10.96769,10.47852 -24.49609,10.47852 -13.5284,0 -24.49609,-10.47852 -24.49609,-10.47852 0,0 10.96769,-10.47655 24.49609,-10.47655 z m -41.79883,17.63086 c 0,0 -0.33124,15.14696 -9.89844,24.69336 -9.5656,9.5481 -24.74414,9.87889 -24.74414,9.87889 0,0 0.33099,-15.1489 9.89649,-24.69531 9.5673,-9.54811 24.74609,-9.87694 24.74609,-9.87694 z m 14.33399,0 c 0,0 15.17864,0.32882 24.74414,9.87694 9.5673,9.54639 9.89843,24.69531 9.89843,24.69531 0,0 -15.17864,-0.33079 -24.74414,-9.87889 -9.5673,-9.5464 -9.89843,-24.69336 -9.89843,-24.69336 z m -7.16602,2.96092 c 0,0 10.49805,10.94598 10.49805,24.44727 0,13.50135 -10.49805,24.44727 -10.49805,24.44727 0,0 -10.5,-10.94592 -10.5,-24.44727 0,-13.50129 10.5,-24.44727 10.5,-24.44727 z"
       id="path74-6-7"
       inkscape:connector-curvature="0" />
    <path
       style="opacity:1;fill:#f7f4f3;fill-opacity:1;stroke:none;stroke-width:4;stroke-linecap:butt;stroke-linejoin:miter;stroke-miterlimit:4;stroke-dasharray:none;stroke-dashoffset:0;stroke-opacity:1"
       d="m 116.86133,540.36216 c -0.21724,12.83804 -6.09883,25.59193 -14.875,34.97461 -12.146765,14.22216 -32.196285,19.24646 -50.158215,15.77735 -0.13278,3.70901 -0.08054,7.70626 -0.02734,11.51953 1.1635,28.0442 -23.54467,54.32451 -51.8007799999999,53.86523 l 0,11.86328 0,11.86329 C 28.256105,679.76617 52.964275,706.04649 51.800775,734.09068 c -0.0532,3.81327 -0.10546,7.81052 0.02734,11.51954 17.96191,-3.46911 38.01145,1.55517 50.158215,15.77734 8.77617,9.38267 14.65776,22.13657 14.875,34.9746 -0.21724,12.83804 -6.09883,25.59194 -14.875,34.97461 -12.146765,14.22217 -32.196295,19.24646 -50.158215,15.77735 -0.13278,3.709 -0.08054,7.70626 -0.02734,11.51952 1.1635,28.0442 -23.54467,54.32452 -51.8007799999999,53.86524 l 0,11.86328 0,11.86329 C 28.256105,935.76617 52.964275,962.04649 51.800775,990.09068 c -0.0532,3.81327 -0.10543,7.81053 0.02734,11.51952 17.96191,-3.46908 38.01145,1.5552 50.158215,15.7774 8.77617,9.3826 14.65776,22.1365 14.875,34.9746 l 11.13867,0 11.13867,0 c 0.21724,-12.8381 6.09883,-25.592 14.875,-34.9746 12.14676,-14.2222 32.19629,-19.24648 50.15821,-15.7774 0.1325,-3.70899 0.0803,-7.70625 0.0273,-11.51952 -1.1635,-28.04419 23.54468,-54.32451 51.80078,-53.86523 28.25611,-0.45928 52.96428,25.82104 51.80078,53.86523 -0.0532,3.81327 -0.10547,7.81053 0.0273,11.51952 17.96191,-3.46908 38.01145,1.5552 50.15821,15.7774 8.77617,9.3826 14.65776,22.1365 14.875,34.9746 l 11.13867,0 11.13867,0 c 0.2172,-12.8381 6.0988,-25.592 14.875,-34.9746 12.1467,-14.2222 32.19633,-19.24648 50.15823,-15.7774 0.1325,-3.70899 0.0803,-7.70625 0.0273,-11.51952 -1.1635,-28.04419 23.5447,-54.32451 51.8008,-53.86523 l 0,-11.86329 0,-11.86328 c -28.2561,0.45928 -52.9643,-25.82104 -51.8008,-53.86524 0.053,-3.81326 0.1046,-7.81052 -0.0273,-11.51952 -17.9622,3.46911 -38.01153,-1.55518 -50.15823,-15.77735 -8.7762,-9.38267 -14.6578,-22.13657 -14.875,-34.97461 0.21724,-12.83803 6.09883,-25.59193 14.875,-34.9746 12.14676,-14.22217 32.19633,-19.24645 50.15823,-15.77734 0.1325,-3.70902 0.0803,-7.70627 0.0273,-11.51954 -1.1635,-28.04419 23.5447,-54.32451 51.8008,-53.86523 l 0,-11.86329 0,-11.86328 c -28.2561,0.45928 -52.9643,-25.82103 -51.8008,-53.86523 0.053,-3.81327 0.1049,-7.81052 -0.0273,-11.51953 -17.9619,3.46911 -38.01147,-1.55519 -50.15823,-15.77735 -8.77617,-9.38268 -14.65776,-22.13657 -14.875,-34.97461 l -11.13867,0 -11.13867,0 c -0.21724,12.83804 -6.09883,25.59193 -14.875,34.97461 -12.14676,14.22216 -32.19628,19.24646 -50.15821,15.77735 -0.13278,3.70901 -0.0805,7.70626 -0.0273,11.51953 1.1635,28.0442 -23.54467,54.32451 -51.80078,53.86523 -28.2561,0.45928 -52.96428,-25.82103 -51.80078,-53.86523 0.053,-3.81327 0.10455,-7.81052 -0.0273,-11.51953 -17.96222,3.46911 -38.01145,-1.55519 -50.15821,-15.77735 -8.77617,-9.38268 -14.65776,-22.13657 -14.875,-34.97461 l -11.13867,0 -11.13867,0 z M 128,583.89927 c 6.14338,10.4338 9.5415,23.57336 19.59961,31.11133 9.28985,4.87234 20.33649,2.76596 30.39844,3.35352 0.897,11.5589 -2.74503,26.14344 7.13867,34.71874 8.2449,6.48329 18.12617,10.39299 27.32617,15.2793 -9.2,4.88633 -19.08127,8.79602 -27.32617,15.27931 -9.8837,8.57529 -6.24167,23.15985 -7.13867,34.71875 -10.06198,0.58755 -21.10859,-1.51884 -30.39844,3.35351 -10.05811,7.53797 -13.45623,20.67752 -19.59961,31.11133 -6.14338,-10.43381 -9.5415,-23.57336 -19.59961,-31.11133 -9.289855,-4.87235 -20.336385,-2.76596 -30.398445,-3.35351 -0.89693,-11.5589 2.74504,-26.14346 -7.13867,-34.71875 -8.24491,-6.48329 -18.12618,-10.39298 -27.32617,-15.27931 9.19999,-4.88631 19.08126,-8.79601 27.32617,-15.2793 9.88371,-8.5753 6.24174,-23.15984 7.13867,-34.71874 10.06206,-0.58756 21.10859,1.51882 30.398445,-3.35352 C 118.4585,607.47263 121.85662,594.33307 128,583.89927 Z m 256,0 c 6.14338,10.4338 9.5415,23.57336 19.59961,31.11133 9.28985,4.87234 20.33654,2.76596 30.39839,3.35352 0.897,11.5589 -2.745,26.14344 7.1387,34.71874 8.2449,6.48329 18.1262,10.39299 27.3262,15.2793 -9.2,4.88633 -19.0813,8.79602 -27.3262,15.27931 -9.8837,8.57529 -6.2417,23.15985 -7.1387,34.71875 -10.06188,0.58755 -21.10854,-1.51884 -30.39839,3.35351 -10.05811,7.53797 -13.45623,20.67752 -19.59961,31.11133 -6.14338,-10.43381 -9.5415,-23.57336 -19.59961,-31.11133 -9.28985,-4.87235 -20.33638,-2.76596 -30.39844,-3.35351 -0.89693,-11.5589 2.74504,-26.14346 -7.13867,-34.71875 -8.24491,-6.48329 -18.12618,-10.39298 -27.32617,-15.27931 9.19999,-4.88631 19.08126,-8.79601 27.32617,-15.2793 9.88371,-8.5753 6.24174,-23.15984 7.13867,-34.71874 10.06206,-0.58756 21.10859,1.51882 30.39844,-3.35352 C 374.4585,607.47263 377.85662,594.33307 384,583.89927 Z m -256,35.38086 c -2.28797,9.11473 -6.4323,17.73218 -12.97266,24.57032 6.25863,2.97521 10.55375,8.64745 12.8086,15.08593 l 0.16406,0.38086 0.16406,-0.38086 c 2.25485,-6.43848 6.54997,-12.11072 12.8086,-15.08593 C 134.4323,637.01231 130.28797,628.39486 128,619.28013 Z m 256,0 c -2.28797,9.11473 -6.4323,17.73218 -12.97266,24.57032 6.25863,2.97521 10.55375,8.64745 12.8086,15.08593 l 0.16406,0.38086 0.16406,-0.38086 c 2.25485,-6.43848 6.54997,-12.11072 12.8086,-15.08593 C 390.4323,637.01231 386.28797,628.39486 384,619.28013 Z M 103.48828,655.3895 c -6.835955,6.54317 -15.456385,10.68513 -24.570315,12.97266 9.11393,2.28754 17.73436,6.4295 24.570315,12.97267 3.02641,-6.40463 8.89946,-10.69222 15.4668,-12.97267 -6.56734,-2.28044 -12.44039,-6.56803 -15.4668,-12.97266 z m 49.02344,0 c -3.02641,6.40463 -8.89946,10.69222 -15.4668,12.97266 6.56734,2.28045 12.44039,6.56804 15.4668,12.97267 6.83595,-6.54317 15.45642,-10.68513 24.57031,-12.97267 -9.11388,-2.28753 -17.73436,-6.42949 -24.57031,-12.97266 z m 206.97656,0 c -6.83595,6.54317 -15.45638,10.68513 -24.57031,12.97266 9.11393,2.28754 17.73436,6.4295 24.57031,12.97267 3.02641,-6.40463 8.89946,-10.69222 15.4668,-12.97267 -6.56734,-2.28044 -12.44039,-6.56803 -15.4668,-12.97266 z m 49.02344,0 c -3.02641,6.40463 -8.89946,10.69222 -15.4668,12.97266 6.56734,2.28045 12.44039,6.56804 15.4668,12.97267 6.83595,-6.54317 15.45645,-10.68513 24.57028,-12.97267 -9.11382,-2.28753 -17.73433,-6.42949 -24.57028,-12.97266 z M 128,677.40709 l -0.16406,0.38086 c -2.25485,6.43848 -6.54997,12.11071 -12.8086,15.08593 6.54036,6.83815 10.68469,15.45559 12.97266,24.57032 2.28797,-9.11473 6.4323,-17.73217 12.97266,-24.57032 -6.25863,-2.97522 -10.55375,-8.64745 -12.8086,-15.08593 L 128,677.40709 Z m 256,0 -0.16406,0.38086 c -2.25485,6.43848 -6.54997,12.11071 -12.8086,15.08593 6.54036,6.83815 10.68469,15.45559 12.97266,24.57032 2.28797,-9.11473 6.4323,-17.73217 12.97266,-24.57032 -6.25863,-2.97522 -10.55375,-8.64745 -12.8086,-15.08593 L 384,677.40709 Z m -128,2.81836 c 28.25611,-0.45928 52.96428,25.82104 51.80078,53.86523 -0.0532,3.81327 -0.10552,7.81052 0.0273,11.51954 17.96191,-3.46911 38.01145,1.55517 50.15821,15.77734 8.77617,9.38267 14.65776,22.13657 14.875,34.9746 -0.21724,12.83804 -6.09883,25.59194 -14.875,34.97461 -12.14676,14.22217 -32.19628,19.24646 -50.15821,15.77735 -0.13278,3.709 -0.0805,7.70626 -0.0273,11.51952 1.1635,28.0442 -23.54467,54.32452 -51.80078,53.86524 -28.2561,0.45928 -52.96428,-25.82104 -51.80078,-53.86524 0.053,-3.81326 0.10451,-7.81052 -0.0273,-11.51952 -17.96222,3.46911 -38.01145,-1.55518 -50.15821,-15.77735 -8.77625,-9.38267 -14.65776,-22.13657 -14.875,-34.97461 0.21724,-12.83803 6.09883,-25.59193 14.875,-34.9746 12.14676,-14.22217 32.19629,-19.24645 50.15821,-15.77734 0.1325,-3.70902 0.0803,-7.70627 0.0273,-11.51954 C 203.03572,706.04649 227.7439,679.76617 256,680.22545 Z M 128,839.89927 c 6.14338,10.4338 9.5415,23.57337 19.59961,31.11133 9.28985,4.87235 20.33649,2.76596 30.39844,3.35352 0.897,11.5589 -2.74503,26.14344 7.13867,34.71875 8.2449,6.48328 18.12617,10.39297 27.32617,15.27929 -9.2,4.88633 -19.08127,8.79602 -27.32617,15.2793 -9.8837,8.5753 -6.24167,23.15985 -7.13867,34.71875 -10.06198,0.58756 -21.10859,-1.51883 -30.39844,3.35352 -10.05811,7.53796 -13.45623,20.67748 -19.59961,31.11137 -6.14338,-10.43389 -9.5415,-23.57341 -19.59961,-31.11137 -9.289855,-4.87235 -20.336385,-2.76596 -30.398445,-3.35352 -0.89693,-11.5589 2.74504,-26.14345 -7.13867,-34.71875 -8.24491,-6.48328 -18.12618,-10.39297 -27.32617,-15.2793 9.19999,-4.88632 19.08126,-8.79601 27.32617,-15.27929 9.88371,-8.57531 6.24174,-23.15985 7.13867,-34.71875 10.06206,-0.58756 21.10859,1.51883 30.398445,-3.35352 C 118.4585,863.47264 121.85662,850.33307 128,839.89927 Z m 256,0 c 6.14338,10.4338 9.54151,23.57337 19.59961,31.11133 9.2899,4.87235 20.33652,2.76596 30.39839,3.35352 0.897,11.5589 -2.745,26.14344 7.1387,34.71875 8.2449,6.48328 18.1262,10.39297 27.3262,15.27929 -9.2,4.88633 -19.0813,8.79602 -27.3262,15.2793 -9.8837,8.5753 -6.2417,23.15985 -7.1387,34.71875 -10.06187,0.58756 -21.10849,-1.51883 -30.39839,3.35352 -10.0581,7.53796 -13.45623,20.67748 -19.59961,31.11137 -6.14338,-10.43389 -9.5415,-23.57341 -19.59961,-31.11137 -9.28985,-4.87235 -20.33638,-2.76596 -30.39844,-3.35352 -0.89693,-11.5589 2.74504,-26.14345 -7.13867,-34.71875 -8.24491,-6.48328 -18.12618,-10.39297 -27.32617,-15.2793 9.19999,-4.88632 19.08126,-8.79601 27.32617,-15.27929 9.88371,-8.57531 6.24174,-23.15985 7.13867,-34.71875 10.06206,-0.58756 21.10859,1.51883 30.39844,-3.35352 C 374.4585,863.47264 377.85662,850.33307 384,839.89927 Z m -256,35.38086 c -2.28797,9.11473 -6.4323,17.73217 -12.97266,24.57032 6.25863,2.97522 10.55375,8.64745 12.8086,15.08593 l 0.16406,0.38086 0.16406,-0.38086 c 2.25485,-6.43848 6.54997,-12.11071 12.8086,-15.08593 C 134.4323,893.0123 130.28797,884.39486 128,875.28013 Z m 256,0 c -2.28797,9.11473 -6.4323,17.73217 -12.97266,24.57032 6.25863,2.97522 10.55375,8.64745 12.8086,15.08593 l 0.16406,0.38086 0.16406,-0.38086 c 2.25485,-6.43848 6.54993,-12.11071 12.8086,-15.08593 C 390.43226,893.0123 386.28797,884.39486 384,875.28013 Z M 103.48828,911.3895 c -6.835955,6.54317 -15.456385,10.68513 -24.570315,12.97266 9.11393,2.28754 17.73436,6.4295 24.570315,12.97267 3.02641,-6.40463 8.89946,-10.69222 15.4668,-12.97267 -6.56734,-2.28044 -12.44039,-6.56803 -15.4668,-12.97266 z m 49.02344,0 c -3.02641,6.40463 -8.89946,10.69222 -15.4668,12.97266 6.56734,2.28045 12.44039,6.56804 15.4668,12.97267 6.83595,-6.54317 15.45642,-10.68513 24.57031,-12.97267 -9.11388,-2.28753 -17.73436,-6.42949 -24.57031,-12.97266 z m 206.97656,0 c -6.83595,6.54317 -15.45638,10.68513 -24.57031,12.97266 9.11393,2.28754 17.73436,6.4295 24.57031,12.97267 3.02641,-6.40463 8.89946,-10.69222 15.4668,-12.97267 -6.56734,-2.28044 -12.44039,-6.56803 -15.4668,-12.97266 z m 49.02344,0 c -3.0264,6.40463 -8.8994,10.69222 -15.4668,12.97266 6.5674,2.28045 12.4404,6.56804 15.4668,12.97267 6.836,-6.54317 15.45639,-10.68513 24.57028,-12.97267 -9.11389,-2.28753 -17.73428,-6.42949 -24.57028,-12.97266 z M 128,933.40709 l -0.16406,0.38086 c -2.25485,6.43848 -6.54997,12.11071 -12.8086,15.08593 6.54036,6.83815 10.68469,15.45559 12.97266,24.57032 2.28797,-9.11473 6.4323,-17.73217 12.97266,-24.57032 -6.25863,-2.97522 -10.55375,-8.64745 -12.8086,-15.08593 L 128,933.40709 Z m 256,0 -0.16406,0.38086 c -2.25485,6.43848 -6.54997,12.11071 -12.8086,15.08593 6.54036,6.83815 10.68469,15.45559 12.97266,24.57032 2.28797,-9.11473 6.43226,-17.73217 12.97266,-24.57032 -6.25867,-2.97522 -10.55375,-8.64745 -12.8086,-15.08593 L 384,933.40709 Z"
       id="rect6184-48"
       inkscape:connector-curvature="0" />
    <path
       inkscape:connector-curvature="0"
       style="fill:#009b72;fill-opacity:1;fill-rule:nonzero;stroke:none"
       d="m 511.75781,937.58286 c -27.36311,0.25113 -50.18993,23.96294 -49.61133,51.48828 0.101,4.72707 0.0156,9.45975 0.0156,14.29106 -25.5623,-3.90879 -45.3467,3.8458 -57.0332,22.7968 -5.31885,8.6241 -8.01226,17.4411 -7.9336,26.2032 l 114.80472,0 0,-114.77543 c -0.0811,3.2e-4 -0.16102,-0.005 -0.24219,-0.004 z"
       id="path64-9-3" />
    <path
       inkscape:connector-curvature="0"
       style="fill:#f14f20;fill-opacity:1;fill-rule:nonzero;stroke:none"
       d="m 512,993.35239 c 0,0 -10.5,10.94601 -10.5,24.44731 0,13.5013 10.5,24.4453 10.5,24.4453 l 0,-48.89261 z m -41.81055,17.28321 c 0,0 0.33099,15.1489 9.89649,24.6953 9.5673,9.5481 24.74609,9.8789 24.74609,9.8789 1e-5,0 -0.33123,-15.1472 -9.89844,-24.6953 -9.5656,-9.5464 -24.74414,-9.8789 -24.74414,-9.8789 z m 7.17578,31.25 c -13.5283,0 -24.49414,10.4766 -24.49414,10.4766 l 48.99024,0 c 0,0 -10.9677,-10.4766 -24.4961,-10.4766 z"
       id="path74-6-8" />
    <path
       inkscape:connector-curvature="0"
       style="fill:#000000;fill-opacity:1;fill-rule:nonzero;stroke:none"
       d="m 512,990.38169 -1.47852,1.63281 c -7.54423,8.4788 -12.85559,20.1992 -10.4082,31.7031 -6.86771,-10.5138 -19.96944,-14.9263 -32.02734,-15.1875 0.25624,12.0472 4.69361,25.1234 15.20508,31.9668 -12.2857,-2.5844 -24.67676,3.5348 -33.39844,11.8653 l 2.98633,0 c 0.0225,-0.022 10.97581,-10.4746 24.49023,-10.4746 13.51452,0 24.46971,10.4531 24.49219,10.4746 l 2.98047,0 c -1.78094,-2.146 -7.02088,-5.3765 -7.38477,-6.125 3.11366,0.6784 6.29428,1.0104 9.47852,1.0761 0.0969,-2.9965 -0.80593,-7.5203 -0.88867,-9.5722 1.72311,2.6878 3.74838,5.1702 5.95312,7.4765 l 0,-2.9746 c -0.0216,-0.023 -10.49609,-10.952 -10.49609,-24.4394 0,-13.4875 10.47458,-24.42291 10.49609,-24.44535 l 0,-2.97656 z m -41.80664,20.25581 c 0,0 15.17854,0.3326 24.74414,9.879 9.5672,9.5481 9.89845,24.6972 9.89844,24.6972 0,0 -15.1788,-0.3326 -24.7461,-9.8808 -9.5655,-9.5464 -9.89648,-24.6954 -9.89648,-24.6954 z"
       id="path74-6-7-5" />
    <path
       style="fill:#009b72;fill-opacity:1;fill-rule:nonzero;stroke:none"
       d="m 511.7578,655.1414 c -27.36311,-0.25113 -50.18993,-23.96294 -49.61133,-51.48828 0.101,-4.72707 0.0156,-9.45975 0.0156,-14.29102 -25.5623,3.90875 -45.3467,-3.84587 -57.0332,-22.79688 -5.31885,-8.6241 -8.01226,-17.44104 -7.9336,-26.20312 l 114.80472,0 0,114.77539 c -0.0811,-3.2e-4 -0.16102,0.005 -0.24219,0.004 z"
       id="path64-9-3-6"
       inkscape:connector-curvature="0" />
    <path
       style="fill:#f14f20;fill-opacity:1;fill-rule:nonzero;stroke:none"
       d="m 511.99999,599.37187 c 0,0 -10.5,-10.94597 -10.5,-24.44727 0,-13.5013 10.5,-24.44531 10.5,-24.44531 l 0,48.89258 z m -41.81055,-17.28321 c 0,0 0.33099,-15.14891 9.89649,-24.69531 9.5673,-9.5481 24.74609,-9.87891 24.74609,-9.87891 10e-6,0 -0.33123,15.14722 -9.89844,24.69532 -9.5656,9.5464 -24.74414,9.8789 -24.74414,9.8789 z m 7.17578,-31.25 c -13.5283,0 -24.49414,-10.47656 -24.49414,-10.47656 l 48.99024,0 c 0,0 -10.9677,10.47656 -24.4961,10.47656 z"
       id="path74-6-8-2"
       inkscape:connector-curvature="0" />
    <path
       style="fill:#000000;fill-opacity:1;fill-rule:nonzero;stroke:none"
       d="m 511.99999,602.34257 -1.47852,-1.63281 c -7.54423,-8.47876 -12.85559,-20.19923 -10.4082,-31.70313 -6.86771,10.5138 -19.96944,14.9263 -32.02734,15.1875 0.25624,-12.0472 4.69361,-25.1234 15.20508,-31.9668 -12.2857,2.5844 -24.67676,-3.53473 -33.39844,-11.86523 l 2.98633,0 c 0.0225,0.0215 10.97581,10.47461 24.49023,10.47461 13.51452,0 24.46971,-10.45315 24.49219,-10.47461 l 2.98047,0 c -1.78094,2.146 -7.02088,5.3765 -7.38477,6.125 3.11366,-0.6784 6.29428,-1.01047 9.47852,-1.07617 0.0969,2.9965 -0.80593,7.52036 -0.88867,9.57226 1.72311,-2.68785 3.74838,-5.17028 5.95312,-7.47656 l 0,2.97461 c -0.0216,0.0225 -10.49609,10.95204 -10.49609,24.43945 0,13.48745 10.47458,24.42288 10.49609,24.44532 l 0,2.97656 z m -41.80664,-20.25586 c 0,0 15.17854,-0.33251 24.74414,-9.87891 9.5672,-9.5481 9.89845,-24.69726 9.89844,-24.69726 0,0 -15.1788,0.33266 -24.7461,9.88086 -9.5655,9.5464 -9.89648,24.69531 -9.89648,24.69531 z"
       id="path74-6-7-5-8"
       inkscape:connector-curvature="0" />
    <path
       style="fill:#009b72;fill-opacity:1;fill-rule:nonzero;stroke:none"
       d="m 0.24219,937.58285 c 27.36311,0.25113 50.18993,23.96294 49.61133,51.48828 -0.101,4.72707 -0.0156,9.45975 -0.0156,14.29107 25.5623,-3.9088 45.3467,3.8458 57.0332,22.7968 5.31885,8.6241 8.01226,17.4411 7.9336,26.2032 L 0,1052.3622 0,937.58676 c 0.0811,3.2e-4 0.16102,-0.005 0.24219,-0.004 z"
       id="path64-9-3-7"
       inkscape:connector-curvature="0" />
    <path
       style="fill:#f14f20;fill-opacity:1;fill-rule:nonzero;stroke:none"
       d="m 0,993.35238 c 0,0 10.5,10.94602 10.5,24.44732 0,13.5013 -10.5,24.4453 -10.5,24.4453 l 0,-48.89262 z m 41.81055,17.28322 c 0,0 -0.33099,15.1489 -9.89649,24.6953 -9.5673,9.5481 -24.74609,9.8789 -24.74609,9.8789 -1e-5,0 0.33123,-15.1472 9.89844,-24.6953 9.5656,-9.5464 24.74414,-9.8789 24.74414,-9.8789 z m -7.17578,31.25 c 13.5283,0 24.49414,10.4766 24.49414,10.4766 l -48.99024,0 c 0,0 10.9677,-10.4766 24.4961,-10.4766 z"
       id="path74-6-8-24"
       inkscape:connector-curvature="0" />
    <path
       style="fill:#000000;fill-opacity:1;fill-rule:nonzero;stroke:none"
       d="m 0,990.38168 1.47852,1.63281 c 7.54423,8.47871 12.85559,20.19921 10.4082,31.70311 6.86771,-10.5138 19.96944,-14.9263 32.02734,-15.1875 -0.25624,12.0472 -4.69361,25.1234 -15.20508,31.9668 12.2857,-2.5844 24.67676,3.5348 33.39844,11.8653 l -2.98633,0 c -0.0225,-0.022 -10.97581,-10.4747 -24.49023,-10.4747 -13.51452,0 -24.46971,10.4532 -24.49219,10.4747 l -2.98047,0 c 1.78094,-2.146 7.02088,-5.3765 7.38477,-6.125 -3.11366,0.6784 -6.29428,1.0104 -9.47852,1.0761 -0.0969,-2.9965 0.80593,-7.5203 0.88867,-9.5722 -1.72311,2.6878 -3.74838,5.1702 -5.95312,7.4765 l 0,-2.9746 c 0.0216,-0.023 10.49609,-10.952 10.49609,-24.4394 0,-13.4875 -10.47458,-24.42292 -10.49609,-24.44536 l 0,-2.97656 z m 41.80664,20.25582 c 0,0 -15.17854,0.3326 -24.74414,9.879 -9.5672,9.5481 -9.89845,24.6972 -9.89844,24.6972 0,0 15.1788,-0.3326 24.7461,-9.8808 9.5655,-9.5464 9.89648,-24.6954 9.89648,-24.6954 z"
       id="path74-6-7-5-0"
       inkscape:connector-curvature="0" />
    <path
       style="fill:#009b72;fill-opacity:1;fill-rule:nonzero;stroke:none"
       d="m 0.24219,655.1414 c 27.36311,-0.25113 50.18993,-23.96294 49.61133,-51.48828 -0.101,-4.72707 -0.0156,-9.45975 -0.0156,-14.29102 25.5623,3.90875 45.3467,-3.84587 57.0332,-22.79688 5.31885,-8.6241 8.01226,-17.44104 7.9336,-26.20312 L 0,540.3621 0,655.13749 c 0.0811,-3.2e-4 0.16102,0.005 0.24219,0.004 z"
       id="path64-9-3-6-2"
       inkscape:connector-curvature="0" />
    <path
       style="fill:#f14f20;fill-opacity:1;fill-rule:nonzero;stroke:none"
       d="m 0,599.37187 c 0,0 10.5,-10.94597 10.5,-24.44727 C 10.5,561.4233 0,550.47929 0,550.47929 l 0,48.89258 z m 41.81055,-17.28321 c 0,0 -0.33099,-15.14891 -9.89649,-24.69531 -9.5673,-9.5481 -24.74609,-9.87891 -24.74609,-9.87891 -1e-5,0 0.33123,15.14722 9.89844,24.69532 9.5656,9.5464 24.74414,9.8789 24.74414,9.8789 z m -7.17578,-31.25 c 13.5283,0 24.49414,-10.47656 24.49414,-10.47656 l -48.99024,0 c 0,0 10.9677,10.47656 24.4961,10.47656 z"
       id="path74-6-8-2-9"
       inkscape:connector-curvature="0" />
    <path
       style="fill:#000000;fill-opacity:1;fill-rule:nonzero;stroke:none"
       d="m 0,602.34257 1.47852,-1.63281 c 7.54423,-8.47876 12.85559,-20.19923 10.4082,-31.70313 6.86771,10.5138 19.96944,14.9263 32.02734,15.1875 -0.25624,-12.0472 -4.69361,-25.1234 -15.20508,-31.9668 12.2857,2.5844 24.67676,-3.53473 33.39844,-11.86523 l -2.98633,0 c -0.0225,0.0215 -10.97581,10.47461 -24.49023,10.47461 -13.51452,0 -24.46971,-10.45315 -24.49219,-10.47461 l -2.98047,0 c 1.78094,2.146 7.02088,5.3765 7.38477,6.125 -3.11366,-0.6784 -6.29428,-1.01047 -9.47852,-1.07617 -0.0969,2.9965 0.80593,7.52036 0.88867,9.57226 C 4.23001,552.29534 2.20474,549.81291 0,547.50663 l 0,2.97461 c 0.0216,0.0225 10.49609,10.95204 10.49609,24.43945 0,13.48745 -10.47458,24.42288 -10.49609,24.44532 l 0,2.97656 z m 41.80664,-20.25586 c 0,0 -15.17854,-0.33251 -24.74414,-9.87891 -9.5672,-9.5481 -9.89845,-24.69726 -9.89844,-24.69726 0,0 15.1788,0.33266 24.7461,9.88086 9.5655,9.5464 9.89648,24.69531 9.89648,24.69531 z"
       id="path74-6-7-5-8-9"
       inkscape:connector-curvature="0" />
  </g>
</svg>
