<?xml version="1.0" encoding="UTF-8" standalone="no"?>
<!-- Created with Inkscape (http://www.inkscape.org/) -->

<svg
   xmlns:dc="http://purl.org/dc/elements/1.1/"
   xmlns:cc="http://creativecommons.org/ns#"
   xmlns:rdf="http://www.w3.org/1999/02/22-rdf-syntax-ns#"
   xmlns:svg="http://www.w3.org/2000/svg"
   xmlns="http://www.w3.org/2000/svg"
   xmlns:sodipodi="http://sodipodi.sourceforge.net/DTD/sodipodi-0.dtd"
   xmlns:inkscape="http://www.inkscape.org/namespaces/inkscape"
   width="512"
   height="512"
   viewBox="0 0 512.00001 512.00001"
   id="svg5470"
   version="1.1"
   inkscape:version="0.91 r13725"
   sodipodi:docname="pattern223.svg">
  <defs
     id="defs5472">
    <clipPath
       clipPathUnits="userSpaceOnUse"
       id="clipPath14">
      <path
         d="m 0,0 0,2997 2991,0 L 2991,0 0,0 Z"
         id="path16"
         inkscape:connector-curvature="0" />
    </clipPath>
  </defs>
  <sodipodi:namedview
     id="base"
     pagecolor="#ffffff"
     bordercolor="#666666"
     borderopacity="1.0"
     inkscape:pageopacity="0.0"
     inkscape:pageshadow="2"
     inkscape:zoom="1.5322225"
     inkscape:cx="95.667425"
     inkscape:cy="249.36825"
     inkscape:document-units="px"
     inkscape:current-layer="Background Layer"
     showgrid="true"
     units="px"
     inkscape:snap-bbox="true"
     inkscape:bbox-paths="false"
     inkscape:snap-nodes="false"
     inkscape:snap-bbox-edge-midpoints="false"
     inkscape:bbox-nodes="true"
     inkscape:snap-bbox-midpoints="false"
     inkscape:object-paths="false"
     inkscape:object-nodes="true"
     inkscape:window-width="3200"
     inkscape:window-height="1693"
     inkscape:window-x="0"
     inkscape:window-y="0"
     inkscape:window-maximized="1"
     showguides="false">
    <inkscape:grid
       type="xygrid"
       id="grid6182"
       empspacing="4"
       spacingx="16"
       spacingy="16" />
  </sodipodi:namedview>
  <metadata
     id="metadata5475">
    <rdf:RDF>
      <cc:Work
         rdf:about="">
        <dc:format>image/svg+xml</dc:format>
        <dc:type
           rdf:resource="http://purl.org/dc/dcmitype/StillImage" />
        <dc:title />
      </cc:Work>
    </rdf:RDF>
  </metadata>
  <g
     inkscape:label="Layer 1"
     inkscape:groupmode="layer"
     id="Background Layer"
     transform="translate(0,-540.36216)"
     style="display:inline">
    <rect
       style="opacity:1;fill:#ffffff;fill-opacity:1;stroke:none;stroke-width:4;stroke-linecap:butt;stroke-linejoin:miter;stroke-miterlimit:4;stroke-dasharray:none;stroke-dashoffset:0;stroke-opacity:1"
       id="Black Background"
       width="512"
       height="511.99997"
       x="1.9401147e-14"
       y="540.36218" />
  </g>
  <g
     inkscape:groupmode="layer"
     id="Yellow Layer"
     inkscape:label="Yellow"
     style="display:inline">
    <path
       id="Yellow"
       style="display:inline;fill:#ffdf6a;fill-opacity:1;fill-rule:nonzero;stroke:none"
       d="m 511.7578,655.1414 c -27.36311,-0.25113 -50.18993,-23.96294 -49.61133,-51.48828 0.101,-4.72707 0.0156,-9.45975 0.0156,-14.29102 -25.5623,3.90875 -45.3467,-3.84587 -57.0332,-22.79688 -5.31885,-8.6241 -8.01226,-17.44104 -7.9336,-26.20312 l 114.80472,0 0,114.77539 c -0.0811,-3.2e-4 -0.16102,0.005 -0.24219,0.004 z M 0,540.36216 0,655.13755 c 0.0811,-3.2e-4 0.1610175,0.005 0.2421875,0.004 27.3631095,-0.25122 50.1899285,-23.96303 49.6113285,-51.48837 -0.101,-4.72707 -0.01563,-9.45975 -0.01563,-14.29102 25.5623,3.90875 45.346703,-3.84586 57.033194,-22.79687 5.31885,-8.6241 8.01226,-17.44105 7.9336,-26.20313 L 0,540.36216 Z m 255.68945,141.86133 c -27.3631,0.25113 -50.18992,23.96294 -49.61133,51.48828 0.101,4.72707 0.0156,9.45973 0.0156,14.29101 -25.5623,-3.90877 -45.34475,3.84588 -57.03125,22.79688 -10.512,17.04446 -10.7834,34.83821 0.375,51.48633 13.1723,19.65314 32.07797,27.23359 56.66797,22.30664 0,5.08754 0.0907,9.58534 -0.0137,14.08008 -0.6522,27.9883 22.61972,52.07976 50.11132,51.82812 27.36311,-0.25028 50.18993,-23.96167 49.61133,-51.48633 -0.101,-4.72878 -0.0156,-9.46196 -0.0156,-14.39062 23.7924,4.8552 42.5886,-2.26267 56.0039,-21.3418 11.3219,-16.10485 12.12612,-33.8368 1.97852,-50.66601 -12.9823,-21.52723 -32.79294,-29.46825 -57.99414,-24.61133 0,-4.95942 -0.0907,-9.45814 0.0137,-13.95117 0.6522,-27.98147 -22.62833,-52.08122 -50.11133,-51.83008 z M 0.2421875,937.58286 C 0.1610175,937.58186 0.0811,937.58709 0,937.58677 l 0,114.77543 114.80469,0 c 0.0787,-8.7621 -2.61475,-17.5791 -7.9336,-26.2032 -11.686496,-18.951 -31.470899,-26.70564 -57.033199,-22.7968 0,-4.83136 -0.08537,-9.56399 0.01563,-14.29106 0.5786,-27.52534 -22.248219,-51.23715 -49.6113285,-51.48828 z m 511.5156225,0 c -27.36311,0.25113 -50.18993,23.96294 -49.61133,51.48828 0.101,4.72707 0.0156,9.45971 0.0156,14.29106 -25.5623,-3.90883 -45.3467,3.8458 -57.0332,22.7968 -5.31885,8.6241 -8.01226,17.4411 -7.9336,26.2032 l 114.80472,0 0,-114.77543 c -0.0811,3.2e-4 -0.16102,-0.005 -0.24219,-0.004 z"
       inkscape:connector-curvature="0"
       transform="translate(0,-540.36216)" />
  </g>
  <g
     inkscape:groupmode="layer"
     id="Blue Layer"
     inkscape:label="Blue"
     style="display:inline">
    <path
       id="Blue"
       style="display:inline;fill:#2080ff;fill-opacity:1;fill-rule:nonzero;stroke:none"
       d="m 128,588.36214 c -16,32 -16,32 -48.000003,32 0,32 0,32 -32,48 32,16 32,16 32,48 C 112,716.36214 112,716.3621 128,748.3622 c 16,-32.0001 16,-32.00006 48,-32.00006 0,-32 0,-32 32,-48 -32,-16 -32,-16 -32,-48 -32,0 -32,0 -48,-32 z m 0,24 c 6,20 6,20 16,32 -10,6 -10,6 -16,20 -6,-14 -6,-14 -16,-20 10,-12 10,-12 16,-32 z m -24,40 c 6,10 6,10 20,16 -14,6 -14,6 -20,16 -12.000003,-10 -12.000003,-10 -32.000003,-16 20,-6 20,-6 32.000003,-16 z m 48,0 c 12,10 12,10 32,16 -20,6 -20,6 -32,16 -6,-10 -6,-10 -20,-16 14,-6 14,-6 20,-16 z m -24,20 c 6,14 6,14 16,20 -10,12 -10,12 -16,32 -6,-20 -6,-20 -16,-32 10,-6 10,-6 16,-20 z m 255.99999,-84 c -16,32 -16,32 -48,32 0,32 0,32 -32,48 32,16 32,16 32,48 32,0 32,-4e-5 48,32.00006 16,-32.0001 16,-32.00006 48,-32.00006 0,-32 0,-32 32,-48 -32,-16 -32,-16 -32,-48 -32,0 -32,0 -48,-32 z m 0,24 c 6,20 6,20 16,32 -10,6 -10,6 -16,20 -6,-14 -6,-14 -16,-20 10,-12 10,-12 16,-32 z m -24,40 c 6,10 6,10 20,16 -14,6 -14,6 -20,16 -12,-10 -12,-10 -32,-16 20,-6 20,-6 32,-16 z m 48,0 c 12,10 12,10 32,16 -20,6 -20,6 -32,16 -6,-10 -6,-10 -20,-16 14,-6 14,-6 20,-16 z m -24,20 c 6,14 6,14 16,20 -10,12 -10,12 -16,32 -6,-20 -6,-20 -16,-32 10,-6 10,-6 16,-20 z m 0,172 c -16,32 -16,32 -48,32 0,32 0,32 -32,48 32,16 32,16 32,48 32,0 32,-4e-5 48,32.00006 16,-32.0001 16,-32.00006 48,-32.00006 0,-32 0,-32 32,-48 -32,-16 -32,-16 -32,-48 -32,0 -32,0 -48,-32 z m 0,24 c 6,20 6,20 16,32 -10,6 -10,6 -16,20 -6,-14 -6,-14 -16,-20 10,-12 10,-12 16,-32 z m -24,40 c 6,10 6,10 20,16 -14,6 -14,6 -20,16 -12,-10 -12,-10 -32,-16 20,-6 20,-6 32,-16 z m 48,0 c 12,10 12,10 32,16 -20,6 -20,6 -32,16 -6,-10 -6,-10 -20,-16 14,-6 14,-6 20,-16 z m -24,20 c 6,14 6,14 16,20 -10,12 -10,12 -16,32 -6,-20 -6,-20 -16,-32 10,-6 10,-6 16,-20 z M 128,844.36216 c -16,32 -16,32 -48,32 0,32 -10e-7,32 -32,48 31.999999,16 32,16 32,48 32,0 32,-4e-5 48,32.00004 16,-32.00008 16,-32.00004 48,-32.00004 0,-32 0,-32 32,-48 -32,-16 -32,-16 -32,-48 -32,0 -32,0 -48,-32 z m 0,24 c 6,20 6,20 16,32 -10,6 -10,6 -16,20 -6,-14 -6,-14 -16,-20 10,-12 10,-12 16,-32 z m -24,40 c 6,10 6,10 20,16 -14,6 -14,6 -20,16 -12.000004,-10 -12,-10 -32,-16 20,-6 19.999996,-6 32,-16 z m 48,0 c 12,10 12,10 32,16 -20,6 -20,6 -32,16 -6,-10 -6,-10 -20,-16 14,-6 14,-6 20,-16 z m -24,20 c 6,14 6,14 16,20 -10,12 -10,12 -16,32 -6,-20 -6,-20 -16,-32 10,-6 10,-6 16,-20 z"
       inkscape:connector-curvature="0"
       transform="translate(0,-540.36216)" />
  </g>
  <g
     inkscape:groupmode="layer"
     id="Orange Layer"
     inkscape:label="Orange"
     style="display:inline">
    <path
       id="Orange"
       style="display:inline;fill:#ff660b;fill-opacity:1;fill-rule:nonzero;stroke:none"
       d="m 0,599.37187 c 0,0 10.5,-10.94597 10.5,-24.44727 C 10.5,561.4233 0,550.47929 0,550.47929 l 0,48.89258 z m 41.81055,-17.28321 c 0,0 -0.33099,-15.14891 -9.89649,-24.69531 -9.5673,-9.5481 -24.74609,-9.87891 -24.74609,-9.87891 -1e-5,0 0.33123,15.14722 9.89844,24.69532 9.5656,9.5464 24.74414,9.8789 24.74414,9.8789 z m -7.17578,-31.25 c 13.5283,0 24.49414,-10.47656 24.49414,-10.47656 l -48.99024,0 c 0,0 10.9677,10.47656 24.4961,10.47656 z m 477.36522,48.53321 c 0,0 -10.5,-10.94597 -10.5,-24.44727 0,-13.5013 10.5,-24.44531 10.5,-24.44531 l 0,48.89258 z m -41.81055,-17.28321 c 0,0 0.33099,-15.14891 9.89649,-24.69531 9.5673,-9.5481 24.74609,-9.87891 24.74609,-9.87891 10e-6,0 -0.33123,15.14722 -9.89844,24.69532 -9.5656,9.5464 -24.74414,9.8789 -24.74414,9.8789 z m 7.17578,-31.25 c -13.5283,0 -24.49414,-10.47656 -24.49414,-10.47656 l 48.99024,0 c 0,0 -10.9677,10.47656 -24.4961,10.47656 z M 256.00097,737.3524 c 0,0 -10.5,10.94599 -10.5,24.44726 0,13.5013 10.5,24.44532 10.5,24.44532 0,0 10.49805,-10.94402 10.49805,-24.44532 0,-13.50127 -10.49805,-24.44726 -10.49805,-24.44726 z m -41.81054,17.2832 c 0,0 0.33098,15.14892 9.89648,24.69532 9.5673,9.54811 24.74609,9.8789 24.74609,9.8789 1e-5,0 -0.33123,-15.1472 -9.89843,-24.69531 -9.5656,-9.5464 -24.74414,-9.87891 -24.74414,-9.87891 z m 83.61914,0 c 0,0 -15.17864,0.33251 -24.74414,9.87891 -9.5673,9.54811 -9.89844,24.69531 -9.89844,24.69531 0,0 15.17864,-0.3308 24.74414,-9.8789 9.5673,-9.54641 9.89844,-24.69532 9.89844,-24.69532 z m -76.44336,31.25 c -13.5283,0 -24.49414,10.47656 -24.49414,10.47656 0,0 10.96584,10.47852 24.49414,10.47852 13.5284,0 24.49609,-10.47852 24.49609,-10.47852 0,0 -10.96769,-10.47656 -24.49609,-10.47656 z m 69.26562,0 c -13.5284,0 -24.49609,10.47656 -24.49609,10.47656 0,0 10.96769,10.47852 24.49609,10.47852 13.5284,0 24.4961,-10.47852 24.4961,-10.47852 0,0 -10.9677,-10.47656 -24.4961,-10.47656 z M 248.833,803.51646 c 0,0 -15.17879,0.32885 -24.74609,9.87696 -9.5655,9.5464 -9.89648,24.69531 -9.89648,24.69531 0,0 15.17854,-0.3308 24.74414,-9.87891 9.5672,-9.5464 9.89843,-24.69336 9.89843,-24.69336 z m 14.33399,0 c 0,0 0.33114,15.14696 9.89844,24.69336 9.5655,9.54811 24.74414,9.87891 24.74414,9.87891 0,0 -0.33114,-15.14892 -9.89844,-24.69531 -9.5655,-9.54812 -24.74414,-9.87696 -24.74414,-9.87696 z m -7.16602,2.96094 c 0,0 -10.5,10.94597 -10.5,24.44726 0,13.5013 10.5,24.44727 10.5,24.44727 0,0 10.49805,-10.94597 10.49805,-24.44727 0,-13.50129 -10.49805,-24.44726 -10.49805,-24.44726 z M 0,993.35238 c 0,0 10.5,10.94602 10.5,24.44732 0,13.5013 -10.5,24.4453 -10.5,24.4453 l 0,-48.89262 z m 41.81055,17.28322 c 0,0 -0.33099,15.1489 -9.89649,24.6953 -9.5673,9.5481 -24.74609,9.8789 -24.74609,9.8789 -1e-5,0 0.33123,-15.1472 9.89844,-24.6953 9.5656,-9.5464 24.74414,-9.8789 24.74414,-9.8789 z m -7.17578,31.25 c 13.5283,0 24.49414,10.4766 24.49414,10.4766 l -48.99024,0 c 0,0 10.9677,-10.4766 24.4961,-10.4766 z M 512,993.35239 c 0,0 -10.5,10.94601 -10.5,24.44731 0,13.5013 10.5,24.4453 10.5,24.4453 l 0,-48.89261 z m -41.81055,17.28321 c 0,0 0.33099,15.1489 9.89649,24.6953 9.5673,9.5481 24.74609,9.8789 24.74609,9.8789 1e-5,0 -0.33123,-15.1472 -9.89844,-24.6953 -9.5656,-9.5464 -24.74414,-9.8789 -24.74414,-9.8789 z m 7.17578,31.25 c -13.5283,0 -24.49414,10.4766 -24.49414,10.4766 l 48.99024,0 c 0,0 -10.9677,-10.4766 -24.4961,-10.4766 z M 141.53906,540.36216 c 1.47433,16.39987 8.09599,29.91777 21.22656,40.32031 13.39196,10.61182 29.02622,9.93047 45.02344,9.23633 -5.07729,24.98889 2.71483,44.35297 23.20508,57.56055 16.21419,10.45004 33.79924,10.45003 50.01172,0 20.49025,-13.20827 28.28263,-32.5708 23.24805,-57.34571 4.28118,0 8.21622,-0.25211 12.11132,0.0488 10.89259,0.84049 20.91484,-1.57321 30.01758,-7.60937 15.08905,-10.00601 22.49396,-24.45166 24.07813,-42.21094 l -228.92188,0 z M 0,681.90122 0,910.8231 c 16.39992,-1.47484 29.917693,-8.09618 40.320312,-21.22656 10.6118,-13.39265 9.932446,-29.02451 9.234376,-45.02344 24.991619,5.07729 44.35423,-2.71483 57.562502,-23.20508 10.45003,-16.21248 10.45003,-33.79924 0,-50.01172 -13.208272,-20.49026 -32.570116,-28.28264 -57.345706,-23.24805 0,-4.26412 -0.252111,-8.21136 0.04883,-12.11328 0.84049,-10.8926 -1.575168,-20.9134 -7.611328,-30.01562 C 32.202994,690.89098 17.75927,683.48488 0,681.90122 Z m 512,0 c -16.39987,1.47433 -29.91777,8.09599 -40.32031,21.22656 -10.61182,13.39196 -9.93047,29.02622 -9.23633,45.02344 -24.98889,-5.07729 -44.35297,2.71483 -57.56055,23.20508 -10.45004,16.21419 -10.45003,33.79924 0,50.01172 13.20827,20.49025 32.5708,28.28263 57.34571,23.24805 0,4.28118 0.25211,8.21622 -0.0488,12.11132 -0.84049,10.89259 1.57321,20.91484 7.60937,30.01758 10.00601,15.08905 24.45166,22.49396 42.21094,24.07813 l 0,-228.92188 z M 256,937.40708 c -8.45005,0 -16.89962,2.61092 -25.00586,7.83594 -20.49025,13.20827 -28.28264,32.57193 -23.24805,57.34768 -4.26411,0 -8.21136,0.2521 -12.11328,-0.049 -10.8926,-0.8405 -20.9134,1.5751 -30.01562,7.6113 -15.08837,10.006 -22.49447,24.4497 -24.07813,42.209 l 228.92188,0 c -1.47483,-16.4 -8.09616,-29.9176 -21.22656,-40.3203 -13.39265,-10.6118 -29.02452,-9.9325 -45.02344,-9.2344 5.07728,-24.99173 -2.71483,-44.35618 -23.20508,-57.56445 -8.10624,-5.22502 -16.55581,-7.83594 -25.00586,-7.83594 z"
       inkscape:connector-curvature="0"
       transform="translate(0,-540.36216)" />
  </g>
</svg>
