<?xml version="1.0" encoding="UTF-8" standalone="no"?>
<!-- Created with Inkscape (http://www.inkscape.org/) -->

<svg
   xmlns:dc="http://purl.org/dc/elements/1.1/"
   xmlns:cc="http://creativecommons.org/ns#"
   xmlns:rdf="http://www.w3.org/1999/02/22-rdf-syntax-ns#"
   xmlns:svg="http://www.w3.org/2000/svg"
   xmlns="http://www.w3.org/2000/svg"
   xmlns:sodipodi="http://sodipodi.sourceforge.net/DTD/sodipodi-0.dtd"
   xmlns:inkscape="http://www.inkscape.org/namespaces/inkscape"
   width="69.078003"
   height="239"
   id="svg2"
   version="1.1"
   inkscape:version="0.91 r13725"
   sodipodi:docname="september-border-clipart-Geometric_Frame_or_Border.svg">
  <defs
     id="defs4" />
  <sodipodi:namedview
     id="base"
     pagecolor="#ffffff"
     bordercolor="#666666"
     borderopacity="1.0"
     inkscape:pageopacity="0.0"
     inkscape:pageshadow="2"
     inkscape:zoom="28.963094"
     inkscape:cx="49.212603"
     inkscape:cy="0.088889448"
     inkscape:document-units="px"
     inkscape:current-layer="layer1"
     showgrid="false"
     showguides="true"
     inkscape:guide-bbox="true"
     inkscape:window-width="3200"
     inkscape:window-height="1697"
     inkscape:window-x="0"
     inkscape:window-y="0"
     inkscape:window-maximized="1"
     showborder="true"
     inkscape:showpageshadow="false"
     fit-margin-top="0"
     fit-margin-left="0"
     fit-margin-right="0"
     fit-margin-bottom="0">
    <sodipodi:guide
       orientation="1,0"
       position="-5001.8436,-33.6696"
       id="guide3644" />
    <inkscape:grid
       type="xygrid"
       id="grid4666"
       empspacing="5"
       visible="true"
       enabled="true"
       snapvisiblegridlinesonly="true" />
  </sodipodi:namedview>
  <metadata
     id="metadata7">
    <rdf:RDF>
      <cc:Work
         rdf:about="">
        <dc:format>image/svg+xml</dc:format>
        <dc:type
           rdf:resource="http://purl.org/dc/dcmitype/StillImage" />
        <dc:title></dc:title>
      </cc:Work>
    </rdf:RDF>
  </metadata>
  <g
     inkscape:label="Layer 1"
     inkscape:groupmode="layer"
     id="layer1"
     transform="translate(364.08673,-601.90556)">
    <g
       id="g4864"
       transform="translate(0,143.63076)">
      <path
         inkscape:export-ydpi="77.589996"
         inkscape:export-xdpi="77.589996"
         inkscape:export-filename="C:\Users\Daniel Fowler\Documents\AndriodDocs\NinePatch\frame.png"
         sodipodi:nodetypes="cccccccccccccccccccccccccccccccc"
         inkscape:connector-curvature="0"
         d="m -363.82917,657.99748 19.71875,19.51297 -19.9375,19.76435 10,0 19.80139,-19.72908 -23.48316,-23.50739 -0.31823,-76.41796 -6,0 z m 11.72028,-7.98115 22.60217,22.76352 22.60214,-22.76352 -0.14334,-72.39596 -45,0 z m 7.90472,47.25847 29.59375,0 -14.78125,-14.89396 z m 19.5,-19.7015 19.65625,19.7015 10,0 -19.78125,-19.67008 19.82006,-19.93069 -3.03881,-6.88936 -4.04714,4.09653 z m 23.65625,-23.77214 6,3.89363 c 0,0 0.0152,-56.59244 0,-80.07442 l -6,0 z"
         style="fill:#000000;fill-opacity:1;stroke:none"
         id="path3715-4-8" />
      <path
         inkscape:export-ydpi="77.589996"
         inkscape:export-xdpi="77.589996"
         inkscape:export-filename="C:\Users\Daniel Fowler\Documents\AndriodDocs\NinePatch\frame.png"
         sodipodi:nodetypes="cccccccccccccccccccccccccccccccc"
         inkscape:connector-curvature="0"
         d="m -295.26667,497.3373 -19.71875,-19.40625 19.9375,-19.65625 -10,0 -19.8014,19.62118 23.48317,23.37882 0.31823,77 6,0 z m -11.72028,7.9375 -22.60218,-22.63901 -22.60213,22.63901 0.14334,73 45,0 z m -7.90472,-47 -29.59375,0 14.78125,14.8125 z m -19.5,19.59375 -19.65625,-19.59375 -10,0 19.78125,19.5625 -19.82006,19.82168 3.03881,6.85168 4.04714,-4.07412 z m -23.65625,23.64211 -6,-3.87233 c 0,0 -0.0152,57.28292 0,80.63647 l 6,0 z"
         style="fill:#000000;fill-opacity:1;stroke:none"
         id="path3715-8-0" />
    </g>
  </g>
</svg>
